<?xml version="1.0" standalone="no"?>
<!DOCTYPE svg PUBLIC "-//W3C//DTD SVG 20010904//EN"
 "http://www.w3.org/TR/2001/REC-SVG-20010904/DTD/svg10.dtd">
<svg version="1.0" xmlns="http://www.w3.org/2000/svg"
 width="700.000000pt" height="700.000000pt" viewBox="0 0 700.000000 700.000000"
 preserveAspectRatio="xMidYMid meet">
<metadata>
Created by potrace 1.11, written by Peter Selinger 2001-2013
</metadata>
<g transform="translate(0.000000,700.000000) scale(0.100000,-0.100000)"
fill="#000000" stroke="none">
<path d="M4450 6843 c-30 -8 -71 -17 -90 -20 -35 -6 -54 -22 -134 -113 -102
-118 -122 -269 -54 -415 24 -52 91 -159 125 -199 43 -51 132 -109 238 -155
126 -54 225 -104 225 -112 0 -3 -17 -69 -39 -145 -67 -243 -100 -366 -126
-484 -15 -63 -33 -144 -41 -180 -17 -72 -53 -241 -60 -280 -3 -14 -18 -95 -35
-180 -17 -85 -32 -166 -34 -180 -2 -14 -11 -68 -19 -120 -9 -52 -18 -113 -22
-135 -3 -22 -8 -47 -9 -55 -2 -8 -7 -40 -11 -70 -10 -69 -8 -59 -21 -100 -7
-19 -14 -51 -16 -70 -8 -57 -15 -66 -74 -84 -64 -21 -81 -24 -148 -30 -28 -3
-115 -18 -195 -34 -80 -17 -170 -33 -200 -37 -30 -4 -62 -9 -70 -10 -8 -2 -44
-6 -80 -10 -84 -8 -106 -12 -187 -31 -42 -10 -104 -15 -167 -13 -56 1 -141 -2
-191 -6 -227 -22 -448 -4 -675 54 -69 17 -135 47 -137 61 -8 41 33 50 157 35
147 -18 743 -25 727 -9 -2 2 -21 16 -44 31 -169 114 -319 291 -339 398 -21
116 -5 168 128 410 64 115 51 109 243 119 155 9 296 19 435 31 19 2 59 4 88 4
35 1 52 5 51 14 0 13 -107 85 -199 135 -78 42 -168 94 -216 125 -23 14 -58 33
-79 41 -32 14 -36 19 -31 40 3 14 1 26 -5 28 -9 3 -9 9 0 25 30 57 46 242 27
322 -46 198 -180 357 -366 436 -143 61 -247 79 -440 79 -278 -2 -505 -71 -747
-230 -44 -30 -100 -70 -124 -90 -24 -20 -75 -52 -113 -71 -165 -83 -371 -239
-541 -408 -365 -364 -627 -817 -786 -1360 l-29 -100 0 -786 c0 -851 -2 -821
57 -1059 14 -58 34 -134 45 -169 11 -35 21 -71 23 -80 8 -39 101 -255 147
-341 171 -322 463 -598 823 -778 222 -110 408 -157 660 -166 61 -2 122 -8 136
-14 14 -6 66 -18 115 -27 183 -34 263 -40 525 -39 197 1 240 4 260 18 17 10
58 17 134 21 193 9 329 17 360 21 17 2 50 7 75 9 408 49 834 216 1128 443 108
84 172 147 265 264 42 53 89 105 104 116 53 37 124 55 268 68 39 3 124 17 190
30 66 14 140 27 164 30 24 3 53 9 64 13 31 12 68 1 76 -23 17 -46 1 -275 -24
-347 -8 -20 -15 -59 -16 -85 -3 -66 -6 -72 -39 -79 -37 -8 -76 -38 -187 -142
-76 -71 -90 -89 -83 -104 27 -50 79 -31 170 61 38 38 74 70 79 70 20 0 17 -28
-11 -83 -32 -64 -29 -80 18 -91 34 -9 49 5 70 62 9 26 28 70 41 98 24 50 26
52 57 43 17 -4 40 -7 51 -5 11 2 35 -4 53 -13 29 -13 34 -13 43 -1 5 8 8 26 7
39 -2 19 -12 27 -48 37 -25 8 -63 16 -85 20 -22 3 -44 9 -48 14 -5 4 7 70 26
146 44 175 51 223 52 359 0 149 -24 198 -104 211 -60 10 -466 3 -663 -11 -77
-5 -82 4 -51 114 36 131 64 296 78 466 6 61 6 322 1 350 -2 11 -7 43 -11 71
-10 72 -15 78 -54 58 -19 -9 -56 -22 -84 -28 l-51 -11 -17 -70 c-44 -185 -115
-298 -257 -409 -122 -96 -261 -156 -359 -156 -38 0 -37 2 -19 -42 17 -40 14
-96 -8 -162 -9 -26 -16 -52 -16 -59 0 -7 -11 -36 -25 -66 -67 -142 -257 -246
-470 -255 -123 -6 -193 6 -278 47 -62 29 -215 140 -232 168 -4 5 18 0 47 -12
97 -39 192 -57 291 -53 51 1 107 7 125 13 38 11 35 11 65 11 12 0 45 15 72 32
28 18 57 33 65 34 21 4 76 69 100 119 32 67 87 273 85 320 l-3 42 65 6 c87 9
243 62 307 105 88 61 156 142 213 257 36 71 89 227 98 288 4 24 10 48 13 54 4
6 39 14 77 18 353 33 621 273 676 605 12 72 14 218 4 251 -7 20 -4 20 47 13
29 -5 86 -8 125 -9 45 0 73 -4 73 -11 0 -6 -7 -34 -16 -63 -8 -28 -17 -69 -19
-89 -3 -20 -8 -57 -11 -82 -4 -25 -8 -56 -10 -70 -9 -63 -11 -413 -3 -461 5
-30 12 -75 15 -102 6 -47 6 -47 -18 -38 -35 13 -148 24 -276 26 -112 1 -152
-7 -89 -19 163 -31 321 -87 470 -166 59 -31 79 -38 83 -27 3 8 -11 99 -30 203
-60 331 -65 438 -26 664 5 30 12 68 14 83 3 16 10 43 15 60 9 29 18 74 20 104
1 6 26 24 57 40 124 63 209 190 245 370 22 106 25 113 42 113 25 0 93 42 126
78 54 58 76 121 86 242 2 19 8 58 15 85 12 50 15 372 4 430 -6 36 -21 55 -42
55 -9 0 -58 -21 -110 -47 l-93 -46 -117 0 c-79 -1 -138 5 -182 16 -72 20 -220
85 -220 99 0 4 -5 8 -11 8 -18 0 -121 85 -190 156 -154 161 -261 327 -435 674
-40 80 -82 154 -93 164 -12 11 -47 21 -98 27 -87 11 -180 35 -188 50 -4 5 -2
42 4 82 5 39 12 97 15 127 10 102 16 165 21 230 11 133 17 196 24 236 9 50 -1
82 -31 93 -35 13 -107 11 -168 -6z m-1665 -1049 c117 -35 203 -126 251 -264
30 -84 34 -150 16 -220 -28 -111 -103 -197 -219 -252 -49 -23 -77 -30 -130
-30 -75 -1 -185 28 -261 68 -98 52 -180 156 -209 264 -15 54 0 157 32 222 45
93 172 209 247 229 46 12 213 1 273 -17z m2159 -313 c21 -40 47 -83 60 -95 12
-11 32 -37 43 -56 12 -19 39 -51 60 -70 21 -19 66 -69 100 -111 141 -174 333
-317 494 -370 41 -13 96 -22 154 -24 84 -2 124 1 230 20 l40 8 -30 -24 c-16
-13 -39 -33 -51 -44 -36 -35 -97 -86 -169 -142 -38 -29 -92 -72 -120 -94 -84
-66 -214 -139 -600 -333 -326 -165 -628 -297 -643 -282 -2 3 3 47 11 98 19
106 25 149 32 216 9 87 22 184 31 226 2 11 7 37 9 56 3 19 8 51 11 70 4 19 8
44 9 55 2 11 6 34 8 50 3 17 8 48 12 70 25 167 78 376 154 605 38 113 72 225
86 285 l7 30 13 -35 c7 -19 29 -68 49 -109z"/>
<path d="M2590 5693 c-95 -24 -161 -80 -210 -177 -41 -80 -39 -125 5 -212 51
-100 64 -112 152 -138 132 -40 244 -16 322 69 108 117 110 225 7 377 -53 79
-161 111 -276 81z m123 -167 c9 9 66 -25 76 -45 15 -27 16 -73 3 -97 -6 -12
-27 -35 -47 -53 -32 -28 -50 -33 -105 -34 -27 0 -99 52 -105 76 -13 62 -9 82
23 117 16 17 41 32 62 35 19 3 36 8 38 10 2 2 14 0 27 -5 13 -5 25 -6 28 -4z"/>
<path d="M4060 6180 c-12 -36 -9 -226 5 -350 15 -129 25 -754 15 -915 -5 -77
-20 -121 -42 -122 -11 -1 -52 -24 -92 -51 -87 -59 -169 -102 -351 -182 -181
-80 -217 -100 -385 -215 -77 -53 -180 -116 -230 -141 l-90 -45 112 -100 c61
-56 154 -132 205 -171 52 -39 102 -81 111 -93 16 -20 23 -22 68 -15 27 4 69
11 94 14 105 14 278 51 345 73 65 21 175 59 197 68 17 7 24 28 33 105 3 25 10
61 15 80 5 19 12 55 15 80 3 25 8 56 10 70 9 56 32 237 41 318 3 29 7 63 10
75 3 12 9 101 14 197 5 96 12 189 15 205 6 36 6 226 0 310 -2 33 -7 96 -10
140 -3 44 -8 103 -10 130 -3 28 -7 73 -9 100 -3 28 -7 82 -10 120 -13 142 -17
202 -21 267 -2 38 -7 72 -10 78 -13 21 -32 8 -45 -30z"/>
<path d="M5535 2155 c-5 -2 -44 -13 -85 -25 -89 -26 -224 -73 -263 -92 -27
-13 -32 -22 -42 -83 -2 -16 -10 -51 -17 -77 -6 -26 -9 -50 -6 -53 3 -4 41 11
84 33 44 22 95 42 114 46 64 11 81 15 100 21 17 5 18 0 14 -82 -3 -48 -7 -110
-10 -138 -3 -27 -7 -88 -10 -134 -4 -74 -3 -83 12 -77 9 3 32 9 52 12 21 3 46
7 57 9 11 2 23 4 26 4 3 1 6 7 6 14 0 6 10 57 22 112 28 126 34 183 34 317 0
86 -4 113 -19 139 -20 34 -52 59 -69 54z"/>
<path d="M5479 1175 c-3 -2 -29 -7 -58 -10 -29 -2 -57 -7 -62 -11 -5 -3 -9
-32 -9 -65 0 -43 -4 -59 -14 -59 -7 0 -39 -11 -70 -25 -31 -14 -93 -34 -137
-46 -97 -25 -165 -54 -150 -63 6 -4 11 -16 11 -26 0 -17 7 -18 58 -15 82 5
121 13 171 36 64 28 75 26 56 -11 -36 -70 -29 -150 14 -150 34 0 92 92 108
170 3 17 7 30 8 30 2 0 25 -9 51 -20 80 -35 108 -6 59 60 -29 39 -30 52 -11
83 18 28 26 87 14 110 -8 16 -29 23 -39 12z"/>
</g>
</svg>
