<svg xmlns="http://www.w3.org/2000/svg" viewBox="0 0 500 500" enable-background="new 0 0 500 500"><switch><g><path d="m262.53 155.55c5.08 4 11.176 4.505 17.361 4.298 1.183-.041 9.834-1.884 10.334-1.568-9.485-5.9-5.269-21.845 1.413-28.28-6.997 11.436 2.585 22.69 13.502 25.787 17.32 4.917 3.849-12.02 7.604-19.09 10.913 13.283 19.453 20.373 35.813 26.439-.867-2.74 2.622-5.84 2.065-7.913 4.82 17.817 23.14 17.51 35.02 27.826-7.88-6.846-35.14-13.07-48.13-15.2-11.543-1.891-21.514-1.602-32.49 2.64-17.858 6.908-43.36 31.06-61.5 8.644 12.997 8.239 32.446-3.552 41.654-12.278-2.408.115-26.938-6.04-22.644-11.314"/><path d="m71.19 191.03c5.848-.901 7.527 1.802 12.971 3.03 10.872.846 32.498-21.311 39.24-12.292 2.221 2.97 12.278 12.429 12.278 12.429l-14.48 14.04c0 0 1.454 1.443 0 0-5.551-5.514-7.883-9.307-7.483-12.285-4.628 1.72-37.19 12.741-41.05 8.773-6.638-6.811-13.513-11.835-1.472-13.697"/><path d="m387.49 358.92c-1.732 6.219-4.269 10.454-5.303 16.865-.026.182-2.02 12.886-2.096 12.971.097 7.298-6.5 10.939-10.423 16.201-3.104-6.219-1.902-8.955 1.016-11.621 7.342-6.724 6.737-25.09 8.14-34.01.76-4.798-5.974-12.89-8.711-16.286 4.609-2.095 9.159-5.117 13.438-7.79 4.124 9.948 7.02 12.622 3.939 23.672"/><path d="m462.51 282.01c-.856 7.19-1.52 14.466-3.767 21.393-.293.912-.631 1.961-1.017 3.081-3.318 14.677-8.503 28.28-14.04 37.01-3.471 5.477-19.212 15.804-21.41-2.174-.816-6.674-10.851-15.403-11.385-23.03-.393-5.633-.056-8.422 1.568-13.917-17.02 14.361-34.05 28.412-54.49 37.08 10.223 12.875 8.751 23.955 5.02 39.711-3.326 10.242-8.873 7.831-13.453 16.612-7.05-11.71 5.325-9.808 7.368-19.664.871-4.172.289-13.339-1.802-19.294-24.923-15.181-46.03-26.354-51.23-35.653-5.321-9.541 11.944-24.07 10.887-25.786-4.445 3.248-21.692 13.656-21.462 20.275.467 13.765 19.512 26.19 29.391 33.521-29.836 3.786-62.59-2.392-88.19-18.226-14.01-8.669-26.721-18.203-38.23-29.891-10.464-10.624-21.912-20.933-35.643-27.12-11.28-5.088-27.12-1.81-37.22-7.828-12.13-7.238-16.15-22.438-31.834-25.538-7.157-1.413-13.876.827-20.977.341-5.632-.386-11.284-2.77-16.701-4.183-9.96-2.596-22.728-7.305-31.26-13.657-6.02-4.487-1.765-8.584 2.503-10.157 10.249-3.764 11.565 5.191 20.16 9.563 15.897 8.08 23.691 4.854 38.33-3 7.283-3.905 26.376-3.01 34-1.112.801-1.168 16.442-16.49 21.05-21.756 6.667-5.933 17.599-18.663 27.09-17.884-4.045-8.258-9.385-13.983-10.587-15.708-4.338-6.226-7.587-13.22-8.376-20.903-.923-8.948.549-24.19 9.667-28.849 12.12-6.2 22.23-4.168 39.19-6.1 10.409-.056 24.945-3.189 18.548-13.85 6.497 6.115 5.892 10.628 1.672 17.707-.738 1.231-2.154 3.593.968 3.271 5.347.575 11.05-2.911 12.926-9.489 1.969 9.419-7.238 13.802-6.178 15.16 3.805 4.861 27.06-17.284 18-27.392 8.502 2.811 4.279 15.99 3.541 18.15-2.596 7.628-7.12 14.402-14.595 18.08-18.03 8.87-34.448-3.1-52.25 1.346-9.07 2.258-19.18 6.389-20.632 15.24-1.35 8.158 10.787 25.16 16.334 30.25 6.534 6 18.456 6.163 27.03 8.447 8.336 2.229 16.316 3.786 24.792 5.277 15.953 2.814 34.764 7.231 50.602 1.898 12.329-4.153 21.67-14.321 34.06-18.793 20.1-5.948 38.35 1.543 56.846 9.159 10.242 6.133 24.16 10.694 33.17 17.198-6.749 15.511-.163 35.776 20.695 44.924-15.667-11.688-15.716-22.909-15.771-27.01-.142-10.116 3.073-18.8 10.138-25.327 7.728-7.149 27.507-10.539 37.652-4.02-12.808-3.456-33.729 11.139-30.647 26.31.297 4.68 2.862 9.404 5.695 12.767 4.279 5.073 9.819 7.142 15.797 8.525 1.561.601 3.107 1.216 4.628 1.876.188.126.382.252.574.375 3.13 2.043 6.104 3.815 8.255 6.437 3.341 3.052 5.27 7.25 5.699 11.885.148 1.562.189 3.122.148 4.672 1.021 6.603-.18 14.179-.852 19.786"/><path d="m468.24 248.47c-3.563-4.798-9.09-12.147-16.17-14.07 5.454-2.043 11.432.415 17.799-5.44 2.981-2.744 8.926-11.915-.809-23.261 10.06 7.65 11.974 14.903 12.148 23.402.171 8.435-6.76 14-12.967 19.367"/></g></switch></svg>