<svg xmlns="http://www.w3.org/2000/svg" viewBox="0 0 500 500" enable-background="new 0 0 500 500"><switch><g><path d="m329.07 180.17c-16.366-1.17-32.584-3.973-49.04-4.243-.772-.014-1.405-.266-1.928-.629-.355-.038-.691-.116-1.046-.158-.605-.943-1.587-1.654-2.804-1.763-.506-.048-.951.014-1.439-.01 1.292-.493 2.563-.999 3.904-1.457.147-.937.622-1.839 1.56-2.454 3.469-2.278 6.841-4.808 10.198-7.386.01-.003.02-.006.034-.01.771-.597 1.551-1.203 2.324-1.805 5.143-4 10.267-8.089 15.617-11.743-.417-.355-.834-.715-1.272-1.03-9.839-.454-19.668-1.063-29.524-.875-.865.017-1.511-.28-2.045-.691-3.053.527-6.02 1.016-8.738 1.279 6-8.349 14.975-15.815 19.32-25.09.393-2.595.424-5.275.382-7.983-2.331 2.01-4.833 3.799-7.405 5.515-.48.318-.96.639-1.445.95-5.645 3.638-11.614 6.903-17.391 10.479-2.485 1.529-4.941 3.098-7.286 4.832-1.73 1.278-3.481 2.472-5.248 3.596-.509.329-1.029.612-1.538.923-1.29.787-2.575 1.56-3.884 2.267-.548.297-1.102.564-1.652.848-1.319.68-2.642 1.343-3.982 1.952-.482.218-.971.421-1.453.628-1.627.705-3.258 1.382-4.913 1.984.539-.137 1.104-.216 1.644-.363.007.017.014.034.021.048-.219.195-.431.393-.653.581-.611-.006-1.257.113-1.904.534-.493.314-.924.718-1.398 1.05-.127-.291-.287-.564-.44-.842-9.05 2.94-18.605 4.366-28.76 4.363-3.142 0-4.03-3.388-2.766-5.429-.01-.079-.048-.148-.054-.226-1.255-1.303-1.231-3.823 1.032-4.356 9.413-2.206 18.653-4.058 27.573-6.547-.485-.404-1.409-1.152-2.472-2l.246-.061c.133.003.273.037.4.021.639.67 1.306 1.312 1.905 2.024.539-.151 1.063-.332 1.6-.49 1.705-.652 3.397-1.343 5.087-2.038-8.05-10.505-19.29-18.386-32.04-22.796-3.607-.506-7.231-.861-10.869-1.07-9.187.065-18.373.325-27.566.373-1.603.01-2.604-.885-3.063-2.024-.14-.069-.222-.243-.352-.321-1.231-1.897-2.496-3.781-3.911-5.614-.964-1.248-1.911-2.554-2.892-3.832-1.402-1.952-2.773-3.918-4.243-5.895-1.418-2.359-2.988-4.561-4.721-6.636 0-.048-.014-.099-.014-.147-2.02-2.294-3.966-4.65-5.887-7.04-1.572-1.959-2.913-4.202-4.318-6.369-.448-.007-.864.034-1.24.15-.496 9.371-.927 18.735-.602 28.13.021.554-.075 1.036-.246 1.453.144 1.224.294 2.482.414 3.645.096 6.328.394 12.649.94 18.957-3.979 4.181-7.539 8.684-10.526 13.248-1.21 3-2.462 5.965-3.625 8.95-.044.116-.089.229-.133.342-.81 2.096-1.562 4.202-2.215 6.338-.075.243-.14.489-.212.731-.616 2.106-1.138 4.239-1.494 6.427-.031.199-.044.404-.075.606-.334 2.273-.533 4.59-.468 6.998.099 3.61.435 7.138.899 10.632.154 1.155.383 2.29.571 3.436.383 2.304.8 4.605 1.316 6.871.12.524.178 1.064.305 1.583.027-.007.058-.013.085-.021 1.176 4.865 2.561 9.675 4.239 14.451 6.212 11 15.583 19.809 27.97 25.06 2.311 1.148 4.684 2.187 7.173 3.01.636.219 1.203.151 1.703-.041 3.371.882 6.865 1.614 10.588 2.024 20.629 2.229 33.562-3.262 49.44-16.376 2.888-2.379 5.89-4.883 8.831-9.313-6.629-.403-13.258-.876-19.884-1.385-1.719-.133-2.758-1.258-3.148-2.567-1.077-.328-1.477-1.015-1.145-2.355-1.108-1.272-.93-2.724.414-4.116.133-.137.3.188.458.067.469-.345.988-.437 1.668-.525 4.435-.582 8.903-.828 13.381-1.091.701-.044 1.405.865 2.109.824 4.438-.226 8.889.451 13.348.451h.03c8.992 0 17.993-1.278 26.916-1.961.198.006.395-.445.592-.435.479-.037.958-.325 1.433-.369 6.454-.124 12.882-.756 18.971-3.104.277-.106.461-.342.688-.493 10.988-2.144 21.941-4.311 32.807-7.01-.513.178-1.032.482-1.545.666 1.59-.39 3.146-.824 4.728-1.233 1.022-.264 2.056-.431 3.074-.701.01-.038-.004-.055.007-.093 3.631-.981 7.285-1.887 10.885-2.981.377-.181.745-.349 1.118-.536-.331-.415-.669-.808-1.032-1.164m-167.8-38.718c-5.689 1.398-11.285 3.159-17.07 4.157-2.059.353-5.279-.813-5.521-2.96-.017-.141-1.31-.243-1.31-.39v-2.721c-.103-.298-.236-.575-.263-.927-.328-4.106.588-8.455-.407-12.495-.431-1.751-.882-3.519-1.258-5.299-.616-9.159-.705-18.4-.51-27.556 2.42 3.48 5.884 6.609 8.192 9.765.027.037.051.075.075.109.233.417.493.824.722 1.241.065.015.12.045.182.065.629.889 1.244 1.781 1.853 2.68.431.808.786 1.673 1.278 2.438 3.904 4.175 4.551 10.325 8.93 14.06 1.025.876 1.237 1.915 1.025 2.882.499.807 1.039 1.589 1.422 2.464.705 1.191 1.334 2.432 2.106 3.666.215.342.291.755.352 1.169.574.619 1.094 1.279 1.73 1.849 1.935 1.736.93 5.199-1.532 5.804m17.566-11.05c-1.063-1.228-1.833-2.755-1.839-4.776-.041-11.412 17.426-11.221 19.34-.684 1.142 6.277-3.713 13.03-10.584 12.428-4.992-.441-6.8-3.409-6.917-6.968"/><path d="m64.751 128.83c-.154-.062-.315-.116-.469-.179-3.996-1.261-7.917-2.69-11.733-4.314-3.405-1.45-6.755-2.999-9.962-4.759 1.341 2.27 2.742 4.506 4.168 6.725 7.197 8.988 13.654 18.858 19.463 28.906.171.636.188 1.255.106 1.856-7.125.13-14.192.348-21.258-.804-7.822.065-15.645 0-23.33-1.025-.903-.109-1.806-.205-2.701-.355-.024.024-.051.038-.075.062-.902.964-1.2 2.198-1.019 3.388 1.979 2.575 4.246 4.869 6.646 7.03.133.093.284.157.42.247 7.156 6.369 15.812 11.227 24.735 15.617 1.401.537 2.738 1.046 3.965 1.524.465.182.813.391 1.081.622-.085.014-.161-.02-.246.004-.793.231-1.498.631-2.167 1.09.178 1.208-.246 2.475-1.645 3.251-.909.506-1.788 1.046-2.68 1.581-1.142 1.667-2.246 3.336-3.426 4.704-2.28 1.392-4.291 2.557-5.22 3.22-4.623 3.296-9.437 6.667-13.614 10.582-.28-.01-.567-.014-.837-.069-1.084.773-2.161 1.566-3.245 2.353.13.038.264.085.396.124.5-.034.947-.106 1.426-.15-.092.164-.161.328-.256.492.256.072.513.12.772.191 1.75-.082 3.471-.294 5.214-.407.007.044-.01.092-.003.137 3.528-.236 7.02-.625 10.523-.961 2.267-.212 4.543-.382 6.804-.622.53-.054 1.066-.085 1.593-.144.017-.01.034-.024.051-.033 5.03-.544 10.05-1.104 15.07-1.652.253-.085.496-.178.749-.263 10.129-3.467 21.22-6.154 32.17-7.956-.752-1.251-1.319-2.509-1.925-3.768-7.327-15.1-4.721-30.533 1.272-45.802.906-2.694 2.02-5.23 3.244-7.695.431-.948.903-1.884 1.357-2.827h.003c.53-1.132 1.077-2.257 1.624-3.385-12.344-.713-25.01-2.816-37.04-6.532"/><path d="m228.4 159.37v-.763"/><path d="m464.64 353.6c-3.073-1.285-6.104-2.694-9.08-4.178-1.036-.52-2.045-1.087-3.067-1.627-1.969-1.039-3.911-2.112-5.818-3.234-1.217-.711-2.421-1.45-3.611-2.194-2.563-1.607-5.107-3.242-7.527-4.992-.697-.499-1.067-1.155-1.279-1.825-4.15-1.327-8.137-2.544-11.664-3.598 2.803-.327 5.832-.684 8.998-1.094.116-1.319.868-2.516 2.435-2.748 17.784-2.599 35.719-7.836 49.5-19.255-.007-1.34-.308-2.475-.773-3.501-1.025-.246-2.081-.396-3.118-.608-.39-1.333-1.418-2.509-3.117-2.729-5.21-.656-10.507-.636-15.754-.875-1.436-.062-2.738-.301-4.075-.485-1.295-.431-2.582-1.019-3.87-1.408-1.125-.021-2.253-.035-3.378-.056-4.444-1.217-8.749-2.734-13.59-3.972-4.714-1.203-10.09-.589-14.927-.883-6.245-.383-12.424-1.894-18.604-3.084 6.57-5.647 12.868-11.671 18.8-18.04 2.811-5.101 6.715-9.531 10.06-14.454 1.237-1.812 3.145-4.063 4.8-6.359-.045-.097-.145-.15-.198-.24-4.804 1.197-9.58 2.496-14.345 3.837-.719.204-1.44.41-2.161.614-.008 0-.008.014-.014.014-3.081.876-6.161 1.751-9.231 2.654-3.433 1.134-6.844 2.269-10.242 3.377-3.71 1.21-7.427 2.325-11.177 3.337-2.811.752-6.655 1.463-9.535 2.024-3.446 1.449-4.704 2.557-11.706 3.227v.041c0 .89-5.278 1.724-8.561 2.53-.232-.369-.055-.738-.249-1.107-16.551 3.145-33.23 4.444-50.6 2.153-1.378.034-2.684.103-4.064.109-1.022.007-1.616-.506-2.01-1.169-1.274-.588-1.74-1.771-1.593-3.01-.042-.644.034-1.272.345-1.807-1.285-2.146.588-5.921 3.939-5.36 4.396.753 8.648 1.053 12.83 1.095 16.191-3.118 32.432-5.956 48.811-7.843 1.761-.186 3.521-.39 5.282-.567-8.02-14.428-22.427-24.958-38.64-32.35-11.788-8.291-27.48-12.479-40.37-12.543-.571-.003-1.225.109-1.822.14-3.729-.595-7.367-1.07-10.82-1.395-2.172-.205-3.17 2.787-1.819 4.195-2.57 1.012-5.04 2.188-7.06 3.702-2.236.596-4.558 1.266-6.876 2.01-.287-.304-.659-.509-1.128-.315-19.337 8.093-42.23 15.97-54.599 34.13-3.577 5.251-7.03 10.352-10.267 15.438-.208.008-.41.028-.619.028-9.06 12.731-16.683 25.08-17.812 41.587-.325 4.799-.605 9.831-.493 14.83.065-.144.13-.308.195-.458.038-.014.065-.041.106-.054.003.368-.031.71-.021 1.079.042 1.443.185 2.831.342 4.22-.117.014-.233.027-.346.04.411 4.753 1.347 9.388 3.135 13.723.329.042.667.138.998.192 2.926 6.563 7.234 12.335 12.585 17.265-.414.458-.844.909-1.258 1.375-2.591 2.53-5.228 5.03-7.928 7.459-3.986 3.59-7.549 7.781-11.06 12.04-.632.588-1.2 1.121-1.843 1.723-2.15 3.192-4.259 6.421-6.578 9.511-1.384 1.847-2.68 3.727-4.02 5.586-.024.09-.031.192-.051.281-1.621 2.317-3.32 4.595-4.842 6.968 1.546-.328 3.091-.644 4.636-.965 2.848-.561 5.703-1.107 8.547-1.682 7.118-3.48 14.407-6.598 21.733-9.647 3.067-2.435 5.754-4.69 7.682-6.236 5.426-4.349 10.958-8.506 16.424-12.745 20.229 8.971 44.581 11.515 62.732 8.05 18.15-3.452 36.715-11.794 52.817-23.507-7.481-2.236-14.328-5.423-21.334-10.366-1.597-1.128-1.771-2.905-1.207-4.342.042-.19.042-.383.106-.561-.793-1.709.602-4.362 3.054-3.802 6.539 1.504 13.312 2.599 20.03 3.911 1.662.328 3.324.685 4.975 1.053.615.137 1.221.287 1.833.438 2.338.547 4.677 1.121 6.961 1.826.099-.104.215-.186.324-.287 18.644 4.67 37.19 9.703 55.989 13.765 10.354 2.229 23.522 5.02 36.36 5.824 1.511-.081 3.02-.178 4.533-.368 9.101-1.129 21.778-2.612 30.599-8.01.178-.438.308-.889.321-1.325-2.999-.985-5.956-2.127-8.899-3.31-.713-.288-1.446-.534-2.159-.835m-255.38-58.695c4.259.205 9.107 2.817 10.7 6.968 1.788 4.656-1.609 8.678-5.726 11.04-.858 1.716-2.366 3.138-4.667 3.869-5.881 1.881-11.854-3.378-11.83-9.388.025-5.9 5.04-12.806 11.523-12.492m32.1 58.846c-7.08 6.153-15.726 9.647-23.774 14.249-2.824 1.887-5.661 3.747-8.571 5.498-.13.095-.252.204-.382.307-.178.281-.4.555-.567.835-.612 1.019-1.483 1.497-2.394 1.606-1.89 1.518-3.781 3.036-5.549 4.677-1.107 1.032-2.417 1.478-3.747 1.642-4.681 3.493-9.446 6.865-14.363 9.996.127-.082-7.979 5.997-10.403 6.14 5.115-5.661 10.776-10.783 15.457-16.875 3.966-5.155 8.271-9.832 12.616-14.427 1.556-2.182 3.477-4.082 5.552-5.874.582-.608 1.17-1.224 1.748-1.839 2.602-8.363 11.815-13.799 17.802-19.598 1.45-1.407 3.442-1.229 4.91 0 3.521 2.94 7.03 5.826 10.967 8.206 1.806 1.094 2.427 3.952.698 5.457m13.551-38.22c-.443-.149-.837-.383-1.261-.561-.199-.068-.383-.061-.584-.137-4.66-1.853-7.553-6.755-6.141-11.788 1.792-6.386 7.856-10.639 14.496-9.559 5.929.964 10.267 6.06 10.54 12.05.407 8.801-9.828 12.425-17.05 9.997"/><path d="m195.15 347.73v.007c.01.157.041.321.055.485-.161-.232-.342-.438-.499-.671.146.055.297.125.444.179"/><path d="m182.41 270.81c-.355-.369-.684-.779-.875-1.271-9.443.198-18.76-.801-27.977-2.626-5.101-.615-10.215-1.538-15.395-2.824-.438-.26-.984-.451-1.347-.766-.038.137-.028.28-.052.418-2.947-.767-5.911-1.621-8.919-2.674-1.764-.615-3.474-1.367-5.172-2.133-.657-.192-1.313-.377-1.97-.568-13.784-4.04-26.588-10.893-36.731-20.861-1.19-.479-2.366-.999-3.583-1.382-.574-.191-1.156-.149-1.713 0 4.807 8.971 11.463 16.712 19.559 22.729.417.177.841.396 1.251.56 8.359 3.187 16.06 9.683 24.438 12.582 2.629.901 7.521 2.714 10.851 4.772-.557.354-1.029.807-1.364 1.34 1.535 1.107 3.067 2.216 4.526 3.515.048.041.099.075.147.116.328.294.567.608.738.937.02.041.024.082.044.123.445.958.287 1.983-.236 2.858-.625 1.039-1.733 1.873-3 2.01-11.234 1.258-22.489 1.989-33.539 4.239-.482.594-.861 1.271-1.166 1.989 3.1 3.918 7.07 7 11.337 9.805-.007.021-.021.028-.028.048 1.364.883 2.769 1.731 4.178 2.571 1.809 1.095 3.627 2.188 5.45 3.268 3.501 2.093 6.944 4.254 10.06 6.735.906.705 1.819 1.403 2.657 2.175 2.031 1.881.82 4.999-1.532 5.806-12.427 4.266-24.766 10.529-37.433 13.894-7.21 1.929-14.534 3.256-21.795 4.869-.366.383-.811.643-1.152 1.066.021.021.041.021.062.041 2.656 2.256 5.569 4.062 8.649 5.565v.028c.14.067.291.108.431.178 1.33.628 2.687 1.21 4.082 1.723.058.026.116.055.178.074.006 0 .014-.006.023-.006 17.618 6.42 40 3.788 59.45 2.188v-.138c.985-.137 1.965-.252 2.954-.478 7.337.088 14.623-.698 21.597-2.395-13.379-25.26-2.134-57.49 12.316-80.1"/></g></switch></svg>