<svg xmlns="http://www.w3.org/2000/svg" viewBox="0 0 500 500" enable-background="new 0 0 500 500"><switch><g><path fill="#1d1d1d" d="m483.32 98.31c-1.213-3.419-6.638-5.608-14.358-6.964-.883-.358-1.875-.589-3.02-.602-.291-.003-.592.015-.882.012-1.775-.233-3.62-.441-5.556-.606-.1.215-.15.461-.23.684-9.01.243-17.988.98-27.02.792-6.638-.135-14.309-2.266-21.07-.928-.622-.148-1.243-.338-1.875-.434-2.396.123-4.713.25-6.908.376-.281.146-.572.298-.822.492-.401-.148-.812-.236-1.214-.371-8.482.504-14.88.955-17.206.958-33.08.027-66.12.652-99.15-1.281-.301.01-.611 0-.922.01 5.806 4.898 12.413 9.383 18.8 13.14 3.911 2.304 7.621 5.264 11.411 8.06-.101.088-.15.201-.251.286-4.812 3.931-10.357 9.523-16.264 14.351.923.792 1.926 1.487 3.02 1.925 7.329 2.928 17.526 4.678 25.317 5.485 5.234.542 10.739 1.717 16.254 2.56-.271.714-.521 1.441-.812 2.146-3.94 6.833-7.961 13.634-12.844 19.778 2.426.158 5.324.426 7.82.669 1.043 1.083-.511 1.785 4.623 1.812v.061c5.134-.682 10.979-.183 16.705.05.351.025.471.083.832.09 4.683.088 9.265.128 13.947.178.02.06.03.125.05.186-2.01 6.139-3.64 12.416-6.347 18.289-.061.145-.09.286-.15.429-4.593 9.217-9.225 18.14-15.14 26.554-.021.042-.04.085-.061.13.552-.028 1.083-.128 1.574-.411 6.898-3.976 14.659-7.02 22.12-10.31 0 3.539.121 6.901 1.193 10.648 1.144 3.98.572 7.916 2.206 11.751.211.474.502.812.782 1.153-.061.469-.12.948-.17 1.392-.121 1.053-.271 2.146-.382 3.216 2.206-1.361 4.473-2.657 6.738-3.948.141-.085.291-.156.441-.253 3.419-1.955 6.798-3.966 10.03-6.134 1 3.6 2.377 7.164 3.5 10.724.02.396.04.79.07 1.188-.141.1-.271.215-.411.315.181.271.311.572.471.848.261 4.251.642 8.47 2.748 12.263.15.276.371.434.552.674.651 3.304 1.263 6.621 1.794 9.927.051.333.15.612.241.91.12.747.24 1.499.4 2.219 1 4.633 2.137 9.229 3.299 13.817 2.828-3.369 5.887-6.573 9.476-9.546 4.372-3.62 8.684-7.25 12.854-11.03 2.396-1.492 4.703-3.161 6.959-4.906 2.216-1.105 4.172-2.432 6.06-3.835 2.115 5.402 3.88 11 6.106 16.347 1.363 4.723 2.707 9.45 4.261 14.14 1.865 5.615 3.55 11.25 5.114 16.915 5.094-11.08 10.849-21.809 17.11-32.35 2.356-.619 4.312-2.313 4.773-5.326.03-.156.05-.313.08-.469.08-.557.09-1.138.05-1.723.051.038.101.075.15.113.11-13.321 1.093-27.17-.822-40.43 3.403-35.11 4.195-70.841 3.964-106.2"/><path fill="#282828" d="m404.04 133.82c-5.715-12.626-11.581-21.751-23.343-29.442-4.211-2.75-12.373-10.423-19.03-10.285-.09-.067-.18-.158-.28-.208-2.467-1.243-3.409-1.101-6.498-1.178-5.564-.141-11.11-.093-16.685-.186-.03-1.166-.642-2.259-2.065-2.494-6.748-1.111-17.13-2.537-23.03 2.366-4.121-1.053-8.202-2.374-12.404-2.552-3.539-.15-4.23 4.444-1.674 6.204 6.598 4.542 12.604 9.726 18.69 14.77-3.52 2.812-6.348 8.367-8.784 11.438-1.434 1.8-.862 3.968 1.273 4.823.12.05.261.075.381.123.552.449 1.214.735 1.985.705.181-.007.361-.04.552-.05 4.271.74 9.06-.05 13.235-.203 6.106-.226 12.854.79 19.13 1.635-.502 2.249-1.855 4.84-3.62 7.51-1.744-.611-3.84.782-4.11 2.9-.141 1.144-.15 2.051-.091 2.858-3.03 3.855-6.116 7.425-7.7 9.799-1.444 2.156.922 4.918 3.269 4.254.02-.005.03-.007.05-.013 4.532 3.111 10.85 1.296 16.184 1.301 7.04.01 15.441.9 22.681-.336-.331.582-.661 1.17-1 1.732-6.678 11.08-9.695 25.556-14.829 37.501-1.233 2.885 1.344 5.996 4.401 4.397 3.75-1.958 6.598-5.071 9.536-8.06.221.318.4.667.611.99.461 3.199 2.186 6.542 4.692 6.884 1.645 1.045 3.931.255 4.844-1.444.029-.008.05-.018.08-.025.491.098 1.013.166 1.714.101 5.655-.519 10.909-4.58 16.415-2.384 1.514.602 3.058-.426 3.9-1.59 11.349-15.803 9.164-44.964 1.523-61.844"/><g><g><path fill="#6edfff" d="m298.24 190.67c-10.488 2.409-18.61.166-28.868-.82-2.547-.243-5.104-.052-7.57.514-.08-.095-.16-.213-.24-.276 2.677-1.92 1.143-6.267-1.985-6.553-3.812-.346-7.182-.005-10.551.727.045-.258.065-.516.07-.779 3.389-2.219 6.703-4.59 10.34-6.5.2-.103.401-.176.602-.273 1.394-.463 2.768-1.015 4.111-1.637 5.454-1.745 11.271-2.394 16.313-5.267.973-.549 1.434-1.708 1.364-2.81 3.229-.98 1.674-6.154-1.896-5.535-6.929 1.198-13.687-.323-20.615-.1-.512.018-.973.21-1.384.469-.722-.572-1.704-.827-2.91-.451-2.808.97-5.625 1.75-8.458 2.412-.065-1.028-.576-2.051-1.494-2.625-.521-.326 4.773-8.938 9.887-16.278 4.108-3.174 8.661-6.989 11.05-11.699.883-1.752-.17-4.339-2.406-4.193-6.858.448-11.388 7.585-15.11 13.937-.09-2.396-2.452-4.419-5.199-2.978-1.404.737-2.572 1.564-3.635 2.432-.392-2.507-4.196-3.868-6.157-1.888-3.184 3.214-8.779 7.826-10.964 12.765-1.163 1.16-2.316 2.318-3.479 3.474-.02.018-.045.022-.07.04-1.022.81-1.88 1.707-2.857 2.537-.592-.005-1.213.108-1.845.517-.476.303-.892.697-1.354 1.015-.206-.474-.481-.905-.712-1.364 1.469-.338 2.702-1.982 2.391-3.652-.631-3.417-1.985-4.816-4.587-7.265-.19-.181-1.689-1.414-3.635-2.958-2.02-2.401-4.111-4.75-6.473-6.934-6.01-5.55-15.782-8.957-23.23-12.11-8.09-3.421-24.827-11.799-31.8-2.747-.371.479-.441.993-.336 1.471-2.742.186-5.309.506-7.4 1.103-13.416 3.813-6.397 11.915 1.073 17.11-5.059 1.241-6.643 4.422-5.801 7.585-.426-.208-.873-.394-1.304-.594-.035-1.321-.085-2.632-.221-3.835-.336-3.053-5.01-5.392-6.598-1.788-.326.74-.717 1.437-1.058 2.174-.396-.163-.787-.324-1.183-.484-.015-.01-.03-.01-.045-.02-.07-.03-.146-.058-.215-.088.005.01.005.018.01.027-.295-.138-.602-.235-.922-.268-.015-.774-.005-1.552-.11-2.316-.381-2.675-4.772-2.555-5.264 0-.301 1.574-.441 3.141-.531 4.71-1.88 3.176-3.69 7.663-5.605 5.211-3.134-4.02-9.666-3.845-14.333-4.171-.251-.018-.461.048-.677.098-4.166-.775-8.393-1.233-12.619-1.715.181-1.374-1.048-2.8-2.532-2.925-4.267-.363-8.789-.887-13.296-1.264-4.703-1.88-9.551-3.186-14.11-5.663-2.371-1.293-5.54-3.213-8.322-2.298-2.03.667-2.341 3.233-.577 4.404 2.356 1.566 4.171 4.056 6.362 5.896-.336 1.464.135 3.03 1.85 3.848.191.09.376.168.567.258-.236.087-.426.228-.626.361-.386-.07-.787-.146-1.188-.221 3.82 4.853 6.763 10.701 8.212 15.349.356 1.148.19 2.251-.18 3.276-2.933-.326-6.402.278-8.673.283-6.442.013-14.484-3.417-20.771-1.15-1.364.494-1.85 1.714-1.745 2.855-4.683-1.68-9.145-3.885-12.98-6.495-.476.366-.973.682-1.404 1.138-1.459 1.557-1.464 3.871 0 5.427 6.593 7.01 15.176 10.17 24.496 11.709-.121 1.497.637 3.02 2.597 3.635.526.166 1.083.241 1.614.391 4.663-1.983 9.912 2.848 8.097 6.871-.667-.479-1.484-.754-2.341-.501-4.612 1.351-6.804 7.209-9.821 10.563-3.57 3.973-8 7.204-11.792 10.909-1.479.794-2.988 1.501-4.562 1.99-.882.273-1.714.288-2.481.125-1.138.807-2.261 1.642-3.399 2.459 2.823-.15 5.239-.499 7.61-1.143-.617 1.745.431 3.622 2.527 3.788 2.632.208 5.424-.822 7.791-1.905.962-.441 1.955-.81 2.958-1.151.727.702 1.805 1 2.978.331 1.58-.975 3.063-2.071 4.562-3.148.411-.206.837-.371 1.233-.612.341-.208.576-.461.752-.732.606-.401 1.223-.772 1.855-1.118 6.487-.21 13.09-2.09 19.518-4.815.291-.025.546-.047.827-.073 8.272 1.865 17.321-2.093 26.02-5.086 3.845-1.083 7.666-2.123 11.375-2.77.045-.007.075-.035.115-.045.737-.17 1.459-.316 2.196-.477.401.454.827.877 1.249 1.306-.025.123-.105.203-.121.336-.306 3.053 1.058 6.613 2.938 9.969.582 1.198 1.349 2.386 2.221 3.552 1.304 1.917 2.632 3.68 3.74 5.076.11.138.25.22.376.323-.326.822-.236 1.785.602 2.547 12.433 11.355 27.664 19.479 45.23 15.12 7.886-1.958 20.565-1.58 26.722-7.49 7.937-7.613 16.424-13.08 23.468-21.458.341-.406.521-.847.632-1.293 1.775-.339 3.379-1.038 4.743-2.211 4.748.737 9.576.461 14.369.098 9.104-.692 19.393.819 28.659.825 15.09.005 24.787-4.806 38.09-10.04 3.836-1.512 2.442-7.247-1.739-6.29m-265.95-17.933c3.855-.411 8.302.83 12.263 1.526-4.01.064-8.162-.503-12.263-1.526"/><path fill="#fff0c9" d="m149.22 149.3c-.236-.938-.572-1.649-.998-2.229-.07-.163-.15-.326-.226-.489.16-.709.326-1.406.326-2.336 0-4.775-4.226-9.112-7.099-12.816-3.825-8.483-8.07-16.688-14.624-23.664-1.77-1.887-5.089-1.08-6.102 1.085-.697.309-1.329.747-1.669 1.457-2.306 4.791.827 9.864 2.271 14.557.907 2.945 1.694 6.01 2.427 9.08.13.887.315 1.772.626 2.642.727 3.356 1.369 6.735 1.81 10.06.186 1.378.862 2.253 1.714 2.755-.481 2.193.827 4.773 3.509 4.605 2.467-.158 4.271-.782 5.63-1.707 1.79-.304 3.665-.451 5.405-.767.095.195.185.401.275.594 1.877 3.87 7.693 1.09 6.725-2.833"/><path d="m112.97 166.2c-.837.178-1.384.396-2.065.928-.501.396.24 1.188.722.722.517-.293 1.043-.592 1.559-.885.486-.161.29-.87-.216-.765"/><path d="m313.9 191.53c-3.681-5.35-10.679-4.775-16.665-5.184-12.694-.86-28.12.775-41.17-2.025 5.294-2.273 12.08-4.03 16.05-5.843 7.359-3.372 15.621-7.367 20.585-14.02.562-.754.571-2.244 0-2.998-8.844-11.707-28.517-4.597-42.21-3.279 7.257-10.1 19.13-18.813 20.964-31.33.291-1.985-1.825-4.695-3.961-3.051-9.676 7.435-19.395 14.266-29.902 20.51-5.49 3.262-11.291 5.573-17.257 7.458-11.611-19.317-33.31-32.34-57.28-32.02.07-.517.146-1.03.221-1.547.14-.948-.221-2.246-1.369-2.414-5.856-.847-12.208.517-18.54 3.274-.461-.657-.927-1.319-1.389-1.948-.005-.008-.135-.015-.296-.02-2.486-3.728-5.079-7.397-7.766-11.01-3.01-4.996-6.438-9.601-11.586-12.95-.061-.035.02-.025-.041-.053-.02-.256 0-.501-.015-.757-.17-2.564-3.925-2.612-3.99 0-.015.637.035 1.266.035 1.903-.206.276-.411.542-.542.853-3.048 7.35-.04 19.05.326 26.852.241 5 .416 9.999.697 14.995-4.066 4.271-7.726 8.881-10.719 13.557-.1-.108-.105-.241-.256-.329-10-5.838-21.578-4.188-32.763-6.337-14.394-2.768-24.977-12.426-38.578-16.547-2.602-.79-4.156 2.474-2.512 4.316 9.581 10.779 17.963 23.363 25.22 36.14-8.573.14-17.05.659-25.544-1.477-4.737-1.193-10.383-3.364-15.386-1.988-5.05 1.386-6.994 5.339-4.352 9.593 5.771 9.32 22.26 14.938 32.07 18.758 6.969 2.717-10.528 11.644-13.857 14.02-5.259 3.75-10.834 7.553-15.281 12.261-1.865 1.975-.392 4.645 2.04 4.928 13.401 1.564 24.581-3.637 37.1-7.917 13.551-4.635 28.928-8.07 43.21-9.423 3.89-.366 3.92-6.495 0-6.111-10.543 1.025-21.252 3.555-31.595 5.811-14.01 3.059-27.23 10.877-41.491 11.917 9.08-8.187 20.03-15.01 29.74-22.05 1.264-.923 1.945-2.961.537-4.156-8.939-7.593-22.5-9.317-32.518-16.284.983-5.71 3.771-7.084 8.337-4.111 1.956.717 3.961 1.204 6 1.449 8.462.772 16.87-.107 25.363-.19 1.945-.018 3.139-2.136 2.191-3.825-6.507-11.591-13.862-22.676-21.904-33.13 8.06 3.748 15.843 8.405 24.25 11.416 12.318 4.419 26.04.516 38.15 5.632.12.05.22-.01.341.016-3.771 6.384-6.292 12.784-6.898 18.462-3.249 30.15 9.245 57.03 35.15 68.02 2.231 1.111 4.532 2.113 6.943 2.913.617.206 1.163.138 1.649-.045 3.264.857 6.648 1.567 10.253 1.958 19.979 2.166 32.502-1.472 47.878-14.173 6.171-5.093 12.935-13.922 18.239-19.06h.136c12.157 0 24.4-.892 36.53-1.519 19.513-1 38.704-4.66 56.27-13.466 1.488-.75 2.099-3.038 1.156-4.417m-16.274 4.119c-5.615 1.998-11.11 3.918-16.875 5.457-17.406 4.635-36.876 3.284-54.76 4.116-.872.038-1.75.053-2.622.088.566-.998 1.033-2.02 1.529-3.038-.451.005-.897-.018-1.349-.018-2.376.632-4.948.98-6.964.83-.451.847-.887 1.694-1.409 2.509-4.196.121-8.382.249-12.579.429-5.324.229-9.17-2.249-14.203-.529-2 .687-2.843 3.179-1.259 4.771.196.206.401.406.602.609 1.414 1.424 3.239.845 4.211-.376 5.455-1.196 13.12-.534 19.833-.015-3.384 4.495-7.094 8.533-10.523 11.684-13.336 12.258-24.892 16.224-43.06 16.336-5.595.035-10.684-.694-15.381-1.948-16.629-9.934-28.28-20.565-33.32-40.11-1.905-7.373-2.688-17.434-2.663-25.08.035-10.135 7.129-19.435 13.186-26.987.07-.088.09-.181.146-.271.386 1.602.757 3.186 1.043 4.527-.085.484-.146.96-.17 1.394-.116 2.199.722 5.357 3.213 5.41.827 2.401 4.698 1.933 5.063-.97.015-.127.035-.22.05-.338.256-.386.416-.834.361-1.371-.015-.148-.065-.286-.085-.431.391-1.572.998-3.096.998-4.703 0-.933-.451-1.612-1.038-2.146.195-5.442-1.018-11.165-1.76-16.407-1.278-9.03-3.194-17.943-4.417-26.96 4.201 4.104 7.144 9.388 10 14.607.25.058.416.175.667.25.872 2.251 2.01 4.282 3.379 6.171 1.424 2.286 2.868 4.552 4.01 7.03 1.013 2.206 2.893 3.963 4.677 5.532.341.301.642.645.973.96 3.01 3.652 6.146 7.192 9.626 10.403 2.166 1.995 5.099-1 3.204-3.206-.466-.542-.897-1.103-1.333-1.662-.07-.183-.116-.366-.246-.544-.226-.303-.426-.617-.647-.922.201-.792.035-1.652-.817-2.364-.797-.664-1.58-1.441-2.372-2.164-1.173-1.682-2.386-3.346-3.524-5.04-.055-.103-.11-.206-.161-.313l.055-.022c-.065-.088-.135-.17-.201-.258-.546-1.056-1.258-2.01-2.02-2.931-.767-1.163-1.54-2.324-2.306-3.487 1.368-.667 2.737-1.338 4.116-1.897 1.755-.75 3.56-1.309 5.4-1.737-1.8 1.246-1.489 4.472 1.253 4.497 23.343.206 44.986 10.676 56.677 28.669-2.035.534-4.081 1.056-6.146 1.529-9.631 2.208-23.558 1.018-30.477 8.5 1.659-1.797-.877-4.344-2.677-2.68-.211.19-.416.384-.627.577-1.153 1.063-.341 3.502 1.364 3.296 13.431-1.627 28.04-2.554 41.466-6.184.07.135.115.283.181.421.306-.088.566-.216.897-.276.767-.153.822-.035.186.351 1.594-1.359 3.484-1.828 5.349-1.777-.1-.223-.17-.459-.276-.674 2.051-.727 4.071-1.519 6.04-2.421 12.298-5.643 23.393-12.86 34.17-20.741-5.184 9.458-15.429 17-20.397 26.14-1.063 1.95.291 4.079 2.421 4.219 4.733.313 9.265-1.417 14.05-1.895 3.01-.444 6.03-.589 9.06-.434-.683-.003 20.324.411 10.407 6.598-9.967 6.224-23.991 7.502-32.66 14.905-1.94 1.655-.596 4.372 1.359 5.142 9.513 3.76 21.676 2.968 31.682 3.497 7.21.384 14.52.514 21.719 1.299-.981.729-2.055 1.554-3.288 2.584"/><path d="m216.96 169.23v.737-.737"/><path d="m178.75 138.94c-.441-.474-.827-1-1.138-1.582-.005-.033-.015-.043-.025-.07.882-1.968-.261-4.806-2.923-4.818-3.304-.015-6.999 1.128-6.984 5.128.015 3.439 1.745 5.134 5.174 5.194.216.002.437-.065.662-.11.226.286.461.584.682.822 2.842 3.069 7.279-1.461 4.552-4.564"/><path fill="#6edfff" d="m60.38 147.06c-3.509-.158-5.244-4.384-9.07-3.868-1.454.198-1.815 2.321-.847 3.219 1.569 1.461 3.996 2.241 5.996 2.998 1.669.634 3.424.79 4.617-.672.537-.659.211-1.637-.697-1.677"/></g><g><path fill="#ed7eff" d="m453.56 310.02c-2.136-1.118-3.299-2.902-3.76-4.863-1.395.181-2.788.381-4.142.582-5.605.827-11.22 1.805-16.846 2.838-4.683-.291-9.354-.662-14.05-1.113-.18-.051-.311-.146-.511-.171-.923-.125-1.795-.06-2.707-.12-4.854-.512-9.696-1.153-14.52-1.88-3.55.632-6.948 1.183-10.117 1.519-1.945.201-3.71-.381-5.184-1.413-1.203 1.744-1.334 4.166.341 5.575-2.958.701-7.04 1.97-11.602 3.299-3.219-.352-6.396-.712-9.436-1.063-.05-.01-.08.021-.14.011 6.558-3.089 13.597-5.455 20.465-8.133-3.048-2.401-4.622-6.808-3.68-10.522-5.274 2.061-10.719 4-16.03 5.239.21-.472.371-.933.541-1.395 5.886-2.361 10.899-5.524 12.925-8.367.662-.928.832-1.87.712-2.763 5.876-3.179 11.752-6.347 17.567-9.626 2.437-1.363 2.688-3.75 1.785-5.665 1.945-3.259-1.424-8.332-5.395-6.898-12.424 4.492-24.586 9.997-36.639 15.732-3.229-.822-6.979-.592-10.408.406-.381-.647-.792-1.294-1.264-1.921 2.176-.24 4.191-1.062 5.896-2.777 4.241-4.23 4.091-8.738 1.333-13.1.993-2.146.441-5.03-2.536-5.926-1.454-.347-2.898-.812-4.332-1.219-3.289-2.587-7.18-5.03-11.311-7.204-8.271-19.07-34.04-28.609-53.29-28.705-10.809-.055-27.29 6.094-26.388 16.755-3.334.782-6.247 1.837-8.668 3.081-5.294.948-10.503 2.299-14.374 4.359-3.01.968-5.159 2.334-6.547 4.02-6.327 3.304-12.153 9.117-17.427 15.423-.226.161-.471.331-.712.492-2.196 1.504-4.287 3.098-6.327 4.707.21 3.193-1.8 6.538-6.146 6.934-3.169.291-7.746.747-10.724-.381-.261-.101-.476-.24-.707-.371-5.4 5.305-15.326 4.352-22.536 3.409-9.36-1.224-18.239-3.358-27.18-6.427-1.208-.411-2.211-1.018-3.03-1.73-.486 1.76.06 3.756 2.101 5.04.637.406 1.374.637 2.036.998-.361 2.206.702 4.732 3.128 5.309 2.808.667 5.615 1.144 8.438 1.63-2.877-.101-5.7-.181-8.402-.271-3.234-.206-5.721-.376-6.849-.376-6.106.005-5.901 8.838 0 9.35 6.04.512 11.987 1.474 18.02 1.995 2.161.181 20.986-.611 13.893 1.645-5.44 1.725-11.381 2.718-17.387 3.409-1.123.12-2.216.261-3.334.401-6.523.616-13.08.902-19.19 1.224-2.392.125-3.78 1.563-4.271 3.288-3.7.963-7.18 2.076-10.06 3.409-3.455 1.6-2.592 6.644.361 8.117.396.737.942 1.339 1.629 1.79.431 1.293 1.364 2.351 3.083 2.592 3.449.481 8.668 1.368 14.534 2.11-1.228 1.534-2.532 3.314-3.705 5.194-2.046.541-4.061 1.188-5.956 2.105-3.835 1.845-2.527 7.229.877 8.498-6.562 1.128-13.06 2.878-19.768 5.03-.606.195-1.143.506-1.599.883-1.163.461-2.336.978-3.515 1.614-3.399 1.824-2.637 6.116 0 8.111 2.763 2.065 9.355 2.897 16.896 2.622 3.209.326 6.763.105 10.408-.315 1.243-1.524 3.068-2.657 5.083-2.868 7.986-.822 15.171-2.15 22.01-3.198.907-.497 1.785-1.078 2.572-1.815-.105.481-.16 1-.271 1.484 4.703-.677 9.26-1.173 13.817-1.233.266-.843.521-1.704.797-2.537.667-.06 1.354-.165 2.036-.24-.396.933-.797 1.895-1.158 2.798 8.844.104 17.803 1.944 27.97 7.479 5.55 3.02 11.361 5.705 17.317 8.06.246-.28.521-.531.757-.822.511.602 1.063 1.133 1.589 1.695 15.14 5.71 31.25 9.124 47.27 9.525 1.022-.982 2.105-2.061 3.229-3.274 2.046-.907 3.9-2.662 5.625-4.933 1.334 1.89 3.148 3.584 5.665 4.943 2.066 1.117 4.231 1.749 6.438 2.025 5.746-.878 11.411-2.191 16.926-4 11.431-6.04 22.2-17.297 28.27-24.701 2.438-2.467 4.683-5.03 6.658-7.706.16-.146.311-.291.461-.436-7.329 12.202-18.94 23.21-31.06 31.21 9.655-3.664 18.85-8.793 27.22-15.767.662-.547 1.363-.983 2.075-1.354 1.976-2.512 3.891-5.088 5.646-7.755-.952 2.356-2.206 4.647-3.51 6.908 2.497-.722 5.134-.602 7.521.195 2.387-4.437 4.342-8.938 5.605-13.431.11.01.21.024.32.04-.682 1.454-.592 3.158 1.093 4.542 2.01 1.654 4.372 2.828 6.869 3.8-.381 1.825.18 3.871 2.045 4.934 1.454.837 2.938 1.574 4.442 2.246.36.712.872 1.354 1.544 1.774 15.472 9.571 48.25 13.496 68.51 7.391 3.801.44 7.53 1.178 11.17 2.587 1.545.978 3.249 1.84 5.455 2.501 5.02 1.51 8.06-5.84 3.529-8.397-.421-.245-.842-.391-1.264-.611-2.355-1.915-4.723-3.83-7.089-5.745-1.152-1.715-2.867-2.217-4.491-1.996-.091-.02-.161-.075-.251-.095-1.374-.266-2.788-.481-4.201-.667.37-.275.731-.576 1.103-.862-3.158-.136-6.327-.507-9.586-1.144-1.824-.36-3.67-.787-5.524-1.203-7.892 2.176-17.698 1.825-27.574.562.04 0 .101-.01.15-.02 8.232-.481 17.356-1.469 25.589-.942-2.647-.562-5.305-1.023-7.951-1.123-3.851-.15-6.969.05-10.639-1.254-5.225-1.865-7.591-9.941-1.675-12.824 10.769-5.249 23.23.481 35.35 3.51.121-.521.221-1.053.261-1.635.11-1.915-1.464-3.94-3.318-4.352-1.614-.361-3.279-.552-4.924-.832.081-.467.101-.897.03-1.374 10.06-.722 19.854-2.236 28.867-5.199.422-.14.812-.355 1.174-.616 2.467-.321 4.903-.732 7.26-1.243-2.365-2.678-4.741-5.365-7.108-8.04m-285.32 25.729c-.953.13-1.905.23-2.863.331.707-1.815 1.539-3.605 2.306-5.395 1.609-.712 3.053-1.604 4.372-2.638-1.348 2.603-2.642 5.175-3.815 7.702m9.225-17.217c-.331-1.253-1.093-2.437-2.146-2.918-.02-.01-.03-.01-.035-.015.005-.02.015-.045.035-.065 3.56-5.976 7.47-11.731 11.576-17.347 1.288 1.078 2.562 2.166 3.79 3.27-4.938 4.943-9.36 10.829-13.22 17.07m16.11-23.17c-.08.24-.13.521-.2.772-.953-.903-1.9-1.815-2.898-2.723 1.223-1.609 2.437-3.219 3.695-4.809 1.058-.06 2.111-.16 3.148-.306-1.704 2.379-3.038 4.83-3.745 7.07m20.22-18.309c-2.031.201-4.03.913-5.961 1.896-.25-.291-.441-.632-.812-.832-1.033-.582-2.091-.973-3.139-1.47 2.036-2.557 4.382-5.59 6.954-8.628 3.038-2.085 6.242-2.888 9.234-2.827-1.824 3.96-3.98 7.92-6.276 11.861m10.613 3.228c-1.043-.701-2.171-1.303-3.369-1.845 1.389-2.386 2.582-4.812 3.83-7.22 1.043 1.755 2.121 3.51 3.254 5.215-1.233 1.279-2.521 2.497-3.715 3.85m29.464-8.146c-1.899.888-3.755 1.83-5.544 2.843.827-2.096 1.559-4.217 2.03-6.397.1-.512.04-.998-.06-1.474.922.06 1.755.12 2.376.146.566.029 1.169.024 1.755.045.025 1.343-.17 2.987-.557 4.837m25.481 38.28c-.491-1.453-1.093-2.853-1.835-4.171 2.777-3.208 5.926-6.03 9.425-8.242-2.256 4.272-4.963 8.348-7.59 12.413m21.638-71.15c-.872.078-1.645.379-2.296.812-7.892-2.978-15.833-5.57-23.975-7.01-2.878-.504-6.307.496-8.944 2.293-.451.005-.882.02-1.333.033-.531-1.163-1.063-2.326-1.604-3.487 3.459-1.497 7.05-2.336 10.819-2.517 12.584-1.339 31.05 3.249 41.832 13.13-6.377-2.248-11.851-3.494-14.499-3.261m45.13 87.88c.03-.306.02-.611.05-.918 6.097 1.334 13.235-.682 19.12-2.035.572 1.033 1.584 1.75 3.01 1.92-7.5.506-14.93.922-22.18 1.033"/><path d="m201.35 309.27c-.13-.11-.306-.2-.446-.301-.085-2.096-1.028-3.148-3.349-3.499-.216-.03-.331.11-.532.12-.737-.441-1.674-.667-2.437-.432-.09.03-.135.101-.235.136-1.133-.456-2.281-.797-3.409-.797-3.329 0-5.02 3.96-3.655 6.647.401.808 1 1.514 1.669 2.156-1.108.887-1.229 2.566-.566 3.84.085.186.21.341.351.496.115.141.231.266.366.387.025.02.045.029.07.05.446.361.987.602 1.645.611.145 1.945 1.223 3.484 4.126 3.851 2.035.261 3.01-2.01 2.757-3.625-.081-.506-.286-.962-.461-1.429.286-.406.361-.907.421-1.403 1.659-.331 3.168-1.144 4.221-2.697.783-1.163.572-3.199-.536-4.111"/><path d="m252.51 311.67c-.115-.968-.266-1.89-.502-2.833-.055-.21-.185-.37-.275-.561.131-.552.251-1.123.371-1.75.291-1.59-.411-3.665-2.271-3.976-.953-.171-1.89-.261-2.853-.271-1.429-.011-2.417.812-2.958 1.935-.03-.01-.06-.03-.09-.035-2.101-.517-4.823 1.063-4.577 3.489.015.286.175.486.215.758-3.449 2.777-5.675 7.54-2.286 10.778 3.515 3.369 7.912 1.82 10.689-1.333 1.333-.902 2.486-2.051 3.078-3.46.923-.62 1.614-1.533 1.459-2.741"/><path fill="#fff0c9" d="m225.68 344.97c-4.828-3.87-10.583-6.388-16.72-7.104-1.183-.14-2.081.221-2.682.832-5.199 1.991-8.252 11.166-8.954 15.988-.135.913.065 1.755.416 2.517-1.97 1.755-3.835 3.59-5.625 5.495-.697.19-1.394.602-1.97 1.354-.386.502-.822.953-1.233 1.434-5.991 4.071-12.443 9.526-14.805 15.808-2.737 2.422-5.424 4.929-7.791 7.786-2.542 3.073.702 8.223 4.502 5.831 2.271-1.435 4.467-3.094 6.728-4.607 2.407-1.214 4.558-2.768 6.573-4.513 6.893-4.933 13.667-10.06 20.04-15.406 7.144-6 20.06-11.872 22.51-21.684.3-1.22.06-2.89-.988-3.731"/><path d="m206.15 338.04c-8.03 14.1-19.12 25.744-31.09 36.513-10.684 9.626-18.384 23.378-29.88 32.17-3.048 2.331-1.384 7.229 2.672 6.342 4.637-1.018 7.555-5.831 10.443-9.25 5.39-6.356 11.731-11.762 16.835-18.399 11.902-15.481 26.987-26.516 36.638-44.09 2.02-3.681-3.548-6.929-5.614-3.285"/><path fill="#ed7eff" d="m168.77 346.27c-9.5-.497-17.752 2.346-26.16 4.622-3.74.02-7.495-.065-11.245-.07-17.918-.03-10.739.16-3.991-8.663 6.092-7.962 18.55-19.282 7.154-27.814-.802-.607-2.381-.603-3.178 0-.958.711-1.655 1.368-2.201 2.01-1.584-1.574-3.269-3.048-5.234-4.522-4.101-3.098-10.909-3.579-15.306-6.838 3.56-.211 7.365.171 10.548.16 2.111-.01 4.03-.16 5.876-.371 4.908.502 9.841-2.346 14.634-3.81.667-.201 1.138-2.777 1.494-2.777.01 0 .015 0 .021 0 1.183 0 2.286.23 3.389-.472.441 1.645 1.87 3.921 3.765 3.273 1.69-.571 3.108-.867 4.462-1.699.922.622 2.19 1 3.374.451 1.85-.682 3.705-1.253 5.555-1.936 3.88-1.082 2.226-7.07-1.659-5.976-.853.24-1.529.472-2.141.672-.852-1.394-2.587-2.236-4.111-1.088-1.043.877-2.141 1.664-3.279 2.381-.005-2.275-2.828-3.198-4.583-2.351-1.288.616-2.457 1.338-3.609 2.075-.762-1.469-2.647-2.02-4.262-1.278-1.013.461-2.316 1.544-3.66 2.607 1.053-2.442-1.469-6.268-4.216-4.182-.431.32-.767.682-1.168 1.013-3.459 2.216-6.668 3.72-8.799 7.094-.361.005-.717.056-1.083.051-5.69-.025-11.992-1.163-17.402.827-2.116.777-2.817 2.737-1.93 4.752 1.64 3.761 4.282 5.265 7.796 7.23 8.317 4.632 15.492 6.768 21.899 14.639.401.507.902.752 1.414.883-2.667 5.01-7.415 9.866-11.1 14.09-3.635 4.166-7.992 6.05-6.889 11.816-4.798-.351-9.561-.853-14.309-1.414.507-1.434-.245-3.259-2.316-3.389-1.755-.11-3.404-.075-5.104-.11 1.058-1.103.627-3.414-1.193-3.179-5.209.682-4.773.577-9.887 1.886-.637.16-.917.571-1.053 1.037-1.01.275-1.996.597-3.03.817-1.424.296-1.794 1.78-1.374 2.918-2.692.431-2.597 4.702.376 4.742 3.078.04 6.202-.315 9.285-.917 10.693 1.589 22.535 5.82 33.19 4.326 7.06-.992 13.557-.471 20.25-2 11.275.146 22.611-1.414 32.497-5.966 2.893-1.333 1.208-5.424-1.504-5.558"/><path fill="#ed7eff" d="m283.18 298.7c-.772 1.113-1.394 2.211-1.966 3.314-.23-.718-.431-1.841-.621-3.074 1.725-4.11 2.637-11.07-1.233-14.01-4.833-3.675-12.784-.521-15.612-7.906-1.373-3.585-2.387-6.438-4.572-9.4 1.705-3.108 3.078-6.292 3.299-9.736.171-2.958-3.439-3.82-5.354-2.206-4.224 3.56-8.971 10.885-14.14 15.12 1.79-4.964 5.66-8.965 6.091-14.489.226-2.897-3.464-3.87-5.324-2.206-2.447 2.196-7.03 8.829-11.521 13.576 1.639-2.566 3.269-5.158 4.111-8.182.853-3.059-2.948-5.113-5.179-3.02-1.038.982-2.166 2.346-3.334 3.84.065-2.321-3.334-4.241-5.304-2.236-1.439 1.464-2.978 3.771-4.578 6.317-.691.987-1.358 1.995-2.025 3.01.396-.822.812-1.645 1.168-2.467 1.268-2.987-2.196-6.396-4.793-3.699-.913.942-1.76 1.995-2.587 3.098-1.048-.802-2.527-.982-3.535.23-5.495 6.648-11.165 14.389-14.253 22.461-.221.571-.201 1.107-.05 1.594-.612.121-1.193.451-1.594 1.093-1.384 2.217-2.512 4.623-3.63 7.05-.893-.221-1.915.005-2.487.942-1.885 3.088-3.77 6.257-4.647 9.726-2.076 3.51-4.467 7.06-4.768 11.09-.13 1.685 2.156 2.497 3.249 1.354 2.121-2.206 3.78-4.938 5.254-7.82.883-1.023 1.625-2.126 2.347-3.234.852 1.269 2.647 1.82 3.891.486 5.409-5.806 10.548-14.749 14.624-23.783.687.531 1.539.832 2.492.506 1.439-.506 2.788-1.438 4.101-2.526.592.341 1.333.477 2.206.195 3.549-1.133 6.457-3.459 9.09-6.252.516.993 1.458 1.745 2.692 1.705 4.176-.121 7.941-2.993 11.401-6.623-.336 1.323-.566 2.707-.457 4.251.136 2.076 1.966 3.71 4.096 3.118 3.058-.852 5.735-2.757 8.237-5.073-.812 1.444-1.539 2.868-2.01 4.241-.928 2.728 2.437 5.145 4.792 3.68 3.37-2.095 4.101-5.158 5.372-7.971 2.096 4.502 2.026 8.653 7.351 11.771 3.208 1.88 9.856 1.675 11.621 4.772-1.022.521-1.785 1.47-1.705 2.793.091 1.634.181 2.472.552 3.715.571 3.354 1.504 6.758 3.359 9.32-2.948 3.03-5.485 6.718-7.53 9.65-1.896 2.728 1.955 6.769 4.692 4.683 3.269-2.486 3.8-2.968 6.207-6.267.301-.411.421-.812.471-1.203.392.035.782.12 1.184-.021 3.98-1.413 4.923-3.098 6.697-7.164.481-1.123.382-2.356-.109-3.334.19-.687.36-1.394.491-2.176.679-3.82-3.994-5.895-6.219-2.627"/><path fill="#ed7eff" d="m364 342.74c-2.427-1.8-4.974-1.504-7.671-1.805-.09-1.278-.822-2.477-2.376-2.838-5.05-1.183-10.05-2.266-14.98-3.89-2.267-.752-7.31-2.808-9.656-1.224-1.414.963-2.627 2.235-3.78 3.62-.942.451-1.594 1.333-1.835 2.346-1.253 1.755-2.467 3.574-3.729 5.354-.642-.466-1.404-.772-2.166-.692-7.249.803-12.835 6.367-17.507 11.562-2.025 2.236-4.372 4.146-6.858 5.901-.812-.486-1.785-.737-2.828-.486-3.379.802-6.558 1.925-9.696 3.118.672-2.326-.581-4.723-3.469-4.934-5.826-.411-11.892 1.584-17.367 3.324-11.738 3.729-22.16 5.159-34.24 5.294.025-1.659-1.875-2.993-3.549-2.531-1.063-.878-2.547-1.073-3.7.351-1.885 2.316-3.85 4.241-5.279 6.868-.612 1.123-.632 2.938.486 3.811 10.789 8.357 24.37 8.568 37.476 6.718 6.695-.952 14.968-2.536 22.839-5.078 4.893-1.294 9.736-2.883 14.509-4.844 4.692-1.93 8.813-4.437 12.834-7.484 1.665-1.219 3.089-2.708 4.262-4.462 1.193.682 3.038.591 3.961-.692.571-.812 1.795-.853 2.607-1.419 6.617-1.99 12.303-8.753 16.403-14.223 2.227.902 4.503 1.523 6.829 1.865 2.216.987 4.542 1.725 6.818 2.155.341.336.682.677 1.173.857 2.717 1.013 5.05 2.171 7.972 2.437 1.544.146 2.727-1.098 3.107-2.512.772-.15 1.364-.521 1.745-1.062 2.065.08 4.131.18 6.167.14 3.176-.05 3.777-3.85 1.502-5.545"/><path fill="#ed7eff" d="m402.67 262.26c-.261 0-.521 0-.793 0-1.654 0-2.687 2.165-3.118 3.363 0 .006-.01.607-.02.607-1.023-.502-2.257-.321-3.319.2-4.372 2.166-8.172 5.254-11.762 8.533-1.243 1.133-1.273 3.429-.2 4.747-2.998 2.105-5.826 4.769-8.242 7.541-.531.245-1.063.606-1.474 1.197-.401.662-.822 1.309-1.244 1.956-.1.14-.2.301-.311.436-.01-.005-.01-.01-.02-.015-.101.176-.241.326-.352.501-.451.246-.872.582-1.223 1.078-.091.136-.171.266-.271.396-.973-.472-2.176-.567-3.229-.04-2.768 1.368-5.084 3.52-7.46 5.545-3.179.982-5.936 2.651-8.192 5.224-1.192 1.354-1.022 3.424-.029 4.718-3.319 2.451-6.348 5.059-5.746 10.01-4.401 1.313-8.362 2.948-10.949 4.292-2.787 1.453-1.995 5.69.853 6.497 5.404 1.524 10.478.622 15.481-.842 2.457 1.192 5 1.343 7.48.746 3.75 1.129 7.641.798 10.688-1.76.731-.029 1.434-.069 2.105-.115.331-.005.411-.06.742-.075 1.755-.12 4.04-.261 4.04-.351 0-.01 0-.025 0-.035 0-.045.882-.035 1.193-.085 3.77-.617 3.038-6.989-.763-6.668-1.303.101-2.526.221-3.83.336.061-.687-.01-1.369-.331-1.95.291-.125.582-.311.862-.446.803-.155 1.595-.315 2.387-.496 2.808-.451 5.625-1.489 7.961-2.673.632-.315 1.033-.807 1.224-1.349.431-.365.872-.691 1.253-1.118 1.926-2.19.592-5.344-2.296-5.55-4.121-.301-8.252-.421-12.383-.551 1.112-1.95 2.165-3.911 3.229-5.866 2.507-2.346 4.873-4.843 7.149-7.425 1.093-1.128 2.146-2.291 3.198-3.454 3.399-2.592 6.598-5.42 9.255-8.513 1.062-.251 1.985-.983 2.296-2.316.131-.552.392-1.022.571-1.544 2.758-2.051 5.305-5.551 7.34-7.01 2.66-1.924 1.948-7.674-1.751-7.674m-38.443 46.986c-1.635.085-3.27.12-4.934 0 1.374-1.264 2.798-2.473 3.94-3.861.441.101.933.101 1.474-.06.051.466.161.897.371 1.283-.721.652-.972 1.645-.851 2.638"/><path fill="#ed7eff" d="m350.06 275.41c-.953-.678-1.735-1.56-2.588-2.361-.05-.061-.12-.105-.18-.161-5.254-5.03-8.914-11.927-13.838-17.17-7.02-7.458-16.394-13.383-25.608-17.602-.311-.146-.622-.261-.933-.399.923-1.486 1.022-3.401-.592-4.763-9.706-8.179-23.09-7.718-34.743-3.896.752-2.669-1.394-5.585-4.603-4.823-11.623 2.765-35.603 7.563-39.864 20.771-.797 2.464 1.344 5.146 3.875 5.088 9.977-.233 19.828-5.813 29.22-8.703 8.643-2.66 16.845-2.462 25.1-1.983 11.279 1.902 22.12 6.781 31.835 12.874 8.634 5.415 13.968 13.627 20.385 20.781-1.073.376-2.105.862-3.068 1.664-1.554 1.314-.822 3.52.571 4.532-1.995 1.915-.48 5.164 2.276 5.48 2.096.416 4.191.446 6.297.064 1.515-.11 2.477-1.013 2.908-2.095.912-.352 1.825-.702 2.728-1.043 2.998-.935 3.208-4.555.823-6.259"/><path fill="#ed7eff" d="m215.66 326.03c-5.665 3.675-9.611 9.471-14.11 14.399-2.241 2.451-4.647 5.309-7.605 6.873-1.414.747-2.728 2.206-3.961 3.806-1.674-1.75-3.464-3.646-4.296-5.359-1.108-2.297-5.119-.632-4.136 1.744.497 1.224 1.153 2.312 1.84 3.369-.291.451-.466.968-.426 1.539.2 3.184.887 6.277 3.259 8.533 1.604 1.519 3.73.987 4.958-.637 5.109-6.769 11.731-12.01 17.522-18.239 2.411-2.587 5.099-5.395 7.27-8.157 1.88-2.401 3.053-2.717 3.103-5.916.019-1.664-1.961-2.892-3.415-1.955"/><path d="m462.29 315.09c.331-10.06-13.868-10.258-20.425-12.976-18.45-7.65-42.18 2.647-61.12-1.88 12.875-10.608 24.597-23.01 34.884-36.03 2.276-2.873.211-6.754-3.539-6.07-15.853 2.902-32.809 10.588-47.959 16.229-1.654.611-3.51 1.193-5.284 1.784-9.455-37.866-60.02-53.812-93.85-57-2.376-.223-3.489 3.645-1.253 4.604 12.584 5.377 24.967 6.442 38.32 9.323 18.339 3.948 42.885 27.19 49.28 43.845.17.472.24.952.4 1.424-21.638 6.247-49.26 10.483-68.74 8.708-3.379-.306-3.249 4.788 0 5.189 22.15 2.782 45.873-3.585 67.53-8.01.902-.19 1.805-.451 2.707-.662.03.15.03.291.051.432 2.206-.722 4.562-.691 6.858-.065-.08-.682-.08-1.394-.171-2.065 14.609-4.131 28.817-10.287 43.33-14.243-9.695 11.226-20.505 22.03-32.2 30.723-.181.141-.29.371-.451.541.211 1.945.331 3.94.331 5.962.04.029.07.085.12.109 8.813 4.03 18.972 2.592 28.467 2.633 15.622.06 30.12 1.985 45.502 3.99 16.224 2.126-13.256 12.865-17.11 13.662-14.208 2.953-28.07 1.87-41.963 6.688-2.587.907-4 4.387-1.694 6.478 8.231 7.495 20.806 6.322 31.25 9.109 7.108 1.896 16.203 5.941 22.921 8.864 13.857 6.01-13.546 6.487-16.896 6.462-24.927-.205-49.11-6.983-73.26-13.731-6.458.32-12.675-1.179-18.811-3.038-4.242-1.294-8.413-2.236-11.401-4.863-5.354-1.238-10.708-2.377-16.09-3.259-4.894-.797-6.748 5.686-2.046 7.43 1.374.521 2.747 1.033 4.121 1.544.933.352 1.755.261 2.417-.09 5.364 1.144 10.719 2.296 16.05 3.585-14.84 12.85-32.3 22.655-46.705 27.323-19.804 6.412-44.833 5.449-65.14-3.193 3.364-2.577 6.638-5.255 10.03-7.796 4.251-3.164 13.03-10.554 17.11-11.853 4.151-1.328 2.427-7.224-1.78-6.452-8 1.464-17.357 10.979-23.714 15.768-2.828 2.136-5.635 4.321-8.417 6.518-4.883 5.083-10.995 8.959-16.179 13.787-1.073.997-2.341 1.429-3.629 1.594-4.532 3.379-9.15 6.643-13.908 9.682.161-.105-13.436 10.09-10.272 4.045 3.479-6.652 10.363-12.568 16.344-18.09-.682-1.67-.667-3.585.747-5.505.331-.477.772-.873 1.123-1.334-.02-.02-.035-.035-.065-.05.501-.526.993-1.068 1.484-1.604 2.151-2.707 4.287-5.439 6.733-7.901 2.04-2.035 4.065-4.522 6.633-5.946 1.704-1.504 3.454-2.938 5.344-4.241.652-.451 1.323-.696 2-.882 4.998-6.468 9.881-13 14.569-19.498 1.685-2.331-2.161-4.512-3.825-2.24-6.979 9.46-14.289 18.715-21.954 27.648-8.874-8.898-14.705-20.51-15.211-35.03-1.609-44.901 40.24-77.22 75.71-94.5 1.224-.599.331-2.763-.952-2.226-18.73 7.838-40.905 15.466-52.882 33.05-3.72 5.464-7.325 10.759-10.654 16.05-.015-1.093-.727-2.161-2.171-2.156-23.03.061-43.02.843-65.17-6.938-16.539-5.815-29.84-19-45.958-24.16-2.712-.87-5.761 2.607-3.906 5.083 5.159 6.889 14.469 14.429 22.4 17.467 8.097 3.099 15.552 9.386 23.669 12.188 5.51 1.91 21.513 7.826 9.521 11.707-7.881 2.542-30.12-.091-32.32 11.11-1.79 9.1 20.71 13.251 25.764 15.692 19.08 9.24-25.624 22.12-33.07 22.901-7.856.812-15.587 2.723-20.245 9.325-.942 1.344-.571 3.51.592 4.593 6.04 5.595 12.729 5.354 21.15 6.297 16.544 1.859 33.55 2.832 49.553 2.837v-7.63c-16 .01-23.849.181-35.36-1.168-4.873-.566-32.28-2.647-18.489-6.122 14.04-3.534 27.21-5.083 40.22-12.573 18.971-10.93 3.139-23.935-9.651-28.737-1.709-.642-11.842-5.354-12.98-4.502 3.399-2.537 10.644-2.417 14.669-2.968 6.909-.973 16.224-1.454 20.906-7.41 3.279-4.161.421-10-2.812-13.236-.19-.2-.491-.311-.697-.496 17.216 3.395 33.3 2.091 52.21 1.243.472-.015.732-.285 1.053-.48-9.747 15.807-16.805 31.78-16.229 52.25.401 14.168 6.678 25.559 16.188 34.32-5.139 5.756-10.408 11.41-15.933 16.785-6.703 6.508-17.326 14.328-16.208 24.932.135 1.318.837 2.723 2.291 3 10.328 2.055 27.614-13.457 34.713-19.14 5.249-4.207 10.608-8.232 15.903-12.344 19.593 8.688 43.18 11.15 60.75 7.796 23.22-4.422 47.3-16.885 65.43-34.518 18.06 4.522 36.03 9.396 54.23 13.326 18.439 3.98 46.13 10.04 63.922 1.925 21.247-9.686-22.41-23.688-45.803-30.652 21.971-2.601 58.57-6.973 59.05-22.02"/></g></g><path fill="#151515" d="m481.28 241.31c-1.935 7.994-8.783 15.426-13.266 22.17-2.105 3.169-4.061 6.423-6.06 9.656-.622 1-1.023 1.835-1.273 2.477.01-.04.01-.055.01-.09.381-6.854-3.188-15.638-4.883-22.25-1.875-7.373-3.31-14.765-4.834-22.21-.591-2.91-4.211-2.675-5.654-.739-5.706 7.655-16.655 14.13-24.19 19.47-6.518 4.612-11.631 9.145-16.395 14.79-2.446-16.903-3.158-33.516-4.201-50.667-.11-1.903-1.845-3.514-3.82-2.916-5.504 1.672-10.378 4.054-14.248 7.841-2.848-8.851-5.385-17.55-7.41-26.657-.471-2.138-3.349-2.765-4.822-1.273-4.522 4.587-11.832 10.328-18.439 13.78 3.309-16.672 14.13-31.896 22.751-45.918.812-1.316.12-3.625-1.574-3.865-12.825-1.825-27.374-3.507-40.469-1.289 2-4.545 5.274-8.606 7.71-12.9 1.254-2.208 4.402-4.87 4.372-7.66-.01-1.01-.682-1.91-1.654-2.181-7.189-1.988-13.987-3.091-21.417-4.179-4.372-.637-10.398-1.276-15.652-.955 5.555-5.607 13.13-13.14 9.756-18.901-1.845-3.151-8.673-6.686-11.872-8.581-6.05-3.584-11.671-7.846-18.409-10.06-1.384-.457-2.176 1.589-.973 2.309 8.804 5.234 17.246 10.977 25.358 17.18 4.392 3.347-1.334 8.513-4.513 11.348-2.797 2.494-4.201 5.395-6.326 8.46-.262.195.02.586.16.872 0 .09.01.411.02.411h-.922c-.07 0-.682.17-.723.396-.451 2.527 2.438 3.873 3.9 1.675.15-.226.352-.512.552-.76 5.294-.927 16.564.486 21.327 1.229 5.194.812 11.471.93 16.284 3.213-1.384-.657-12.303 17.274-13.326 21.804-.431 1.923 1.214 3.647 3.169 3.161 11.922-2.96 26.18-1.702 38.584-.022-9.506 15.181-20.245 31.635-22.271 49.733-.19 1.662 1.865 3.151 3.39 2.587 7.159-2.64 15.19-7.944 21.527-13.381 2.105 9.229 4.732 18.16 7.812 27.421.832 2.479 4.061 2.966 5.484.717 2.627-4.146 6.487-6.667 10.799-8.412.321 9.137.11 18.19.923 27.434.832 9.568 2.296 18.417 3.961 27.812.541 3.02 4.462 2.808 5.905.771 10.739-15.211 28.31-22.626 40.8-35.613 1.725 8.342 3.58 16.652 5.224 25.01 1.284 6.468.542 16.756 4.903 21.989.672.808 2.216 1.233 3.199.843 6.518-2.587 8.332-10.318 11.801-16.06 5.265-8.733 13.888-17.211 16.07-27.328.86-4.01-4.904-5.619-6.149-1.694"/><path opacity=".43" fill="#dafa4f" d="m482.62 238.34c-.08-.213-.21-.474-.331-.729.011-.003.011-.008.021-.01-.021-.038-.05-.075-.08-.113-.622-1.261-1.635-2.933-2.567-4.59-.301-1.549-.872-3.126-1.645-4.725.763-.822 1.033-2.101.502-3.186-4.182-8.438-11.661-15.452-17.537-22.786-6.116-7.648-15.312-12.739-24.707-14.913-10.207-2.358-22.941.875-32.597 4.094-4.733 1.579-9.06 3.772-13.196 6.548-.23.155-6.647 6.04-6.337 7.936-.02.013-.04.028-.06.04-.141.095-.201.223-.321.329-.651.018-1.153.491-1.253 1.271-.101.709.02 1.21.311 1.694-.061.138-.12.278-.2.414-1.204.787-2.387 1.612-3.64 2.336-2.657 1.537-.853 6.229 2.146 5.079.23-.09.421-.218.651-.316 0 .013.01.022.01.035.091-.053.171-.115.261-.166 1.414-.642 2.688-1.396 3.71-2.392.041-.022.07-.042.11-.065.572.88 1.614 1.419 2.958 1.188 4.302-.737 6.738-2.15 10.03-4.96 2-1.708 3.139 1.942 3.78 6.196-1.585 5.131-.812 13.166.591 18.918.211 2.166.562 4.04 1.033 5.282.04.1.11.178.16.273-.431 3.633-.541 7.355.061 10.792.05.298.15.546.281.771-.342 2.628-.643 5.185-.432 7.967.141 1.9 2.096 3.294 3.891 2.231 2.947-1.755 5.03-4.723 6.838-7.802 5.215-2.689 9.01-7.271 13-11.538 6.167-3.627 11.942-8.568 16.766-13.619 1.895-1.988 3.55-2.073 4.983-1.156.562 1.512 1.143 3.02 1.774 4.512 1.504 7.453 5.425 14.437 7.771 21.927.021.115.051.226.061.336-.792 3.03-.642 5.985-.501 9.385.04.883.521 1.604 1.163 2.096-.521 1.604-1.013 3.209-1.344 4.798-.712 3.364 3.689 5.34 5.564 2.347 1.153-1.83 1.715-3.299 2.136-4.948 1.144-.181 2.187-1.013 2.267-2.577.07-1.369.16-2.748.2-4.091 3.681-6.909 8.393-13.534 10.268-20.388 2.064.26 4.371-1.329 3.448-3.725"/><path d="m416.66 198.98c-2.707.153-4.873 2.086-5.545 4.264-.541.652-.862 1.419-1 2.244-.13.391-.15.777-.08 1.188 0 .055.021.113.03.168.061.233.03.469.16.697.04.063.101.081.141.143.23.837.732 1.557 1.484 2.073.451.366.933.664 1.443.847 2.347 1.173 5.535.349 7.239-2.334 2.137-3.357 1.305-9.581-3.869-9.29"/><path d="m448.34 204.94c-.471-1.128-1.424-2.073-3.068-2.512-2.065-.554-4 .121-5.364 1.364-.14.09-.29.116-.421.223-2.306 1.885-1.965 4.958-.301 6.906.08.105.11.218.201.323 2.987 3.484 8.522 1.296 9.525-2.795.341-1.393.05-2.574-.572-3.509"/><path d="m432.48 224.08c-2.627 3.02-6.868 5.091-10.348 6.974-1.815.98-4.472 3.399-7.07 5.121 1.735-3.424 3.56-6.806 5.395-10.182 1.233-2.251 2.316-4.557 3.69-6.728.682-1.083 1.755-2.01 2.136-3.256.441-1.437-1.384-3.091-2.707-2.085-.352.266-.683.483-.803.932.352-1.228-1.845 1.687-2.286 2.269-1.574 2.076-2.707 4.302-3.961 6.573-2.837 5.144-5.825 10.175-8.252 15.539-.762 1.697.15 3.455 2.065 3.592 4.553.329 9.135-4.482 12.795-6.67 4.02-2.399 8.764-4.382 12.162-7.718.441-.19.822-.469 1.053-.917l.161-.331c1.233-2.484-2.02-5.427-4.03-3.113"/><path d="m487.89 231.94c-.421-.639-.872-1.263-1.293-1.897-.281-.659-.502-1.389-.692-1.837-.451-1.038-1.144-1.677-1.936-2.01-5.444-7.821-11.351-15.404-17.366-22.671-1.965-2.371-4.492-4.855-7.319-7.234-4.071-6.735-14.05-9.205-21.04-11.979-7.55-3-15.341-.411-23.03 1.266.4-4.259.722-8.219.671-12.611-.01-1.201-.01-2.627-.06-4.116 1.534-5.242 1.304-10.924-.101-16.66-.301-2.825-.712-5.608-1.384-8.265-.29-1.171-1-1.848-1.835-2.176-1.203-5.059-2.877-9.934-5.113-14.451-5.695-11.503-14.188-18.708-24.19-26.481-8.593-6.683-12.984-10.644-23.04-10.759-.983-.318-1.966-.624-2.938-.962-2.547-.88-4.312 2.041-3.499 4.086.782.038 1.504.238 2.256.343.03.01.05.033.08.041 3.259.779 6.317 1.845 9.285 3.038 2.467 1.301 4.863 2.822 7.239 4.587.571.143 1.133.324 1.694.567 1.695.734 3.31 1.592 4.884 2.519 22.951 16.77 32.958 47.563 26.682 76.33-.382 1.52-.782 3.03-1.273 4.475-.632 1.845-1.675 3.171-2.858 4.259-2 .775-4.161 1.667-6.337 2.645-.311.018-.621.113-.933.105-.381.266-.762.572-1.152.848-4.102 1.933-8.103 4.108-11.141 6.292-.23.243-.471.446-.771.619-.662.506-1.344 1.013-1.875 1.514-.161-.331-.281-.672-.432-1-1.183-.15-2.195-.935-2.236-2.757 0-.306-1.463-1.735-1.714-2.174-.592-1.027-1.053-2.101-1.524-3.183-.471-1.088-.742-2.098-.902-3.128-1.053.962-2.156 1.875-3.088 2.692-1.224 1.073-2.417 2.186-3.951 2.8-1.424.574-2.998 1.128-4.07 2.281-.331.355-.752.376-1.153.268-.913.719-1.815 1.439-2.737 2.128 4.11-12.632 7.43-26.09 15.341-36.711.893-2.178 1.715-4.419 2.857-6.435-.06-.133-.09-.276-.17-.401-4.492.625-9.355-.11-13.627-.98-2.657-.542-5.324-.907-8-1.249-2.497.073-5.01.148-7.561.173-5.906.06-11.08-.547-16.314.075 2.838-4.074 6.097-8.09 9.446-11.917 1.233-2.356 2.446-4.726 3.77-7.02 1.144-1.99 2.788-4.55 4.753-6.069-.061-.055-.08-.133-.141-.183-3.569.649-7.369.136-10.959-.078-4.732-.283-9.476-.499-14.178-1.07-1.063-.128-1.855-.497-2.487-1.11-4.271.012-8.684.03-12.464-.509 2.217-2.672 4.593-5.226 6.979-7.771.731-2.01 1.814-4.03 2.697-5.818.922-1.86 2.186-3.02 3.659-4.02-1.563-.91-3.048-2.108-4.542-3.184-1.524-1.09-3.168-2.091-4.603-3.299-.29-.249-.511-.539-.771-.812-3.79-1.88-7.711-3.587-11.301-5.172-.621-.273-1.273-.291-1.865-.135-.28-.12-.562-.246-.842-.369-1.645-.724-3.55 1.239-2.046 2.657.261.249.582.419.862.654.091.376.281.747.622 1.103.021.737.371 1.437 1.294 1.842 5.665 2.484 11.05 5.455 16.725 7.949.04.015.07.01.1.022-5.113 5.625-11.06 10.664-15.862 16.732-2.115 2.688 1.384 6.48 3.83 3.94 5.937 1.945 13.848.286 20.15 1.339 5.686.947 11.602.739 17.347 1.261-6.979 7.342-14.04 15.747-19.09 24.11-1.273 2.098.822 5.05 3.259 4.239 7.961-2.657 17.507-.609 25.859-.697 5.475-.058 10.719-.341 16.06-.158-9.265 13.691-12.272 30.785-18.329 45.951-1.233 3.076 2.597 4.821 4.924 3.788 6.638-2.95 11.802-8.149 17.617-12.371.09.246.19.484.28.727-.862.779-1.363 1.925-.992 3.219.722 2.464 1.725 4.77 2.827 7.03.462 1.409.893 2.835 1.334 4.254-.251.834-.441 1.689-.481 2.589-.061 1.243 1.013 1.97 2.086 2.043.682 1.787 1.434 3.51 2.396 5.02.551.86 1.614 1.677 2.707 1.577 1.704 3.532 6.518.92 6.316-2.461 2.988-1.84 5.836-4.572 8.885-6.573.23 3.322.4 6.618.701 10.02.03.394.15.727.301 1.033.11 3.938.261 7.876.712 11.802.381 3.407.432 6.921 1.013 10.297 1.214 7.06 5.735 13.805 4.062 21.255-.642 2.827 3.238 5.86 5.364 3.123 11.722-15.15 26.33-27.714 40.97-40.11.421 6.525 2.857 12.89 4.783 19.11.893 2.878 1.704 5.72 2.456 8.558-.932.481-1.614 1.379-1.523 2.798.36 5.766 1.563 11.22 1.363 17-.101 2.924 3.59 4.217 5.565 2.307.411-.391.741-.897 1.133-1.323 1.805.06 3.649-1.053 3.459-3.229-.03-.312-.09-.607-.12-.918 3.219-4.657 5.916-10.03 8.844-14.494 1.955-2.968 3.931-6.02 5.825-9.119-.381-3.936-.691-7.881-.912-11.834-2.938 5.144-5.996 10.248-9.205 15.199-2.065 3.168-4.03 6.969-6.156 10.658-2.857-12.724-8.182-24.298-11.882-37.12.05-.336.01-.687-.211-1.01-.08-.121-.17-.243-.25-.364-.051-.073-.131-.083-.181-.146-.23-1.201-1.564-2.191-3.239-2.191h-.32c-1.283 0-2.115-.481-2.607.366-13.255 10.909-25.899 22.295-36.949 35.423-1.152-6.799-4.181-13.675-4.742-20.786-.772-9.794-1.163-19.961-2.086-29.752 1.233-2.131.171-5.786-2.707-5.786h-.321c-.752 0-1.323.848-1.814 1.188-4.372 1.477-8.343 4.269-12.133 6.963-.642-1.762-1.354-3.341-2.136-5.04 1.233-1.038 2.396-2.125 3.609-3.168 4.703-3.088 10.1-5.653 13.156-7.638 1.544-1.01 3.338-1.945 5.214-2.835.933.04 1.875-.331 2.667-1.193 1.674-.687 3.409-1.314 5.214-1.86 5.866-.822 11.872-.96 16.985-.804 4.953.152 8.944.89 12.523 2.196 5.185 2.544 10.138 5.735 14.74 9.513.771.667 1.544 1.319 2.356 2.041.19.171.381.341.581.512 7.189 6.482 13.426 14.203 18.09 22.556-1.063 1.504-1.253 3.537.531 5.479 1.484 1.617 3.108 2.637 5.164 3.369 2.866 1.023 5.554-2.645 3.94-5.129"/><path d="m366.24 118.41c-2.376-5.342-10.09-2.544-10.929 2.369-.141.424-.15.873-.03 1.316.421 3.828 6.207 5.572 8.864 3.449.33-.166.651-.354.942-.602 1.675-1.409 1.996-4.645 1.153-6.532"/><path d="m384.65 135.19c-1.435-.604-2.928-.562-4.302-.083-3.088-.298-5.735 3.339-5.354 6.292.07.486.2.93.381 1.351.181.945.592 1.873 1.364 2.712 1.694 1.843 5.174 3.708 7.65 2.394 1.685-.895 2.928-3.079 3.118-5.167.141-.308.251-.626.361-.95.883-2.792-.601-5.444-3.218-6.549"/></g></switch></svg>