<svg xmlns="http://www.w3.org/2000/svg" viewBox="0 0 500 165.5" enable-background="new 0 0 500 165.5"><switch><g><path fill-rule="evenodd" fill="#333" d="m206.3 34.713c-.041-4.915-3.228-9.891-9.241-9.891-.821 0-1.692.091-2.59.267-6.188 1.242-7.96 6.098-7.552 10.224.47 4.717 4.067 9.73 9.814 9.73l.163 1.504-.024-1.504c6.243-.099 9.471-5.274 9.43-10.33"/><path fill-rule="evenodd" fill="#333" d="m253.56 93.88c-5.928-1.354-12.04-2.748-13.494-9.555-.644-3.03-.218-7.541.232-12.308l.358-4.02 1.469.101c2.41.163 4.506.243 6.409.243 7.748 0 12.563-1.301 15.16-4.095 1.623-1.751 2.334-4.145 2.116-7.114-.601-8.18-7.192-8.958-17.972-9.26-2.187-.059-4.337-.123-6.457-.286l-1.329-.101-.056-1.334c-.105-2.484-.009-4.753.069-6.577.177-4.341.319-7.764-1.793-10.844-1.662-2.445-4.76-3.896-8.295-3.896-4.483 0-8.269 2.234-9.645 5.696-1.223 3.02-.997 10.736-.778 18.19.089 2.942.173 5.833.173 8.417 0 2.964-.094 6.05-.196 9.148-.196 6.279-.403 12.769.196 18.639 1.166 11.439 9.467 22.884 19.736 27.21 3.458 1.434 8.234 2.329 12.456 2.329 5.18 0 13.874-1.325 13.882-10.194 0-7.085-4.844-8.713-12.238-10.391"/><path fill-rule="evenodd" fill="#333" d="m323.94 101.84c-1.131-6.278-7.359-6.949-12.363-7.486-2.114-.226-4.079-.435-5.583-.975-8.797-3.16-8.393-14.03-7.323-23.97l.151-1.411 1.42.072c2.379.122 4.705.217 6.903.217 11.09 0 16.11-2.612 16.789-8.731.364-3.211-.248-5.75-1.816-7.549-3.454-3.977-10.989-4.179-18.965-4.391-1.243-.033-2.426-.064-3.6-.108l-1.344-.055-.095-1.339c-.187-2.584-.013-4.878.139-6.903.273-3.583.504-6.683-1.236-9.876-1.553-2.887-4.776-4.605-8.622-4.605-4.253 0-7.998 2.083-9.339 5.185-1.781 4.155-1.293 13.44-.898 20.898.151 2.84.294 5.483.289 7.516 0 3.819-.125 7.571-.248 11.163-.218 6.706-.417 12.914.243 17.859 1.699 12.354 13.13 23.11 22.746 25.988 2.896.865 5.962 1.323 8.858 1.323 5.435 0 9.728-1.556 12.08-4.386 1.795-2.152 2.419-5.066 1.81-8.436"/><path fill-rule="evenodd" fill="#333" d="m391.58 56.54c-4.283-4.587-11.488-9.01-16.772-10.281-2.788-.683-5.569-1.028-8.267-1.028-9.288 0-17.962 4.03-24.43 11.342-6.965 7.878-10.398 18.479-9.186 28.355 1.678 13.548 13.151 28.526 31.11 29.606.835.051 1.677.074 2.523.074 8.669 0 18.698-2.858 20.229-9.135.417-1.709.077-4.03-.888-6.07-1.055-2.236-2.697-3.767-4.506-4.206-3.02-.712-5.417.199-7.814 1.273-1.935.86-3.904 1.73-6.76 1.766-6.524 0-11.79-2.971-14.454-8.149l-1.107-2.151 2.42-.041c4.959-.077 10.05-.01 15.14.062l.33.005c3.378.041 6.755.087 10.08.087 7.404 0 12.867-.22 17.708-.706l.011-.005c8.293-9.656 2.29-22.63-5.368-30.802m-41.23 15.09l1.771-2.394c1.07-1.447 3.319-2.954 5.343-4.248 2.737-1.783 6.02-2.73 9.493-2.73 5.997 0 11.841 2.839 14.548 7.06l1.484 2.311h-32.639"/><path fill-rule="evenodd" fill="#333" d="m93.16 107.29c0-3.364.107-7 .216-10.649.217-7.256.44-14.763-.217-20.19-2.36-19.19-17.833-27.786-32.12-27.786-10.286 0-19.812 4.03-26.14 11.06-6.04 6.698-8.659 15.622-7.585 25.809 1.996 18.835 17.696 29.64 43.08 29.64l2.412-.041-.063 1.6c-.423 10.416-.051 19.842 9.03 20.753 3.599.387 6.218-.43 8.07-2.349 4.04-4.184 3.743-13.02 3.454-21.564-.074-2.194-.143-4.301-.143-6.286m-20.336-21.748c-.133 2.236-.27 4.559-.142 6.934l.087 1.527-1.527.057c-1.724.068-3.376.115-4.954.115-8.664 0-16.914-1.124-18.627-9.263-1.169-5.542.693-9.302 2.462-11.483 2.581-3.179 6.808-5.154 11.03-5.154 5.241 0 9.26 2.766 11.03 7.592 1.066 2.897.86 6.19.643 9.675"/><path fill-rule="evenodd" fill="#333" d="m172.85 83.71c1.185-12.879 1.674-26.853-3.678-32.807-1.699-1.892-3.88-2.831-6.658-2.867-4.443 0-7.314 2.032-8.765 6.219-1.256 3.621-1.256 8.153-1.256 12.535-.011 13.682.074 29.3-14.954 27.21-11.241-1.561-10.637-11.481-10-21.984.391-6.476.793-13.14-1.369-18.52-1.724-4.275-5.759-5.176-8.84-5.176-1.693 0-2.93.28-3.165.335-2.536.655-4.51 2.713-5.844 6.106-4.81 12.219.016 39.28 3.466 44.672 4.704 7.3 14.578 15.11 28.18 15.11h.554c17.358-.284 30.651-12.96 32.33-30.83"/><path fill-rule="evenodd" fill="#333" d="m453.7 68.33c10.724-.162 18.338-.933 18.772-9.38.144-2.847-.645-5.195-2.346-6.973-2.822-2.974-8.216-4.48-16.03-4.48-4.04 0-8.609.382-13.965 1.178-13.684 2.034-25.768 13.978-27.513 27.19-2.329 17.759-1.052 30.453 3.587 35.745 1.74 1.98 3.879 2.944 6.55 2.947l.679-.016c9.566-.519 9.84-9.464 9.175-22.04-.319-6.01-.652-12.215.97-16.635 2.636-7.261 11.525-7.401 20.12-7.537"/><path fill-rule="evenodd" fill="#333" d="m205.85 61.955c-1.315-3.193-4.983-5.263-9.337-5.263-4.796 0-8.64 2.538-9.798 6.463l-.004.012c.929 5.683.444 13.158-.024 20.385-.776 11.977-1.511 23.291 3.254 28.372 1.642 1.753 3.901 2.646 6.713 2.651l.853-.028c9.06-.515 9.48-9.203 9.08-22.398-.069-2.178-.134-4.403-.134-6.614-.006-2.093.1-4.48.208-6.947.291-6.629.58-13.212-.811-16.633"/></g></switch></svg>