<svg xmlns="http://www.w3.org/2000/svg" width="586.73" height="605.31" viewBox="0 0 586.727 605.307" enable-background="new 0 0 586.727 605.307"><switch><g><path fill="#c2c1de" d="m471.86 91.92l1.14 14.65h5.18l11.97-13.01 14.98-18.05 14.69-18.28 11.17-13.08 3.57-8.85-2.67-5.823-3.78-5.04z"/><path fill="#a4dbf4" d="m548.64 384.62l-.16-.187c-1.405 1.623-2.9 3.151-4.553 4.604-1.301 1.147-3.455.416-3.465-1.437-.022-3.41 1.047-7.5.164-10.957-1 .676-1.988 1.373-2.978 2.106-1.169.866-3.237-.286-3.057-1.754.281-2.256.546-4.452.552-6.659-.706 1.155-1.342 2.355-1.955 3.621-.941 1.938-3.688.846-3.784-1.023-.158-3.062-.063-7.246-1.695-10.16-1.452 1.361-3.077 2.533-4.727 3.789-1.209.918-3.163-.317-3.057-1.754.126-1.725 1.955-6.541 1.921-9.857-.998 1.02-2.112 1.934-3.379 2.812-1.344.931-2.984-.334-3.057-1.754-.134-2.597-.561-5.127-1.044-7.656-.56.289-1.137.567-1.767.834-1.408.596-2.997-.078-3.057-1.756-.12-3.324.025-6.564-1.259-9.643l-14.162 28.723 16.249 13.202 14.894 22.339-54.778-6.969 48.653 27.843-36.994 42.34-13.97-26.883 14.441-1.804-16.247-20.764-32.498 52.733-15.445-32.647-22.465 26.4-23.694 8.125h-10.156l-4.737-23.02-14.895-.676-15.179-25.27c-4.682 2.177-9.418 4.066-14.241 5.55-3.732 1.787-7.503 3.486-11.493 4.661-10.527 3.102-21.03 1.582-31.793 1.03-6.342-.327-12.834-.459-18.89 1.781-4.948 1.833-9.07 4.605-13.594 7.224-5.448 3.153-10.276 2.768-15.312 1.124-.155 0-.302.018-.471-.017-2.461-.478-4.186-1.362-6.353-2.687-.005-.004-.009-.008-.015-.01l4.497 52.49 336.77-4.357-7.766-103.63"/><path fill="#c0a2c9" d="m311.19 433.29l7.45 1.03 3.83 7.67 3.09 5.42 2.56 93.87-10.61-9.7z"/><path fill="#c2c1de" d="m335.65 29.929l8.49 7.311-.9 32.18-8.99-6.2z"/><path fill="#c2c1de" d="m302.62 66.26v23.94l3.83 4.04 2.94 1.48 1.12-1.03v-21.91z"/><path fill="#a4dbf4" d="m501.27 193.09v7.252c.107.246.167.533.161.861-.018.814-.022 1.612-.018 2.406 1.885-2.309 3.095-5.392 4.9-7.677 1.246-1.581 3.278-.066 3.465 1.435.209 1.663.156 2.966-.161 4.337 3.221-1.02 4.438-6.452 5.424-8.94.377-.948 1.383-1.841 2.499-1.417 2.212.84 3.39 2.442 3.948 4.356 1.754-1.3 2.634-3.271 2.733-6.686.083-2.612 4.141-2.622 4.062 0-.021.822-.052 1.645-.084 2.467l2.392-1.969c.056-1.384.035-2.728-.051-4.109-.156-2.474 3.197-2.504 3.989-.541.857 2.135 2.97 9.324 3.54 3.11.138-1.495.593-2.993 1.963-3.794 1.239-.726 2.678-.37 3.578.632 1.721 1.911 3.257 2.087 4.069 1.282l-7.832-12.746 5.478-19.309-.864-10.526-3.274-10.565-63.07-1.693-129.31-5.867-53.15.942c.109 2.996.1 6.01-.495 8.954.562.296.964.864.914 1.716-.092 1.658-.301 3.205-1.982 3.98-.765.353-1.535.685-2.314.993-.258.474-.705.848-1.255 1.048-.245.09-.493.172-.739.259-.01.004-.368.147-.369.139-.149.069-.302.137-.44.227-.063.041-.108.068-.139.084-.024.027-.063.065-.125.122-.806.756-2.069.803-2.871 0-.393-.393-.592-.941-.586-1.485-1.039-.649-1.097-2.348-.157-3.238-.261-.962.068-2.135 1.238-2.592-.18-3.322-.617-6.757-.013-10.04l-17.215.305-19.17.34-28.423.504-3.818 156.84 3.818 23.02-3.143 6.771-6.764.447 13.09 9.254 11.734-5.644 6.755-9.61c0 0-1.544-18.312-1.568-18.369-.023-.059-4.055-7.083-4.055-7.083l30.462 9.788 15.833-5.559 26.07-10.689-43.31-20.15 26.23-11.439-39.04-29.789 39.04 1.664 9.929-7.078-8.097-47.16 2.681-23.25 15.876 17.15 8.722-14.215 29.14 39.15 8.899-10.356-13.578-18.34 9.386.606 23.995 5.631-7.9 10.604 7.9 14.331 15.01-37.799 10.06 36.36 2.197-7.682 2.446 5.183 12.636-8.06 5.265 11.656 21.915-16.522 14.12 17.21 36.858-28.378.966 36.957"/><path fill="#c2c1de" d="m348.76 96.5v34.3l6.55 6.77 4.4-.45-2.26-40.06z"/><path fill="#c2c1de" d="m241.91 94.89l13.03-9.898 39.78-1.442-11.68 10.5-40.45 2.79z"/><path fill="#c0a2c9" d="m338.5 516.91l13.31-1.8-23.92 64.76-16.01 3.42h-2.27z"/><path fill="#a4dbf4" d="m413.91 585.9l-64.65-62.66-23.693 58.672 47.31 5.688c5.01-10.01 34.53 7.264 41.04-1.698"/><g><path fill="#c2c1de" d="m177.17 42.12l13.12 11.68-1.44 41.21-12.27-11.42z"/><path fill="#a4dbf4" d="m130.9 24.64l5.69 27.11h7.34l.56 19.409 29 8.01 1.2-39.77 38.06-.99-6.54-29.423-39.38 11.06z"/><path fill="#00a1d9" d="m232.08 50.899c-.836-1.374-1.639-2.769-2.262-4.282-1.871-4.536-3.763-9.109-5.375-13.744-2.277-6.545-5.529-12.825-7.575-19.448-2.658-3.612-4.838-7.513-7.141-11.35-.484-.681-.935-1.384-1.4-2.075-4.369 1.54-8.712 3.161-13.152 4.5-2.313.699-4.619 1.417-6.909 2.172-.16.073-.316.153-.478.224-1.095.479-2.209.912-3.333 1.322-5.187 3.149-10.547 5.84-16.579 6.629-6.254.818-12.753-.339-19.02-.453-6.89-.125-14.06.795-21.02 1.075.012.093.036.178.036.279v22.752c0 2.449-.109 4.945-.219 7.452.308 3.312.715 6.606.999 9.914.18.288.293.638.291 1.065-.003.97-.064 1.971.057 2.935.341.533.87.953 1.486 1.447 1.219.976 2.176 2.045 2.705 3.521.599.606 1.19 1.218 1.761 1.854-1.408 1.158-2.82 2.24-3.988 3.242-.049.035-.088.076-.133.113.001.036 0 .075.001.11 1.534 2.652 2.56 5.567 4.231 8.146 1.14 1.76 2.113 3.453 2.59 5.414.092.04.181.083.287.113 12.365 3.511 24.804 6.765 37.16 10.292 5.31.821 10.292 3.044 15.479 4.29.062-4.55.123-9.08.052-13.635-.073-4.745 1.14-9.488 1.926-14.187.104-4.064.263-8.126.527-12.188.077-1.175-.025-2.283-.263-3.336 3.15.061 6.296.248 9.441.486 10.718.156 21.397 1.725 32.12 1.088-.917-1.877-1.86-3.738-2.296-5.737m-20.359-41.707c2.646 4.748 4.545 10.194 6.202 15.336 1.887 5.851 3.794 11.363 6.203 16.675-.621-.608-1.239-1.22-1.853-1.842-.238-.24-.49-.4-.748-.496-2.053-5.275-3.721-10.755-5.496-16.03-1.852-5.512-4.048-10.931-6.356-16.302.767.801 1.486 1.655 2.048 2.663m-72.798 19.418c12.09-.006 24.18-.142 36.23-.805.154-.287.366-.541.651-.723 5.923-3.75 11.273-8.282 16.925-12.412.406-.296.856-.372 1.285-.293 1.424-1.727 3.203-3.094 5.52-3.747 1.194-.337 2.298.576 2.544 1.633.515.316.899.826.921 1.44 1.704 3.108 2.9 6.577 4.331 10.1.85 2.088 1.961 4.051 2.339 6.719.469.595.63 1.419.419 2.088 1.309 1.016.905 3.672-1.213 3.672h-34.36c-.155 5.513-.681 10.988-1.292 16.473 0 .003 0 .005 0 .009.433 7.265-.439 14.476-1.411 21.677-.008-.001-.017-.004-.024-.006-5.316-.808-10.09-3.645-15.352-4.858-3.889-.899-7.985-2.579-12.01-2.928-.013-.361.028-.732.19-1.097 1.643-3.732 4.492-6.673 5.744-10.606.864-2.715 1.697-5.331 3.056-7.843.042-.077.095-.139.142-.208-4.588-.19-9.2.026-13.788.049-1.039.005-1.658-.634-1.874-1.403-.203-.299-.326-.677-.326-1.136v-11.732c0-.168.049-.301.08-.447-1.23-1.053-.809-3.615 1.273-3.616m-5.612 30.608c1.219-.028 2.435-.1 3.655-.179.027.018.052.037.078.055.76.505 2.475 1.394 3.084 2.123-.557.954-1.317 1.869-2.176 2.752-1.467-1.661-3.075-3.184-4.641-4.751m48.894 32.745c-.008.007-.017.009-.024.015-.187-.08-.375-.152-.57-.215-1.092-.348-2.246-.604-3.397-.731-.138-.117-.275-.233-.414-.35-12.65-3.638-25.385-6.981-38.05-10.567-1.448-2.983-3.34-5.7-5.109-8.495 4.281 1.561 8.516 3.236 12.672 5.077 1.926.852 3.825 1.677 5.728 2.452.792.238 1.586.461 2.376.709 2.847.889 5.675 1.837 8.512 2.755 1.228.257 2.466.482 3.741.635 2.595.309 5.07 1.059 7.537 1.819.787.053 1.57.128 2.346.225-.005.167.013.332.05.497 1.59.761 2.713 2.116 4.32 2.898.638.311.971.994.99 1.681.838.788 1.64 1.609 2.381 2.492-1.026-.307-2.059-.594-3.087-.897m6.398-25.935c-.3 6.785-.319 13.583-.296 20.378-.163.295-.27.631-.304.989-.125 1.362-.229 2.724-.288 4.088-.596-.019-1.196-.271-1.635-.863-1.825-2.466-3.938-4.736-6.547-6.379-.955-.602-1.115-1.597-.812-2.424-.062-1.488-.123-2.976-.236-4.493.296-6.216.517-12.433.696-18.654.074-2.645.159-5.229-.06-7.865-.078-.928.034-1.62.277-2.149.15-.068.326-.129.495-.194.119-.347.255-.672.426-.957-.649-.368-.953-1.085-.942-1.794 2.165 1.496 4.268 3.049 6.205 4.869 4.538 4.264 3.265 9.9 3.02 15.448m2.471-15.06c-1.914-3-4.923-5.459-7.933-7.589 6.07-.87 12.713.11 18.814 1.163 3.357-.162 6.692-.301 9.936-.179 2.482.093 5.916-.417 9.21-.458 3.074 2.954 6.318 5.851 8.458 9.514-12.866-.148-25.633-2.401-38.485-2.451"/></g><path fill="#a4dbf4" d="m268.89 481.27l37.04-28.93 8.59 70.9z"/><path fill="#a4dbf4" d="m243.64 98.43l4.29 44.792 28.21 4.29v-51.789l-32.497 2.707"/><path fill="#a4dbf4" d="m314.28 79.81l-1.99 14.86 31.77.94 15.13 6.75v15.59l12.18 16.7h11.96l1.5-3.97 2.34-19.28 20.08-7.4 27.08.62 12.97.69-93.66-56.11-3.26 19.33-9.93 5.64-20.53-.227z"/><path fill="#a4dbf4" d="m486.01 98.43l49.47-56.47 20.6 45.978-65.33 17.37z"/><path fill="#fab700" d="m394.27 360.08l-8.801-3.724-7.265 1.979-8.238-.251-5.822 7.413-10.287-.201-11.143-7-15.335 8.219-9.893-1.299-6.149-10.04-19.638 4.374-20.448.782-18.313-5.584-16.252-8.495-22.16-3.77h-17.603l-11.586-3.107-17.14 6.04-14.458 5.187-8.957 6.846-14.826 14.484v8.461l-1.409 13.164-27.759 6.47 27.08 9.02-.338 9.512-13.879 9.221 20.396.674 17.03-4.371 18.932-6.288c1.477-.59 2.954-1.174 4.497-1.516 3.123-.696 6.424-.957 9.494-1.853 4.428-1.294 9.06-3.668 13.776-3.647 5.971.025 12.756 1.741 15.388 7.669 3.182 7.175-2.452 10.381-8.748 10.7l1.988.676c5.535-.529 11.168.086 16.654-1.127 4.909-1.085 8.992-3.117 13.239-5.657.893-.533 4.913-2.937 8.17-3.743l.035-.027.196-.021c.656-.146 1.272-.223 1.822-.198l37.729-4.132 30.26-4.475 24.917-11.435 30.493-10.192 24.13-21.256 10.511-12.388-10.3 4.906"/><path fill="#ea6514" d="m123.82 364.15l-31.48-22-17.58-26.41-11.872-19.97h20.312l4.4 7.11 19.29 8.46 7.79 3.05 14.21 1.69 17.61-1.35 14.89 9.25 15.74 5.98 34.47-4.74 30.01-8.46 5.42-7.45v-13.54l-6.59-7.86 31.86 6.84 19.41-2.71 22.81 1.7h18.15l-21.18 16.28-.15 10.29 3.18 8.63 2.24 6.77-25.05 9.71-9.82 3.16-22 8.29-22-11.45-19.22-6.04h-15.66-20.63l-10.16 5.13-16.25 5.76-8.46 9.14-13.45 7.11z"/><path fill="#b0d292" d="m244.32 180.01l.65.4 34.1 21.45 32.64 19.42 30.78 5.65 18.28 1.14-17.38-10.97-15.04-10.63-12.79-6.16 29.62-1.6 25.36-3.2 3.95 10.03 12.94 1.85 14.86 2.69 16.3-13.04 25.41-4.85 13.8 4.29 17.59 2.42 5.43 5.14 7.9 13.06 16.24 3.01 1.59.29 68.6-22.57-1.58 12.64-33.18 36.78-29.56 4.74-16.02 6.77-15.12 1.81-16.92-8.58 5.41 24.82-20.53-8.12-28.71 3.32-18.68-3.32-12.64-4.96-11.06-6.55-20.08-3.38-12.85 4.08-12.42.88-14.67-12.63-13.09-3.16-18.95-6.32-9.03-11.96-18.96-24.6-14.89-18.05-5.42-5.64z"/><path fill="#80c18d" d="m113.89 168.5l12.18-10.84 18.29-6.49 14.21 10.78 11.28 14.67 26.31 15.42 38.46 7.62 29.32-2.78 73.88-34.35-12.03 15.9-8.12 8.12-14.67 13.09 1.12 8.56-10.83 1.37-7.14 12.39-11.14.02-16.24 11.51h11.28l-11.05 13.77-15.36 4.41-22.13 6.35-29.66 4.8-31.7-5.19-15.57-9.47-17.41-11.92-3.35-21.93-59.12-9.14 38.36-5.53-20.99-29.34 26.63 9.26z"/><g><path fill="#00a1d9" d="m230.04 280.67c-1.237-.85-2.383-1.672-3.702-2.728-.851-.682-3.098-2-3.119-3.217-.029-1.673 3.855-3.054 6.281-2.876-.125-1.92-.194-3.838-.078-5.763.178-2.924.397-5.809.435-8.707-6.453 2.029-12.812 4.151-19.7 5.745.061 7.507.517 15.204 1.304 22.68.015 4.75.054 9.499.211 14.248.011.297.07.553.162.783-.224 7.415-.884 14.81-.613 22.23.08 2.213 3.508 2.863 3.989.541.246-1.188.457-2.365.655-3.543 1.35.186 2.752.023 4.02-.455.659-.25 1.18-.734 1.391-1.348.877-.248 1.753-.494 2.627-.742 3.01-11.308 5.169-23.465 6.139-36.812-.003-.011-.002-.025-.002-.039"/><path fill="#00a1d9" d="m569.48 89.56c-.444-1.828-.825-3.665-1.118-5.521-.047-.156-.084-.316-.134-.469-7.228-9.787-14.767-19.498-20.519-30.12-3.291-6.083-7.447-11.649-10.61-17.785-2.35-4.561-4.528-9.167-7.281-13.462-9.152 12.303-20.721 23-29.953 35.26-4.858 6.453-9.638 13.05-14.88 19.21-4.01 4.709-9.492 8.04-13.548 12.644-.397.761-.709 1.552-.982 2.357-.219 5.723-.819 11.607.63 17.14 1.183-.104 2.384-.222 3.631-.504 4.344-.985 8.389-2.653 12.631-3.968 10-3.098 20.636-3.783 30.925-5.51 15.94-2.679 31.859-5.474 47.809-8.02.811.823 2.358.511 3.078-.497.118-.018.232-.037.351-.057-.058-.08-.107-.167-.165-.246.061-.142.1-.298.135-.456m-87.52 6.677c-2.804 3.586-5.732 7.118-8.959 10.33.131-3.455.144-6.907.54-10.344-.099-1.792.229-3.491 1.463-4.987.025-.032.057-.058.082-.089 1.627-2.861 4.256-5.169 6.504-7.577 6.01-6.434 12.57-12.26 18.01-19.24 5.34-6.858 9.908-14.259 15.381-21.02 4.34-5.362 9.824-10.317 13.951-15.937.923 2.78.915 5.847 1.686 8.739.086.328.23.592.41.804-1.279 1.475-2.53 2.977-3.666 4.582-4.98 7.06-10.717 12.566-16.509 18.923-3.446 3.78-6.671 7.708-10.05 11.502-.521.82-1.046 1.643-1.59 2.45-5.179 7.717-11.526 14.555-17.248 21.866m35.15-7.148c-5.644 1.851-10.826 4.205-16.679 5.503-1.038.231-2.061.479-3.069.742.552-.549 1.104-1.096 1.654-1.646 11.271-11.271 21.849-23.861 31.1-37.24 7.892 6.841 14.372 15.09 18.394 25.809-10.309 2.918-21.16 3.475-31.398 6.831m35.05-24.08c-6.612-9.1-11.501-19.352-17.69-28.695.124-.294.149-.643.099-1.017.485 1.155.992 2.253 1.564 3.206 3.702 6.159 8.233 11.713 11.773 18.04 3.562 6.365 8.238 12.301 11.949 18.624-2.537-3.412-5.205-6.736-7.695-10.157"/><path fill="#00a1d9" d="m572.18 491.69c-.028-.043-.055-.084-.082-.127-.433-3.717-1.912-7.124-2.503-10.854-.894-5.622-1.865-11.338-3.474-16.8-2.966-10.07-5.136-20.296-7.555-30.506-1.315-5.561-2.509-10.936-2.697-16.683-.101-3.049.668-6.05.469-9.135-.052-.749-.215-1.354-.452-1.867h-10.303c.021.33.116.662.282.97-.104.168-.193.341-.255.521-.703 2.173-.192 5.855-.192 8.677-.002 15.03-.277 30.14.391 44.26.271 5.719.732 11.214 1.267 16.673-.037.015-.077.029-.116.047.15.271.262.569.279.955.028.65.058 1.299.084 1.946.014.35-.064.649-.204.91-.013 1.241.017 2.479.036 3.742.018 1.115-.937 2.02-2.032 2.031-5.239.037-10.461-.451-15.68-.788-3.954.428-7.919.72-11.74.521-.216.022-.438.068-.65.086-3.985.347-8.298 0-12.479 0-8.516.004-16.715.18-24.858-.19-4.217-.193-8.38.096-12.479-.101-8.105-.383-16.394-.485-24.568-.485-8.274.002-16.516-.393-24.661-.393-8.02 0-16.06-.75-24.08-.974-21.507-.599-42.23.54-62.61 1.479-1.193.745-3.192.203-3.192-1.636-.002-6.829.375-13.875-.655-20.642-.646-4.25-1.332-8.443-1.148-12.757.014-.346.1-.643.234-.896-.068-.377-.136-.758-.213-1.136.311-.137.617-.27.903-.388.688-.274 2.427-.059 3.414-.097 7.76-.291 14.753-1.456 21.737-2.145-.823 6.395-2.144 12.428-2.144 19.792 0 1.493-.156 4.121.126 5.73 2.763-.445 5.521-.895 8.32-1.062 5.309-.318 10.608-.367 15.923-.43 8.698-.098 17.332-1.07 26.01-1.56 1.225-2.966 2.551-5.895 3.873-8.821 1.085-1.674 2.194-3.328 3.342-4.963 1.405-2 2.855-4.241 4.505-6.257.019-.967.824-1.747 1.734-1.936.242-.243.484-.487.735-.715.124.272.261.535.385.81.358.146.686.417.934.844 4.4 7.527 9.353 14.15 15.616 20.21 2.81 2.719 5.673 5.574 7.846 8.854 1.335-1.867 2.156-4.02 3.109-6.114.09-.199.148-.401.188-.606 6.177-11.01 13.804-21.06 18.944-33.08.012-.021.027-.042.039-.062 1.035-1.292 1.937-2.718 2.768-4.197.922-1.298 1.818-2.674 2.621-4.094.345-.464.666-.941.916-1.443 2.889 2.661 5.612 5.504 8.463 8.209-2.478.241-4.616.455-7.07.847-.85.135-1.889.341-2.833.666.148.178.28.381.372.63 2.133 5.702 3.538 11.805 5.514 17.603 1.967 5.769 4.456 11.353 6.341 17.14 2.934-3.04 5.818-6.129 8.679-9.248 2.481-2.707 5.19-5.36 7.801-8.09.645-1.392 1.509-2.67 2.443-3.897 1.445-3.116 4.609-5.82 6.617-8.312.376-.464.811-.655 1.241-.674.619-.708 1.236-1.409 1.849-2.115 4.11-4.76 8.04-9.968 12.803-14.199 1.599-1.827 3.163-3.694 4.682-5.613-.518-.708-1.693-1.22-2.473-1.729-3.193-2.097-6.326-4.116-9.358-6.05-4.206-2.675-8.651-5.303-12.575-7.799 4.497.229 9.616.111 14.233-.294 1.248-.108 2.99-.226 4.737-.477 3.841-.103 7.705-.57 11.534-1 .052.045.107.077.162.118.835-.085 1.669-.146 2.505-.212.073-.067.145-.141.209-.219.08-.008.157-.017.236-.025.29-.028.564-.142.823-.285.068.002.13.011.197.015.307.062.613.099.927.103.379.006.731-.124 1.045-.318-4.128-6.32-10.474-12.922-15.931-17.788-2.894-2.581-6.206-4.668-9.06-7.282-2.633-2.408-4.852-5.179-7.616-7.446-.448-.37-.646-.798-.675-1.226-.002 0-.004 0-.006 0 .002-.009.002-.015.004-.021-.015-.238.03-.472.116-.696.554-2.971.602-6.099 1.222-9.02.862-4.056 2.805-7.576 2.977-11.795v-.008c.019-.033.043-.062.062-.095 1.086-1.847-1.053-3.544-2.597-2.884-.271-.004-.552.004-.816.029-.62.058-1.133.168-1.604.301-2.762 5.623-7.679 10.08-11.03 15.371-2.292 3.619-4.638 7.139-7.304 10.432 0 .005 0 .01 0 .014.002.188.033.355.058.527 3.62 2.197 6.683 5.13 10.206 7.562 4.601 3.178 9.135 6.346 13.1 10.304.066.071.12.146.178.218 1.906 1.602 3.777 3.234 5.704 4.8-13.222 1.974-28.29.646-42.07-.005-2.09-.098-4.409-.275-6.757-.383-.145.023-.301.031-.466.023-.89-.049-1.78-.068-2.669-.098-.698-.001-1.398-.008-2.078.021-.104-.045-.229-.062-.347-.094-3.426-.061-6.857-.033-10.287-.017-.352.11-.699.224-1.045.375-.165.075-.302.16-.426.253 4.293 2.648 10.683 4.296 14.237 5.674 2.365.916 4.695 1.907 7.02 2.914 15.597 5.467 29.19 13.11 43.17 19.854-2.979 3.13-5.772 6.444-8.616 9.711-2.221 1.877-4.399 3.808-6.203 6.12-.618.796-1.214 1.618-1.799 2.45-4.132 4.127-8.576 8.536-12.02 13.281-.823-3.02-1.787-6.05-2.483-9.06-.057-.127-.102-.267-.138-.416-.142-.594-.234-1.152-.317-1.729-.002-.015-.007-.032-.011-.047.002 0 .004 0 .004 0-.029-.206-.062-.409-.088-.625-.113-.917.709-1.695 1.491-1.958 2.544-.854 5.354-.927 7.841-1.965 1.461-.609-6.479-8.961-7.02-9.549-3.571-3.89-7.05-8.02-11.194-11.325-1.101-.876-2.148-1.705-3.125-2.591-.002 0-.007 0-.007-.002-.055.045-.104.094-.155.141-2.144 6.259-8.632 11.366-12.565 16.293-.566.709-1.155 1.43-1.744 2.155-.468.82-.929 1.621-1.385 2.379-2.37 3.949-5.136 8.379-8.448 11.917-.573 1.028-1.212 2.027-1.945 2.99-.19.588-.708 1.039-1.316 1.264-.412.83-.846 1.65-1.321 2.446-.692 1.237-2.863 1.408-3.508 0-3.141-6.888-8.438-11.624-13.145-17.366-4.167-5.086-7.987-10.431-12.1-15.564-.002-.002-.004-.007-.006-.011-4.145 6.138-8.227 12.417-12.02 18.748-2.474 4.128-4.354 8.55-6.973 12.604-1.805 2.792-3.837 5.383-5.738 8.08-.623.265-1.271.508-1.927.748-5.965.891-12.06.676-18.01 1.766.014-.486.022-.987.032-1.495-.156-.258-.271-.562-.303-.922-.788-8.516-1.461-17.08-1.616-25.644-2.358.021-4.719-.033-7.08-.065-.605.13-1.207.278-1.808.465-4.204 1.305-8.497 1.721-12.854 2.227-.488.057-.885-.039-1.188-.238-1.536.554-3.01 1.126-4.387 1.687 1.99-2.985 4.055-6.416 6.218-9.769-.029-.368.061-.763.312-1.165 2.535-4.04 5.922-8.103 7.529-12.625.437-1.23 1-2.34 1.615-3.414-4.562 2.358-10.06 3.805-15.12 5.183-5.062 5.952-12.454 10.257-18.11 15.453-.04.037-.078.078-.117.116-.148.019-.296.043-.441.062-.559.724-1.534 1.118-2.562.54-1.369-.769-2.692-1.625-3.938-2.578-.242.137-.469.305-.647.521-3.82 2.528-6.872 6.197-10.439 9.07-1.079.868-2.145 1.725-3.197 2.583-3.596 3.32-7.259 6.66-10.867 10.08-4.5 4.593-9 9.182-13.387 13.882-5.293 6.196-9.956 12.88-13.377 20.39.422.329.841.66 1.262.995.236.127.415.316.565.525.264.197.521.406.79.6 1.665 1.248 1.046 3.559-1.024 3.786-11.869 1.308-23.798.857-35.52-1.426-1.38-.271-1.667-1.788-1.244-2.893-.007-.065-.021-.129-.021-.193.009-1.922.076-3.788.34-5.668-1.821-9.216-.977-18.965-1.913-28.315-.192-1.927-.383-4.327-.035-6.438-.099-.19-.205-.371-.308-.556-2.771.002-5.542-.043-8.312-.186-1.136 1.657-.434 5.693.238 8.232.11.051.222.104.333.166.007.371.026.73.038 1.101.023.066.046.146.068.206.172.506.141.946-.014 1.314.379 9.272 1.661 17.635 1.661 27.21.001 5.333-.161 10.02-1.098 13.979 4.709-.104 9.465.324 14.19.235 5.587-.104 11.174-.158 16.762-.188 8.921-1.014 17.979-1.586 26.707-.509 1.1-.183 2.195-.375 3.296-.553 3.289 3.169 6.669 6.404 10.139 9.559 1.435 1.299 2.671 3.034 3.955 4.683 3.852 3.246 7.916 6.249 11.55 9.773 4.54 4.4 9.432 8.402 14.1 12.664.052.085.104.171.156.255.339.077.676.246.981.564 3.274 3.381 6.979 6.261 10.726 9.09-.146-4.271-.258-8.58-.201-12.845.032-2.327.438-4.577.8-6.835-.521-8.02-1.357-16.05-.573-24.08.042-.432.196-.786.413-1.074-.088-1.82-.162-3.645-.187-5.47-.006-.337.058-.628.173-.877-.015-.292-.024-.585-.038-.88.353-.023.718-.041 1.069-.061.422-.158.896-.184 1.341-.078 15.762-.953 32.19-1.602 48.844-1.602 10.483 0 20.904-.455 30.998.293 26.956 1.991 54.78 5.202 83.22 3.538.786.023 1.572.064 2.358.09.338-.474.865-.781 1.563-.71 2.685.289 5.396.431 8.118.504 5.538-.268 11.03-1.483 16.655-1.363 4.139.089 8.269.352 12.398.6.079-.016.157-.03.237-.048 2.136-.497 4.065-.754 6.277-.664 7.964.325 16.234.798 24.18.04 1.472-.141 3.495-.615 5.53-.886-.045-.191-.112-.381-.223-.553m-266.38 21.2c-1.623-1.054-3.259-2.261-4.875-3.511-2.05-1.591-4.34-3.196-6.141-5.07-1.114-1.153-2.129-2.549-3.218-3.802-1.146-1.316-14.526-14.14-14.526-14.14 7.374-12.787 16.256-24.921 24.859-36.27-.517 13.298.407 25.32 2.374 36.37.759 3.05 1.538 6.481 1.563 9.57 0 .002 0 .007 0 .009.892 5.52 1.528 11.295 1.618 17.612-.41.097-1.089-.411-1.654-.777m16.739 22.732c-.218-.117-.422-.253-.597-.425-.062-.062-.168-.134-.223-.167.032.021.082.053.188.113-.286-.171-.51-.408-.677-.678-.907-.405-1.182-1.607-.861-2.487-.006-.01-.012-.021-.021-.034-.264-3.433-.619-6.859-.562-10.321.069-4.433.194-8.862.268-13.295-.06-4.159.048-8.341.286-12.396-.208-3.046-.436-6.091-.651-9.14-.148-2.077-.211-4.193-.265-6.319-.875-5.775-1.809-11.55-2.251-17.372-.48-6.34-.733-12.875-1.808-19.15-.52-3.04-1.137-6.02-1.552-9.04 2.629 2.8 4.935 5.822 6.826 9.202.561.998 1 2.068 1.354 3.188.026.094.054.184.08.271.048.156.09.312.132.469.104.383.197.768.293 1.152.896 3.97.949 8.357 1.216 12.278-.171.293-.265.659-.221 1.11.873 9.197 1.402 18.415 1.863 27.639 0 .879.002 1.761 0 2.639.046-.004.09-.006.136-.009.183 3.73.357 7.465.54 11.195.334 6.876.165 13.769-.183 20.64-.257 5.091.645 10.181.552 15.235-1.524-1.103-2.763-2.638-3.862-4.305"/><path fill="#00a1d9" d="m432.09 594.78c-5.211-4.897-10.437-9.778-15.586-14.745-8.788-8.477-16.427-17.753-24.696-26.691-8.345-9.02-17.727-17.02-26.1-26.02-3.708-3.985-7.316-8.05-10.829-12.193-.209-.165-.424-.325-.633-.49-.604-.475-1.154-.948-1.725-1.346-.684-.004-1.369-.006-2.056.008-.864.252-1.776.433-2.825.456-1.297.025-2.604.156-3.903.336-.189.051-.381.091-.567.15-1.894.572-3.715 1.124-5.607 1.385-.01.021-.01.037-.019.057-2.818 6.1-6.857 11.535-9.675 17.62-.807 1.743-1.58 3.494-2.353 5.24-2.051 5.719-4.065 11.444-6.57 17.03-2.01 4.474-3.604 8.974-5.057 13.657-.998 3.215-2.429 6.229-3.934 9.217-.062.201-.128.401-.189.604-.86 2.887-1.34 5.854-2.156 8.742.576.517 1.167 1.01 1.782 1.472 1.652.989 3.355 1.896 5.066 2.78 1.969.674 3.932 1.358 5.987 1.589 5.542.629 11.08.44 16.649.557 12.459.25 25.23 2.807 37.514 4.711 11.08 1.713 22.07 4.388 33.29 4.921 2.084.101 4.379.588 6.677.983 1.854.074 3.696.22 5.52.496.681-.027 1.351-.09 1.993-.231 2.973-.649 5.744-1.867 8.588-2.929 2.109-.896 4.286-1.591 6.41-2.438.007-.012.017-.02.021-.03-1.995-1.195-3.812-3.01-5.01-4.901m-75.56-65.47c.043.023.091.034.138.062 1.364.824 2.621 1.767 3.823 2.766 7.798 7.537 14.88 16.264 21.686 24.478 4.795 5.79 8.952 11.994 14 17.582 1.814 2.01 3.723 3.923 5.654 5.816-1.452-.019-2.912.006-4.388.024-5.541.073-11.04-.709-16.585-.507-.268.01-.509.067-.725.164-6.344-.809-12.72-1.349-19.11-1.726-5.114-.591-10.614-.868-15.984-.697-3.35-.11-6.701-.21-10.05-.31 1.341-2.208 2.367-4.698 3.738-6.839 2.463-3.843 3.376-8.366 4.631-12.697.708-2.433 1.608-4.848 2.627-7.246.8-1.38 1.594-2.76 2.358-4.152.308-.558.597-1.123.885-1.688-.129-.129-.231-.281-.317-.446 2.472-4.946 5.214-9.811 7.62-14.584m-28.916 16.284c2.636-6.68 4.383-13.653 7.353-20.22.899-1.988 2.01-3.891 3.479-5.42.006-.008.011-.019.018-.028.217-.447.455-.896.759-1.332.283-.413.679-.668 1.105-.796.904-.733 1.966-1.286 3.266-1.493.438-.07.831-.007 1.171.14 1.764-.573 3.865-1.049 4.822-.322-1.18 3.045-2.479 6.06-3.516 9.107-1.784 5.262-3.535 10.654-5.825 15.726-.845 1.867-1.848 3.636-2.896 5.379-1.783 3.864-3.751 7.647-5.429 11.55-.71 2.356-1.568 4.667-2.527 6.957-.101.239-.234.435-.381.609-.025.1-.046.195-.072.293-1.197 4.606-2.792 9.05-4.355 13.54-2.145.556-4.223 1.326-6.297 2.098-.258.036-.515.073-.771.11-2 .314-3.796 1.104-5.642 1.8 5.611-12.419 10.712-24.982 15.738-37.698m96.77 54.51c-3.668 1.879-12.261-.188-16.493-.349-11.635-.432-23.25-3.391-34.745-5.169-10.362-1.604-20.766-2.929-31.19-4.068-4.778-.524-9.551-.425-14.35-.456-5.081-.034-9.481-1.672-14.195-2.752 1.998-.555 3.943-1.268 5.89-1.991.309-.059.618-.116.937-.159.841-.114 1.662-.234 2.476-.372.089.096.177.192.287.274 9.128-.336 18.02 2.925 27.33 3.856 12.813 1.287 25.611 2.446 38.425 3.838 11.649 1.263 23.25 2.182 34.919 3.175.935.081 1.858.188 2.787.287.059.07.112.144.185.205.756.637 1.582 1.173 2.417 1.696-1.509.507-3 1.123-4.682 1.985"/><path fill="#00a1d9" d="m549.75 154.2c.508-4.153.992-8.323 1.958-12.378 1.163-4.904 2.053-9.891 1.822-14.941-.057-.067-.097-.136-.156-.204-6.04-.686-12.219-1-18.258-1.244-2.268-.091-4.736.345-6.927-.316-10.175-.772-21.413-.604-31.91-.236-9.229.322-18.02-.97-26.613-2.146-24.443-3.343-48.929-7.957-75.932-8.346 1.382-.296 2.86-.563 3.714-.629 7.05-.552 14.06-1.542 21.11-2.157 5.656-.493 11.396-.469 17.13-.447.277-.166.611-.272 1.018-.273 3.02-.013 6.04-.093 9.06-.172 4.563-1.377 9.438-.754 14.11-1.762-3.247-2.126-6.216-4.746-9.298-7.172-7.372-5.803-15.05-10.609-23-15.549-14.837-9.218-29.336-18.961-44.04-28.384-3.104-1.647-6.21-3.298-9.312-4.958-.287-.072-.572-.205-.843-.423-.036-.031-.078-.056-.116-.087-3.959-2.124-7.905-4.265-11.814-6.458-.309-.172-.611-.354-.91-.533-.769-.763-1.587-1.47-2.398-2.184-2.299-1.211-4.579-2.423-6.757-3.708-3.933-2.318-7.604-4.765-11.681-6.84-2.458-1.252-4.383-3.188-6.718-4.535-.124.132-.243.269-.332.443-.087 3.593-.217 7.183-.308 10.771.32 4.661.9 9.396.512 13.994.154.267.367.476.623.624-.026 2.693.031 5.312.493 7.78.062.177.098.361.115.545.067.312.114.633.198.94-.017 0-.032.004-.047.005-.065-.038-.146-.058-.223-.087-.212.744-.824 1.316-1.854 1.207-10.116-1.059-20.662-.542-30.904-.464 0 .01 0 .021 0 .034-.397.654-.496 1.513-.073 2.134.037.052.075.102.11.155.165 8.383.649 16.849-.271 25.18 1.497 1.785 2.913 3.64 4.396 5.438 6.02-.399 12.306.37 18.471 1.399 5.415-.01 10.843-.181 15.918 1.137 1.484-.013 2.968.032 4.452.082.993-.075 2-.119 2.984-.105-.172.371-.234.813-.116 1.315.883 3.765.688 7.693.22 11.627.035.75.105 1.498.159 2.248.045.582-.236 1.11-.66 1.484-.019.135-.037.271-.058.406-.266.021-.535.04-.798.06-.171.047-.342.082-.517.082-.086 0-.165-.015-.246-.025-1.03.077-2.061.153-3.104.23-9.108-.352-18.219.007-27.337.049-2.279.009-4.557.039-6.833.06-.02 0-.032-.005-.052-.005-1.455.004-2.912.046-4.368.053 0-.014.002-.028.002-.042-.77 0-1.541.013-2.311.004-1.342-.017-2.671-.124-3.995-.266-.051-2.02-.01-4.04.009-6.068.022-2.432.116-4.86.249-7.287-.054-3.06-.077-6.126-.108-9.192-.39-.319-.622-.822-.533-1.518.112-.895.191-1.794.272-2.692-.067-.131-.119-.273-.146-.436-.286-1.947-.271-3.771-.084-5.65-.042-.333-.092-.668-.14-1-.063.005-.121.019-.188.019-14.11.052-28.2.795-42.31.847-.065 0-.12-.013-.183-.018-2.191 1.648-4.519 3.105-6.829 4.631-3.131 2.07-5.472 4.655-7.883 7.362v2.657c.095.121.197.234.313.334.037 2.631.066 5.275-.129 7.891.033.209.036.423.014.633.292 3.072.104 6.131-.028 9.23-.058 1.325-1.101 2.02-2.147 1.946-.371.131-.773.151-1.156.013-.179-.064-.363-.107-.542-.162-6.979.163-13.833.271-20.812.127-.157.19-.287.398-.398.614-.125 11.02-.14 22.04-.331 33.06-.002.101-.021.188-.032.28.135.228.304.423.498.578.015 5.19.119 10.492.119 15.84 0 8.261-.579 17.07-1.169 24.665 5.778.751 12.67.803 19.1.585.042-.218.481-.04.683-.098.335-3.891.496-7.954.877-11.797-2.113-2.112-4.86-4.605-7.506-6.531-.908-.662-2.331-1.195-2.34-2.438-.011-1.617 2.02-2.794 3.704-3.216 2.01-.504 4.433-.312 6.337 0 .387-5.293-.253-12.137-.778-18.13-.233-2.651-.546-5.581-.781-8.676-.231-3.065-.725-6.482.195-8.773.024-.06.062-.112.09-.17h7.635c.027 2.792.072 5.58.052 8.37.085.231.178.449.27.669 1.265-.046 2.583.207 3.91.61.438.073.878.156 1.312.252 2.513.329 4.938.907 7.323 1.632.461.039.923.085 1.386.12.559-.438 1.322-.564 2.11-.036.115.079.237.141.354.213 2.936.198 5.822.379 8.515.679 2.297.256 4.582.61 6.866.96.375-.021.746-.039 1.114-.052 4.094-.138 8.239-.233 12.273.443 3.216-1.659 6.426-3.33 9.579-5.106-.114-2.185.159-4.367.045-6.556-.044-.875.382-1.449.973-1.737 0-.013 0-.023 0-.036.037.001.071-.014.106-.014.266-.11.551-.17.845-.17.208-.083.412-.174.585-.318 8.604-.078 17.206-.329 25.812-.454 7.092-.103 14.316-.576 21.518-.68.449-.312 1.058-.462 1.612-.371-.002-.062-.002-.123-.004-.185.064.086.147.158.216.243.31.088.595.247.803.51 1.615 2.023 3.746 3.539 5.491 5.435 2.372.023 4.745.057 7.12.062.202 0 .385.032.556.078 3.285-.332 6.576-.615 9.797-.614 6.797.004 13.565.668 20.362.675.651-1.68.546-3.944.188-6.202 15.471.619 30.716 1.966 46.1 3.01 9.149.624 18.438 1.325 27.845 1.636.008.026.022.049.03.073 4.738-.181 9.593-.419 14.168.31.657.105 1.397.271 2.182.458 4.167-.492 8.354-.622 12.49.192.102-.041.206-.072.309-.114 8.623.468 17.236 1.389 25.87 1.598 2.723.066 10.397.806 15.293-.767-.9 11.597-3.93 23.04-2.472 34.706-.002.025-.004.05-.004.074.004 0 .009-.001.013-.001.024.181.036.361.062.542.138.993.852 1.435 1.638 1.458.024.289.11.553.268.782.002.198-.011.383-.007.582.23.028.473.042.716.06.636.354 1.451.415 2.062.025.021-.013.046-.023.067-.036 1.778-.141 3.45-.634 4.325-1.589.715-.271 1.372-.599 1.867-1.082 2-1.954 2.073-4.94 2.432-7.562.521-3.821 1.352-7.511 2.331-11.164.091-.496.187-.992.288-1.487m-277.3-22.691c-.078 3.171-.368 6.131-.381 9.365-7.868-.325-15.542-2.231-23.315-3.428-.144-.35-.261-.727-.373-1.109.247-.605.444-1.236.523-1.93.385-3.346.354-6.714.632-10.07.624-7.561 2.635-14.527 1.631-22.13 6.489.332 13.276.364 20.11.35.994 4.203 1.536 8.861 1.658 13.939-.389 3.858-.479 12.623-.488 15.01m8.385-38.896c-5.958.129-11.915.305-17.873.533-3.635.137-7.248.502-10.854.897-.735.115-1.473.234-2.206.344-2 .402-4.01.681-6.03.824 1.425-2.124 3.979-3.792 5.788-5.284 3.742-3.086 5.29-4.285 10.362-4.094 10.685.405 21.352-.902 32.04-.933-3.541 2.735-7.684 4.72-11.14 7.62-.036.03-.057.062-.09.093m9.731 49.32c-.363.331-.761.496-1.154.539-.684.411-1.416.762-2.151 1.139-.018-.804-.018-1.608-.025-2.412-.222-.465-.256-.999-.016-1.502-.011-4.365.13-8.722.341-13.08.188-.293.306-.655.3-1.099-.021-1.445-.145-2.885-.213-4.327-.006-.698-.029-1.396-.041-2.104-.004-.276-.06-.516-.144-.734.1-3.02.073-6.05.229-9.08.017-.327-.032-.612-.131-.859.005-4.658-.168-9.341-1.13-13.824-.076-.358-.162-.681-.251-.993 2.762-1.921 5.713-3.52 8.377-5.522-.146 1.956-.304 3.911-.458 5.869.21.305.321.704.279 1.197-.946 10.968 1.176 22.245-.14 33.11-.009 2.854.524 5.657.455 8.532-.079 3.216-2.119 3.333-4.127 5.154m45.42-109.79c2.02 1.067 3.756 3.01 5.75 4.298-.488 3.81-.572 7.546-.013 11.397.039.267.12.492.23.682-.163 4.284-.416 8.564-.57 12.848.149.756.289 1.516.379 2.291.077.658-.126 1.146-.479 1.468-.009.413-.023.826-.027 1.238v.692c-.502-.462-.913-.956-1.288-1.462-.784 0-1.61-.389-2.02-1.153-.239-.159-.469-.358-.646-.661-1.143-1.927-1.167-4.052-.936-6.194-.193-.935-.339-1.878-.358-2.841-.056-2.939.183-5.864.227-8.801 0-.064.015-.12.02-.179-.005-.092-.016-.182-.02-.273-.074-1.705.133-3.53-.151-5.214-.059-.345-.033-.659.046-.945-.289-2.384-.444-4.821-.143-7.191m-27.24 62.57c-.981-1.091-1.986-2.151-3.01-3.212-2.721-2.83-1.668-7.181-1.55-10.58.13-3.698-.141-7.451-.316-11.185 1.056 1.39 2.172 2.73 3.329 4.04.22.315.447.625.649.951.124.2.271.355.423.489-.18 5.891.446 11.803.485 17.723.005.592-.007 1.183-.013 1.775m9.303-24.289c-2.65.088-5.3.17-7.951.236-.216-.273-.448-.532-.678-.795h-.072c-.818-1.052-1.635-2.102-2.389-3.2.057-.09.129-.168.198-.246 1.209.277 2.501.296 3.717.343 3.045.118 6.068-.062 9.108-.139.313.256.726.42 1.244.42h2.934c.335 0 .625-.067.875-.182 2.712.241 5.432.355 8.152.182.05-.003.092-.019.14-.025.274.153.6.25.989.25.472 0 .853-.135 1.153-.349.094.146.196.285.25.452.143 0 .283.002.426.002.658.987 1.476 1.922 2.489 2.797.389.337.813.49 1.233.513-.27.142-.598.233-.983.251-6.561.304-13.232-.174-19.795-.458-.35-.013-.697-.033-1.04-.052m37.772 65.744c-.185.055-.379.097-.602.097-.251 0-.47-.044-.672-.112-.342-.042-.668-.166-.925-.394-.401-.157-.746-.43-.92-.838-.08-.192-.423-1.017-.17-.423-.056-.137-.105-.279-.143-.42-.331-.23-.604-.575-.738-1.079-.24-.895-1.171-1.595-1.59-2.425-.377-.745-.446-1.539-.485-2.358-.121-2.479.033-4.957.057-7.436.002-.364.091-.672.228-.935-.025-.136-.061-.264-.059-.419.14-6.184.854-12.342.678-18.532-.077-2.651 3.847-2.573 4.062 0 .094.876.146 1.757.166 2.639 1.039 4.085-.258 9.382.287 13.655.096.746.191 1.487.289 2.231-.128 1.946-.208 3.892.02 5.845.02.179.062.344.118.498-.086 3.32.719 6.575.389 9.912-.017.176-.01.339.01.494m23.18-29.79c.648 5.577 1.909 11.07.938 16.719-.121.708-.49 1.128-.955 1.327-.002.007-.002.015-.002.023-.012.054-.032.11-.042.164-3.752-.164-7.703-.354-11.396.019-.425-2.826-.439-5.771-1.14-8.541.146-.272.24-.594.236-.979-.065-6.97-.582-13.863-1.523-20.764 0-.018 0-.036 0-.055-.002 0-.004.001-.006.001-.024-.181-.041-.36-.066-.541-.041-.283-.142-.505-.268-.702-9.987-.235-19.911-1.249-29.848-2.262-5.176-.127-10.501-.12-15.497-.52.843-4.812 1.593-9.718 2.339-14.623 5.305.405 11.15.836 16.561.605 3.02-1.084 6.308-.544 9.522-.745 3.973-.25 7.871-.43 11.784-.257.244-.043.497-.088.738-.131-.154-.917-.251-1.844-.261-2.769-.481-2.707-1.189-5.127-1.153-8.01.018-1.667-.078-3.336-.693-4.857.075-1.018.134-2.058.157-3.136 24.651 16.07 50.07 31.368 76.51 45.656-.187-.061-.385-.094-.594-.091-2.061.03-4.081.271-6.086.596-.191.154-.403.28-.652.346-7.242 1.949-15.806 1.508-23.289 1.923-8.443.468-16.905.696-25.311 1.607"/><path fill="#00672f" d="m109.52 177.22c-7.417-3.33-15.01-6.507-22.16-10.43-1.635-.651-3.25-1.342-4.82-2.156-.616-.318-1.259-.588-1.904-.856-.148-.037-.3-.101-.448-.19-1.012-.423-2.01-.872-2.897-1.526-.083-.062-.15-.133-.222-.201-.422-.207-.844-.414-1.258-.643-2.309-1.267-4.481-2.716-6.61-4.23-1.242-.627-2.494-1.239-3.75-1.848-.009.013-.014.028-.023.042 3.884 7.514 9.15 14.04 14.185 20.855 4.812 6.513 9.556 13.07 15.187 18.889 1.195-.989 2.582-1.705 4.03-2.321-.202-.257-.41-.514-.578-.746-2.575-3.543-4.675-6.902-6.921-10.431-1.467-2.303-3.153-4.256-3.803-6.726 9.617 3.801 18.506 10.551 26.516 16.475 1.373 1.014 2.911 2.602 4.55 2.725 4.126-2.793 8.624-5.096 12.637-8.03 0-.001.001-.004.002-.005-7.398-2.434-14.587-5.454-21.707-8.651"/><path fill="#00672f" d="m583.04 178.62c-.231.108-.447.26-.631.442.889 3.189 1.038 5.724-1.114 9.258-2.946 4.836-8.995 6.944-13.801 9.23-7.887 3.752-18.11 9.986-27.68 11.334-11.744 4.236-25.311 7.226-39.34 9-2.17.274-4.358.821-6.434.878-2.188.061-3.155.143-4.874.975-1.174.567-2.423 1.135-2.242 2.047.173.867 3.604 1.15 5.167 1.366 5.986.825 13.164.594 18.522-.194.521-.078 1.024-.167 1.533-.252.328.119.694.168 1.105.096 7.437-1.326 13.846-2.646 20.508-5.21 5.665-1.398 11.275-3.355 16.79-5.54 3.237-.843 6.563-1.861 9.58-3.249 1.531-.706 2.895-1.601 4.21-2.549.325-.14.651-.28.977-.42 1.388-.549 2.764-1.129 4.121-1.754.337.119.574.293.643.55.229.887-1.064 2.181-1.757 2.925-.889.955-1.892 1.879-2.438 2.337-5.197 4.381-11.142 8.615-16.377 12.284-3.07 2.153-7.17 4.457-10.362 6.756-2.729 1.374-5.725 2.589-7.664 4.922-1.248 1.504-1.608 4.409-1.095 6.259.198.723.376 1.45.564 2.176-1.22 2.874-5.918 3.036-9.228 3.869-6.977 1.757-13.947 2.947-19.665 5.55-.148.02-.299.033-.447.059-.585.037-1.171.091-1.75.191-1.709.293-3.323.917-4.972 1.435-.189-.13-.368-.287-.523-.498-1.631-2.24-4.189-3.345-6.306-5.03-1.808-1.435-3.524-3-5.118-4.672-2.05-2.142-4.202-4.458-5.604-7.129-.514-.386-1.073-.707-1.652-.991.097 3.384.407 6.684 1.083 9.939.018.045.032.091.046.136-.032.084-.067.167-.086.257-.314 1.585-.272 3.03.048 4.611.191.938.488 1.825.719 2.728-1.856-.543-3.707-1.118-5.614-1.388-7.445-2.629-15.908-4.75-24.346-6.174-1.688-.285-3.46-.836-4.972-.779-2.13.078-4.482 1.307-5.479 2.775-1.871.752-1.647 4.01.704 3.902.93-.045 1.847-.022 2.763.032 2.088.323 4.128.637 6.106 1.088 10.851 2.476 19.21 7.429 28.878 11.06.736-.042 1.446.036 2.168.299.235.085.443.208.636.352 6.147 2.576 12.613 3.396 18.829 5.713 3.563 1.327 7.295 1.772 10.856 2.873 2.161.435 4.312.955 6.471 1.423.05-.04.104-.07.148-.114-2.254-1.915-4.475-3.9-6.397-6.147-1.715-2.01-3.373-4.603-5.704-5.917-1.721-.971-1.027-3.043.471-3.632-.036-.053-.074-.108-.104-.164 9.777-1.72 19.576-5.328 31.15-4.902 3.266-.188 6.532-.317 9.791-.335 1.72-.007 1.911-7.945 2.895-9.859 3.525-6.864 9.04-14.27 14.915-19.28 6.638-5.661 15.24-9.89 20.691-16.783 6.141-7.754 5.302-19.626.695-28.17"/><path fill="#00672f" d="m489.07 207.75c-1.214-3.065-3.117-5.467-5.432-7.383-2.605-3.03-5.892-5.526-9.772-6.192-1.483-.765-3.077-1.413-4.854-1.983-2.848-.91-6.354-2.042-9.446-1.49-.205-.039-.403-.083-.618-.109-5.853-1.147-11.341-.898-16.572-.292-5.394.625-10.62 1.275-15.598 2.241-9.829 1.907-17.195 6.709-23.301 12.381-5.762 5.353-11.812 12.762-13.939 21.739-.99 4.182-1.385 11.142-.293 16.184.484 2.236 1.456 4.819 2.437 6.531.375.651.878 1.396 1.45 2.088 6.083-2.981 12.77-4.259 19.14-6.462 0-.016-.005-.032-.005-.05-.089-.159-.186-.319-.274-.478-3.034-2.685-6.02-8.07-5.409-12.287-.101-.579-.169-1.159-.19-1.744.125-.622.239-1.239.336-1.849.026-.58.067-1.157.116-1.731-.022-.128-.054-.251-.099-.363.071-.369.165-.737.259-1.106.775-6.221 3.03-12.09 7.624-16.479.987-1.376 2.083-2.625 3.375-3.701 3.408-2.845 7.709-4.682 12.755-5.837 5.907-2.516 13.215-3.829 20.223-3.66.593-.018 1.181-.013 1.772.005.089-.014.175-.034.271-.041 2.349-.143 4.558.161 6.884.451.169.022.322.06.47.109.267.031.524.083.789.116 1.143-.04 2.176.063 3.134.27.269-.027.562.007.887.141.604.251 1.191.48 1.783.703.941.258 1.864.539 2.729.878.307.119.56.285.763.479.169.035.344.088.515.177 4.616 2.385 7.477 5.743 9.523 10.275.692.935 1.193 2.01 1.448 3.275.403.507.866.99 1.372 1.141 2.137.639 6.27-.778 6.628-2.438.187-.897-.465-2.452-.884-3.509"/><path fill="#00672f" d="m133.37 215.25c1.156-.351 2.277-.772 3.383-1.23-.099-.224-.194-.45-.298-.672-.953-1.742-1.884-3.491-3.188-4.978-.228-.014-.465-.002-.727.073-2.922.858-6.3.842-9.326 1.306-2.439.375-4.933.626-7.428.85-3.585-.157-7.249-.002-10.909.084-3.941-.346-7.826-.791-11.771-1.499-2.763-.495-5.266-1.419-7.75-2.449-.006-.05-.021-.098-.024-.148 4.241-.661 8.454-1.607 12.444-3 3.489-1.22 8.633-2.042 11.182-4.946.095-.106.168-.218.238-.33.173-.077.351-.143.524-.223.116-.291.181-.6.149-.918.114-.301.051-.596-.277-.859-.121-.217-.248-.42-.377-.612.012-.32-.113-.576-.326-.784-.273.116-.549.216-.822.326-.638-.249-1.377-.16-1.98.529-.13.146-.272.287-.432.423-16.621 6.205-34.428 7.292-52.11 7.466.653.367 1.312.74 1.99 1.107 3.854 2.081 8.215 2.989 12.189 4.856 9.69 4.556 20.04 5.555 30.424 7.101 8.097.485 16.49.432 24.948-.2 2.509-.187 5-.315 7.394-.54.955-.249 1.92-.441 2.881-.731"/><path fill="#00672f" d="m258.8 245.67c-10.979.915-18.494 5.802-27.687 8.58-6.56 1.89-13.145 3.752-20.862 4.484-4.04.456-8 .637-11.86.589-.306.251-.682.446-1.165.501-6.06.708-11.917-.043-17.831-.824-2.252-.08-4.5-.299-6.746-.747-.04-.003-.08-.006-.119-.01-3.532-.321-6.75-.915-9.716-2.433-1.771-.407-3.531-.9-5.273-1.525-6.513-2.331-12.238-7.225-17.699-11.323-2.185-1.64-3.839-3.842-5.552-5.962-.209-.25-.417-.505-.623-.764-2.144-1.694-4.221-3.444-6.253-5.271-.079-.07-.12-.146-.182-.219-2.537.697-4.983 1.73-7.407 2.808-.021.069-.022.146-.038.218 1.479 2.024 3.063 4.052 4.731 6.06 4.03 4.114 7.812 8.35 11.793 12.305 5.56 4.987 11.615 9.353 17.932 12.47 9.421 4.651 20.783 5.402 31.839 5.287 3.897-.425 7.705-1.187 11.25-2.32 5.441-1.115 10.524-3.055 16.229-4.948.385-.134.673-.348.894-.603 5.708-1.527 11.14-3.33 16.657-5.05v-.097c7.778-2.879 16.447-5.354 25.05-7.701 2.725-.743 5.848-1.118 7.505-3.314-1.595-.543-3.329-.325-4.871-.197"/><path fill="#00672f" d="m477.59 280.9c.104-3.196-1.367-5.582-1.896-8.546-.933-2.411-1.941-4.76-2.908-7.183-.004-.007-.006-.014-.011-.021-2.81-.516-5.584-1.224-8.383-1.808-.217.201-.409.42-.576.659-.046 3.236.155 6.72-.293 9.553-7.4-3.958-15.09-9.25-23.1-13.06-.662-.314-1.385-.691-2.076-.987-1.883 1.361-3.756 2.727-5.478 4.293 1.371 1.187 3.2 2.188 4.823 3.323 10.379 7.276 20.709 14.74 29.831 23.397.394.373.854.88 1.334 1.409 3.636 3.464 6.919 7.262 10.276 10.996.021-.009.041-.023.062-.033-.275-5.377-.513-10.726-.832-16.09-.492-1.944-.835-3.917-.769-5.902"/><path fill="#5b1313" d="m364.32 282.28c-3.11 1.153-5.438 3.604-8.994 4.063-.878.115-1.757.184-2.635.234-1.344.275-2.674.363-4.01.363-.664.059-1.33.125-1.994.184-1.354.354-2.718.674-4.134.739-2.104.095-4.207.091-6.312.066-5.696.389-11.404.705-17.16.949-.021 0-.036-.004-.058-.004-10.878.596-22.08.837-33.615.665v-.098c-3.44-.002-6.71-.178-9.846-.487-10.731-.779-20.12-2.799-28.28-6.218-1.062-.312-2.124-.656-3.178-1.084-.815-.33-1.583-.747-2.321-1.208-.225-.051-.453-.146-.68-.304-2.229-1.562-4.478-3.101-6.727-4.636-2.01-.976-3.978-2.029-5.705-3.433-2.677-2.177-4.107-4.946-4.702-8.08-.32-.064-.654-.058-.968.027.121 3.225.537 6.557 2.544 9.171 2.12 2.765 5 4.697 7.329 7.262 2.535 2.794 3.626 6.444 4.426 10.125 1.533 3.344 2.753 7.145 2.876 11.539.318 11.515-6.974 13.475-16.281 15.403-2.456.695-4.904 1.399-7.408 2.047-5.461 1.787-11.466 3.361-18.13 3.705-7.05.359-13.992-.229-20.571-1.172-6.787-.97-12.429-2.422-17.23-4.727-.115-.029-.232-.061-.349-.111-.843-.369-1.606-.828-2.337-1.33-.439-.262-.888-.512-1.313-.791.022-.047.025-.104.045-.152-.854-.688-1.672-1.426-2.49-2.165-1.776-1.138-3.438-2.438-4.909-4.03-1.496-1.623-2.246-3.643-2.865-5.722-.034.002-.067.015-.103.019-1.01 4.03-5.091 7.878-8.349 9.438-.334.158-.659.211-.968.197-.494.281-1.014.52-1.576.654-.136.032-.272.053-.407.079-4.624 1.792-11.688.33-15.2-1.065-.387-.154-.676-.39-.892-.666-.872-.519-1.478-1.199-1.675-2.082-.351-1.574.094-3.137 1.714-3.848.673-.296 1.274-.412 1.622-.503.009-.146-.005-.289-.027-.428-.256-.134-.664-.32-1.278-.591-.888-.392-1.74-.652-2.583-.83-3.429.541-6.832 1-10.324.955-2.828.082-5.07-.938-6.738-3.044-.004-.025-.001-.052-.005-.077-.949-1.048-1.345-2.507-.727-4.54.576-1.89 1.582-4.049 3.833-4.424.595-.101 1.501.038 2.426.212.012-.096.021-.191.02-.29-2.153-1.57-5.7-2.514-7.07-2.575-2.913-.129-5.807-.09-8.721.029-3.58.146-8.262.766-12.364.414-2.215-.002-4.975.027-7.658-.241-.428-.122-.854-.25-1.265-.416-1.822-.74-3.367-1.792-4.715-3-2.457-1.516-4.645-3.32-6.274-5.901-.005-.008-.008-.017-.014-.026-1.329-1.472-2.22-3.229-2.181-5.513.001-.086.033-.157.044-.237-.535-1.681-.677-3.523-.326-5.765.428-2.734 1.438-4.897 3.2-6.269-.396-.194-.864-.262-1.373-.123-7.151 1.933-12.515 8.639-11.814 16.18.021.226.081.425.154.611v.497c1.01 12.588 5.938 22.18 11.31 30.904 5.26 8.544 11.413 16.595 18.229 23.979 10 10.836 21.15 20.556 34.979 27.765.156.221.371.42.65.589 6.811 4.117 12.437 9.637 18.375 14.745.777.67 2.125.896 2.871 0 1.839-2.203 3.45-5.913 6.382-6.755 2.062-.594 1.797-3.219 0-3.917-.621-.241-1.254-.476-1.891-.708-.18-.174-.363-.348-.546-.52-1.335-2.787-5.817-5.181-8.08-6.496-.972-.926-1.919-1.785-2.824-2.576-12.9-11.25-27.958-19.744-38.897-32.559-4.367-5.115-8.369-10.939-9.458-19.11 1.117.472 2.139.572 2.73 1.656.808 1.486.385 4 1.462 5.267 1.241 1.454 5.402 2.384 7.701 2.631 3.236.349 6.794.032 9.651.683 2.634.598 4.959 1.942 6.922 3.412 2.062 1.545 4.04 2.852 6.434 3.899 10.139 4.433 25.676 2.583 34.412-1.755 6.468 7.316 15.03 11.976 28.08 12.771 4.541.277 9.01.05 13.39-.434 12.94.296 26.304-1.19 39.06-2.287 10.487-.902 20.16-3.347 26.634-12.177.115-.157.195-.314.257-.469.975-1.412 1.758-3.03 2.351-4.912 1.595-5.068 1.817-11.568 2.437-18.04 20.19.749 33.965 8.917 55.57 7.604-3.152 3.884-6.456 7.4-7.604 13.843-.411 2.301-.31 5.05.276 7.444.142.179.261.383.348.632 1.688 4.991 4.867 8.79 9.218 11.369.065.027.13.049.193.075 2.179.871 4.243 1.969 6.423 2.78.02-.053.056-.096.072-.149-1.193-1.076-2.438-2.108-3.147-3.708-1.193-2.703-1.66-5.766-1.523-8.729-.025-.133-.053-.268-.079-.401-.056-.545-.098-1.083-.08-1.612.051-1.679.321-3.168.776-4.679 2.556-8.423 9.701-12.02 16.479-16.476 7.556-4.971 15.564-9.947 24.273-14.04.562-.264 1.102-.591 1.542-.977 1.431-.849 2.667-1.932 3.569-3.366.297-.423.558-.871.729-1.377.195-.571.141-1.055-.053-1.44"/><g><path fill="#5b1313" d="m138.19 369.13c1.392-2.02 2.601-3.786 2.961-4.209.727-.854 1.468-1.685 2.22-2.497-1.948 1.963-3.719 4.295-5.181 6.706"/><path fill="#5b1313" d="m408.92 345.12c-1.229 9.1-18.272 16.04-22.11 6.288-.067-.02-.132-.047-.202-.061-.067-.015-.137-.015-.207-.025-.353.875-.677 1.744-1.504 2.438-1.183.991-2.492 2.01-4 2.447-3.084.889-6.01.251-8.586-1.562-.008-.002-.019 0-.026 0-2.334 2.948-5.124 5.562-8.457 7.303-.748.392-1.531.658-2.337.83-.79.324-1.976.49-3.216.514-.113.011-.216.039-.34.031-.187-.01-.373-.023-.562-.038-.459-.017-.913-.054-1.348-.113-.059-.005-.116-.017-.175-.022-2.558.11-5.195-.394-7.138-2.037-.681-.576-1.187-1.267-1.53-1.998-.396-.586-.591-1.245-.509-1.976-.084-1.504.518-2.954 1.845-3.876-.066-.033-.134-.062-.199-.094-3.752 1.107-6.163 3.789-9.105 5.918-.302.343-.595.691-.914 1.018-.048.051-.112.067-.165.11-.148.21-.336.405-.582.569-2.354 1.563-5.45 2.966-8.275 3.434-.32.102-.637.209-.962.292-3.111.8-6.392.12-8.369-1.802-1.306-.967-2.292-2.406-2.646-3.992-.351-1.561-.233-3.085.633-4.458.294-.469.652-.808 1.054-1.062-2.803-.881-5.711.129-8.314.688-8.557 1.837-16.708 3.919-26.22 4.68-13.191 1.053-23.904-3.188-32.951-7.8-10.17-5.185-19.728-11.627-32.854-13.843-6.579-1.111-14.242-1.512-21.739-.977-7.166.516-13.923 1.77-19.887 3.316-11.957 3.1-22.828 7.805-31.78 14.525-4.401 3.303-8.03 7.02-11.896 11.308-1.858 2.065-3.346 4.463-4.597 7.142-.152.221-.273.463-.408.697-.562 3.654-.897 6.993-.729 10.711 3.779-1.671 7.852-3.253 11.723-3.971.073-.096.142-.201.212-.299-.007-.075-.021-.146-.021-.229 0-.443.037-.884.089-1.324.065-.896.26-1.793.541-2.676-.083-.304-.113-.645-.049-1.023.371-2.262 1.649-4.246 3.294-5.838 3.03-4.584 6.955-8.401 11.583-11.217 7.809-6.117 17.189-10.904 26.21-13.535.215-.063.396-.156.561-.263 1.07-.192 2.15-.368 3.262-.5 9.122-1.085 18.19.29 25.932 2.729 4.927 1.553 9.504 3.339 13.943 5.283.154.352.438.666.887.896 4.03 2.056 7.931 4.188 10.378 8.155.625 1.014.992 1.96 1.167 2.853.796 1.813.701 3.65.006 5.343-.058 1.656-.487 3.192-2.088 4.303-1.032.715-2.213 1.16-3.445 1.42-3.417 1.843-7.536 2.304-10.347.217-1.082-.261-1.931-.912-2.299-2.197-1.611-1.242-1.739-4.152.142-5.74 2.244-1.896 4.706-1.697 7.102-.812-.868-.818-1.791-1.773-2.858-2.09-1.166-.346-2.324-.316-3.531-.314-.12 0-.219-.031-.327-.049-.45.092-.899.188-1.34.32-.773.344-1.549.855-2.331 1.613-3.104 3.01-2.891 8.129-.528 11.449 2.656 2.754 7.193 3.94 10.827 4.075.292.011.601.009.919-.004.274-.172.6-.289.989-.312 4.03-.226 7.752-2.156 11.282-3.969.17-.088.322-.197.485-.293 1.311-1.019 2.77-2.361 3.943-3.754.989-1.458 1.742-3.1 2.301-4.795.095-.281.239-.515.415-.711.118-.504.249-1.01.369-1.513.101-.414.201-.831.272-1.25.005-.033.007-.046.013-.071 0-.02 0-.029 0-.057.001-.016.002-.02.002-.033-.191-.809.113-1.452.625-1.859.02-.398.035-.796.034-1.197 1.792.451 3.644.853 5.596 1.182 8.582 1.447 18.05 1.508 27.394 1.949 4.864.229 9.814.109 13.746-.78 1.756-.397 3.688-1.069 5.654-1.657 1.085-.324 3.255-1.127 4.888-1.335.354-.198.727-.372 1.143-.514 1.058-.365 2.205.405 2.498 1.417.078.271.146.546.207.82.136.125.268.246.392.361.301 1.041.937 2.037 1.677 2.862 2.566 4.04 7.529 6.765 12.28 7.384 6.51.846 11.12-1.867 16.329-4.777.091-.023.177-.054.266-.078 5.493-1.455 9.874.365 15.4.586 5.604.226 10.285-1.322 14.916-2.438 2.276-.548 4.737-1 7.217-1.461 2.381-.444 4.84-1.476 7.212-1.462 2.253.013 3.944.807 6.238.975-4.784 5.096-10.958 8.521-16.57 12.672-11.254 8.323-22.13 17.484-35.584 23.495-6.986 3.122-14.66 4.598-24.371 5.169-4.841.279-9.54.312-14.04.682-13.58 1.106-25.505 3.882-37.24 7.02-7.77 2.076-15.675 4.01-22.521 7.02-1.596.7-3.188 1.674-4.776 2.531-3.434 1.861-5.833 3.887-8.384 6.437-.91.911-1.997 1.802-2.721 2.929h8.492c.039-.263.138-.531.331-.801 1.115-1.542 2.406-2.966 3.822-4.224.311-.375.632-.729.993-1.024.528-.434 1.17-.811 1.866-1.159 2.282-1.464 4.798-2.452 7.434-2.792.062-.025.12-.06.187-.082 8.08-2.654 16.847-.652 25.14-.524.333.006.624.078.873.197 7.733-.143 15.434-.512 22.12-1.293 9.107-1.064 18.03-3.03 26.614-4.972 8.525-1.926 16.367-4.956 23.299-8.384 14.02-6.933 26.295-15.709 37.631-25.638 2.768-2.426 5.538-4.953 8.188-7.605 4.091-4.093 8.505-7.795 12.235-12.205.136-.23.284-.449.399-.701.081-.169.193-.287.301-.412.072-.24.191-.471.357-.676.896-1.111 1.751-2.244 2.599-3.388.251-.583.469-1.179.604-1.812.659-3.118.92-5.813.64-8.777"/><path fill="#5b1313" d="m228.85 399.8c-4.448-.543-9.749-1.476-13.703-3.797-1.211-.282-2.438-.529-3.684-.711-.16.023-.333.036-.521.018-8.02-.738-13.634 5.552-14.384 13.04.851.38 1.921.258 2.543-.764 1.951-3.209 3.524-5.728 5.894-7.118.49-.109 1.057-.099 1.47-.105 1.027-.021 2.054.073 3.079.096.194.121.413.226.689.275 5.361.999 6.167 6.866 1.937 9.449-.325-.042-.646-.086-.944-.126-2.592-.337-2.559 3.73 0 4.062.093.013.191.021.286.032.414.194.895.263 1.398.141 2.242.167 4.696.015 6.41-1.426.055-.048.105-.101.162-.146 2.707-3.057 5.348-6.959 9.05-8.839.025-.137.043-.271.041-.411.28.018.558.009.837.016.734-.293 1.504-.517 2.329-.628 3.315-.451 6.093-1.041 8.51-3.57.842-.882 1.661-1.776 2.502-2.647-4.303 2.479-8.692 3.789-13.903 3.155m-9.697 7.132c-.133.148-.261.302-.386.458.383-2.271-.096-4.656-1.372-6.608 1.755.573 3.496 1.208 5.255 1.705.384.105.767.201 1.149.295-1.697 1.198-3.231 2.591-4.646 4.15"/><path fill="#5b1313" d="m212.49 405.47c-.185-1.719-1.485-2.383-2.999-2.702-1.029-.223-2.936-.497-4.347-.104-.1.232-.249.461-.47.676-1.033 1-1.279 2.613-.783 3.965.2.367.441.708.72 1.017 1.078.832 2.876.507 4.146.246 1.567-.323 3.958-1.012 3.733-3.098"/></g><path fill="#5b1313" d="m176.82 398.82c-4.255.75-9.03.718-13.941 1.072-5.924.428-11.583 2.181-16.962 3.118-5.844 1.021-12.392 1.086-19.01.878-3.247-.102-6.587-.308-9.846-.192-3.211.109-6.474.368-9.456-.393 4.562-1.344 9.137-2.334 13.55-3.997 13.1-4.936 25.453-9.593 33.926-19.01 1.285-1.431 2.812-2.894 3.412-4.876-1.461-.712-3.209-.411-4.581-.099-2.892.664-5.369 1.875-7.604 3.121-1.175.652-2.217 1.586-3.315 2.047-1.212.509-2.472.842-3.705 1.365-3.678 1.556-7.13 3.091-10.626 4.678-3.339 1.52-6.607 3.184-9.943 4.693-.214.209-.484.383-.829.49-.517.165-1.026.346-1.536.526-.576.241-1.146.498-1.729.723-.677.263-1.389.509-2.117.742-4.01 1.633-7.955 3.455-12.08 4.671-5.393 1.593-10.967 2.857-16.436 4.246 3.475 1.735 7.195 2.99 10.689 4.705 3.938 1.085 7.435 2.599 10.976 3.574 8.152 2.246 18.787 1.477 27.88.878 9.205-.604 18.261-1.89 26.322-3.803 7.166-1.7 14.11-3.54 19.398-6.92.687-.44 1.689-.903 1.757-1.853-1.238-.901-2.822-.628-4.195-.386"/><path fill="#5b1313" d="m157.43 422.01c-6.813.946-13.741 2.221-20.621 1.477-.167-.021-.324-.055-.47-.103-4.609-.141-9.298-.518-13.822-.775 2.071-2.834 5.809-4.535 8.872-6.338.988-.585 2.38-1 2.632-2.242-1.822-.589-3.688-.521-5.46-.099-2.667.639-5.562 2.45-7.994 3.804-6.283 3.49-11.646 7.428-18.452 10-.208.169-.453.291-.732.33-.118.019-.232.051-.348.073-.911.561-1.933.924-3.02 1.163-.716.329-1.44.637-2.223.795-.172.034-.333.046-.49.046-.092.038-.178.087-.271.122-.28.06-.553.08-.826.104-.238.122-.483.23-.731.322 11.866 1.507 24.29.548 36.31-.13 1.748-.218 3.484-.434 5.207-.646 3.383-.416 6.71-.624 9.944-1.168 6.192-1.047 11.715-3.211 17.255-4.974 2.893-.92 5.8-1.81 8.091-3.12 1.45-.828 2.899-1.761 3.73-3.347-5.143 2.751-10.793 3.895-16.586 4.702"/><path fill="#00a1d9" d="m506.05 163.65c-.099-1.147-.189-2.29-.267-3.433-.438-5.288-.843-10.577-.977-15.885-9.169 5.398-16.544 12.962-25.326 18.812-.265.234-.535.466-.798.699-4.872 3.531-9.44 7.326-13.442 11.525-.216.167-.435.333-.652.5-3-4.395-6.175-8.659-8.686-13.373-.039-.074-.096-.141-.146-.209-6.97 3.507-14.03 6.685-21.06 10.266-.122.063-.241.096-.358.132-.948-.838-2.049-1.528-3.141-2.198-.438-.704-1.08-1.271-1.696-1.851-.199-.255-.408-.507-.604-.763-.362-.481-.73-.958-1.117-1.396-.461-.751-.928-1.522-1.565-2.053-.24-.155-.478-.324-.731-.452-.544.205-1.085.414-1.627.626-.088.007-.168-.001-.259.013-.343.052-.611.21-.827.42-3.844 1.542-7.58 3.292-10.923 5.83-.963.732-1.908.368-2.447-.384-.02.094-.042.187-.048.282-.148.067-.297.138-.445.205.028-.221.032-.453-.019-.703-1.489-7.528-4.936-14.368-7.06-21.705-1.466-5.062-.267-10.985-2.961-15.677-.253-.438-.607-.711-1.01-.854-1.312 3.251-3.036 6.239-4.514 9.441-1.805 3.906-2.947 8.04-4.679 11.983-.126.287-.247.58-.366.87-.03.1-.056.198-.101.3-.438.991-.755 2.02-1.021 3.072.154.542.064 1.144-.39 1.679-.449 2.125-.814 4.281-1.6 6.315-1.264 3.282-3.256 6.352-4.346 9.663-.081.244-.197.444-.329.621-.104.283-.194.571-.294.855.015.47-.181.894-.505 1.225-.221.342-.527.556-.854.707-1.377-2.02-2.728-4.059-4.17-6.03-.4-.546-.539-1.122-.515-1.713-.452-.573-.627-1.362-.203-2.19 1.183-2.316 2.867-4.04 4.717-5.828 1.753-1.698 2.892-3.877 4.517-5.685-.241-.446-.638-.804-1.188-.93-4.01-.93-7.649-2.794-11.62-3.782-4.986-1.242-10.282-2.289-15.436-2.272-.361.001-.672.086-.933.221-.118-.014-.229-.037-.352-.051-4.265-.482-7.853-3.03-12.03-3.441-.307-.03-.576-.118-.812-.242-.064.008-.13.013-.192.023 1.951 3.388 3.541 6.854 5.497 10.46 2.447 4.516 5.487 8.643 8.208 12.993.46.733.348 1.875-.316 2.46-.698.614-1.195.915-2.082 1.2-.879.283-1.826-.184-2.292-.934-1.63-2.627-3.989-4.67-5.402-7.421-.65-1.262-1.277-2.536-1.915-3.804-1.384-2.01-2.773-4.03-4.187-6.096-2.636-3.854-5.822-7.869-9.835-10.71-.222-.241-.438-.477-.656-.72-1.78-2-3.165-4.101-5.314-5.65-3.266 2.955-6.278 6.06-8.617 9.86-.554.897-1.843 1.355-2.78.729-4.983-3.34-9.741-9.449-15.295-12.27-.111 1.29-.366 2.546-.648 3.801-.156 5.232-.716 10.694-1.01 16.14.029.631.052 1.264.096 1.891.37 5.346 1.143 10.614.907 15.912.052.222.09.446.146.667.167.679.006 1.248-.325 1.677-.021.188-.026.377-.049.563 2.733-1.505 5.446-3.03 8.188-4.536-.758-6.422-1.596-12.758-1.587-19.942 4.691 3.394 9.389 6.948 13.818 10.59.986.81 2.494.81 3.19-.412 2.185-3.849 3.062-8.354 5-12.361.109.135.221.272.338.386 2.595 2.596 5.563 5.553 7.701 8.677 4.563-.619 9.04.499 10.138 3.802 1.144 3.451-1.329 6.194-2.535 8.48 1.289 2.214 2.529 4.703 3.778 7.233 1.603 1.035 2.87 2.771 3.896 4.231.651.93 1.262 1.912 1.875 2.892 1.616-2.172 3.425-4.195 5.252-6.319 3.315-3.859 6.238-8.03 9.336-12.07-3.317-2.796-6.377-5.804-9.131-9.195-1.264-1.556-.114-3.862 1.979-3.395 3.921.876 7.625 2.497 11.531 3.369 2.847.636 5.63.651 8.438 1.372.253.063.461.176.646.309.078.158.179.303.291.44-2.252 1.884-4.794 3.766-6.308 6.06-.678.522-1.323 1.19-1.643 1.959-.108.046-.214.104-.32.149.049.18.088.36.134.541-.032.251-.038.507.019.773.117.571.31 1.122.53 1.662.016.068.028.135.043.203 1.122 3.237 2.92 6.117 4.914 8.892.377.857.737 1.714 1.104 2.566 1.647 2.352 3.259 4.713 4.571 7.271.043.012.081.036.124.045 1.544-2.804 1.771-6.094 2.928-9.08 1.363-3.521 3.053-6.876 4.316-10.44.018-.107.032-.22.052-.327.965-5.724 3.599-11.505 5.895-17.16 3.152 9.536 6.277 19.546 8.582 29.23.163.696.581 1.113 1.081 1.312.412 1.421.832 2.84 1.274 4.253.394.037.803-.025 1.193-.233 4.692-2.502 8.99-5.59 13.455-8.469 2.303-1.485 1.973-1.923 2.854.317.011.021.017.043.024.064.221.165.421.384.586.683 1.075 1.963 2.287 3.849 3.371 5.808.15.001.297-.022.441-.05.271-.122.542-.24.813-.364 2.176-1.372 4.223-2.882 6.23-4.451 1.79-.81 3.432-1.756 5-2.794 3.877-1.851 7.897-3.458 11.755-4.925.143-.055.271-.12.388-.193.535.534.977 1.076 1.199 1.443 2.803 4.625 4.97 9.681 7.338 14.571 2.914-2.839 6.614-4.874 10.236-6.995.39-.043.784-.214 1.144-.548.156-.144.319-.278.479-.418.236-.144.476-.285.713-.432.526-.455 1.044-.945 1.562-1.421 2.576-1.928 5.335-3.598 7.851-5.627 3.938-3.175 8.02-6.114 12.255-8.861.152.282.335.522.566.682 1.519 8.218 2.258 17.216 3 26.21 2.934-.178 5.854-.458 8.768-.159.055-8.379-.188-16.739.303-25.12.087-1.321.196-2.704.31-4.104"/><path fill="#00a1d9" d="m289.89 287.48c6.171-1.519 11.731-4.647 17.601-6.996.544-.216 1.012-.181 1.396 0 3.737-.897 7.738-1.191 11.422-2.325.21-.182.396-.4.535-.66-5.8-3.135-11.704-6.099-17.719-8.802-4.938-1.603-10.149-3.01-15.203-4.527-1.804-.459-3.579-.994-5.308-1.679-4.481-1.504-8.698-3.194-12.305-5.323 8.195-5.483 22.633-4.727 31.29-9.749-13.438-3.328-25.599-7.938-32.562-17.742-1.333 1.818-2.663 3.641-3.996 5.459 3.961 4.114 8.257 8.384 12.673 11.762-1.321.217-2.646.42-3.968.627-.213.227-.482.417-.832.542-7.954 2.838-16.182 4.01-24.29 5.934-.012.033-.03.064-.042.099 2.524 1.225 4.585 2.965 6.684 4.701 5.568 2.991 11.131 5.991 16.664 9.05 1.971.748 4.03 1.412 6.076 2.087 7.97 2.637 16.09 4.765 21.644 8.286-8.25 3.353-16.247 6.956-24.08 10.724 3.136.31 6.405.485 9.846.487 1.033-.455 2.166-.853 3.337-1.23.238-.329.605-.595 1.134-.725"/><path fill="#00672f" d="m409.13 268.35c-3.966-1.3-8.892-2.65-12.326-5.392-.359-.11-.727-.207-1.079-.331-5.632-1.962-9.07-6.239-14.02-9.343-.449-.284-.719-.658-.852-1.059-4.551-3.442-9.37-5.907-14.48-2.344-3.558-.59-7-1.471-10.375-3.265-.86-.459-1.731-.296-2.46.318-2.993 2.525-7.442 2.969-11.06 4.106-4.24 1.331-6.985 3.452-11.55.795-.506-.295-.989-.622-1.478-.94-.02-.021-.038-.041-.058-.06-3.186-3.25-5.553-6.571-8.835-9.09.062-.686-.18-1.406-.887-1.901-4.821-3.373-10.723-3.098-16.406-2.542-4.392-.09-8.39-.077-11.796-1.482-4.94-2.04-7.752-6.552-10.04-10.918 3.384 1.322 10.43 2.052 10.821-2.535.279-1.867.523-3.767 1.169-5.265 2.183.679 4.03 1.691 6.144 2.438 11.456 4.11 21.269 10.954 34.705 13.16 4.826.794 10.06 1.085 15.391 1.095.315-.293.73-.502 1.256-.545 6.448-.54 13.412.222 19.597-1.951 2.657-.931 5.198-1.863 7.817-2.466-8.094-1.364-16.367-2.843-23.02-7.708-4.774-3.492-7.979-8.289-13.539-10.831-2.365-1.082-4.752-2.12-7.168-3.067-1.502-1.926-3.645-3.354-6.02-4.445 5.864.686 11.74 1.244 17.604.866.838-.053 1.666-.149 2.492-.263 6.784-.049 12.201-2.991 18.537-5.121.215-.062.43-.124.645-.183 1.165-.219 2.406.79 2.353 1.997-.314 1.801.126 3.395 1.299 4.784 4.442 1.608 8.723 3.594 13.273 4.436.707.023 1.412.054 2.11.072 1.507-.221 3.02-.253 4.554-.532.161-.029.315-.042.462-.042 2.516-.964 4.831-2.584 6.656-4.483-9.994 1.682-26.383-.305-24.941-10.767-.185-1.768.234-3.614 1.061-5.296-.094.02-.183.016-.273.053-1.757.699-2.704 1.388-3.941 2.892-.05.057-.079.117-.118.176-.639.164-1.212.54-1.531 1.112-.312.189-.619.377-.916.544-.881.49-1.72.998-2.634 1.364-14.42 5.778-35.25-3.07-50.791 1.462 1.182-2.709 3.373-4.64 5.654-6.337 2.02-1.504 4.01-3.036 5.961-4.609 3.216-4.488 7.824-7.449 11.49-11.742 4.914-5.75 8.975-13.968 11.936-21.359-4.848 2.046-9.688 4.108-14.519 6.191-3.974 1.713-7.862 3.782-12.02 5.02-2.11.933-4.153 1.935-6.169 2.91-4.711 2.282-9.304 4.644-13.84 7.116-3.717 2.038-7.363 4.144-11.12 6.143-6.987 3.799-13.562 8.02-21.35 11.02-.556-.355-1.097-.717-1.647-1.073-4.784.402-8.441-3.102-13.92-5.956-8.206-4.275-16.347-9.251-25.27-11.905-1.396-.114-2.792-.137-4.194-.159-.136.113-.233.245-.35.368.214.097.425.231.622.426 4.362 4.332 9.01 8.392 12.863 13.202.24.299.372.619.435.938.542.712 1.037 1.472 1.461 2.308 1.354 1.425 2.69 2.845 3.968 4.19.139.146.547.422.391.684-4.01.279-8.06.523-12.187.683-6.438.218-13.328.167-19.11-.585-18.455-1.336-28.778-10.11-38.801-20.668-4.768-5.02-8.558-11.182-13.647-16.09-3.792-3.652-8.953-5.863-15.01-7.312-1.635-.391-3.381-.812-5.083-.984-3.713.353-7.471.797-10.965 2.032-4.848 1.716-8.804 4.564-13.05 7.374-4.449 2.941-9.06 7.176-13.963 10.07-.204.216-.421.417-.63.627 2.816 1.072 5.372 2.836 8.07 4.299 3.521 1.907 7.196 3.497 10.857 5.119.388-2.268 1.615-4.353 2.854-6.301 1.575-2.475 2.756-5.633 4.963-7.625.963-.87 1.941-1.489 2.925-1.904.551-.322 1.129-.623 1.775-.877 5.02-1.977 13.04 1.258 17.484 4.465 1.268 1.252 2.47 2.538 3.635 3.788 4.821 5.167 10.152 9.896 15.89 13.941 5.871 4.137 11.558 8.515 17.938 11.795 6.792 3.491 14.621 4.447 24.275 5.556 5.696.998 12.258.956 18.814.877 6.416-.409 12.143-.416 18.649-.731l7.43-.78c.979-.259 1.975-.441 3-.482.073-.004.146.004.219.004.798-.39 1.657-.63 2.614-.662.11-.036.218-.087.332-.115 2.771-.672 4.603-1.411 7.185-2.704 1.482-.741 3.072-1.633 4.734-2.09-.065-.046-.136-.095-.2-.141 5.625-2.598 11.122-5.321 17.06-7.604 3.289-1.223 6.516-2.51 9.687-3.85 1.039-1.025 2.217-1.889 3.454-2.684 3.338-1.485 6.617-3.154 9.649-4.793 5.707-3.083 12.11-5.565 17.848-8.842-1.623 3.399-3.43 6.407-6.728 9.295-4.359 3.817-9.269 6.986-13.877 10.512-.534.285-1.062.585-1.607.847-2.058.981-4.143 1.906-6.095 3.039-1.32.988-2.639 1.98-3.937 3-1.132 2.293-1.997 4.879-2.252 7.901-.067.802.094 1.662-.195 2.438-.479 1.29-2.153 2.113-3.313 2.729-.224.229-.444.356-.664.41-.046.041-.079.087-.128.126-1.771 1.437-3.715 2.271-5.74 2.649-.441.144-.886.281-1.319.445-.43.163-.693.349-.857.502 0 .002-.001.002-.001.005-.549 1.493-1.448 2.59-2.548 3.302.051.021.096.046.146.068-.549 1.172-1.201 2.244-1.951 3.216-1.9-.633-3.754-1.028-6.336-1.267-4.879-.451-10.635 1.158-13.257 3.606-2.288 2.137-3.797 5.04-5.168 8.092-.722 1.195-1.291 2.544-2.339 3.413-11.11-1.901-18.696 3.38-24.08 8.772-.161.196-.262.455-.584.489-.586-.84-1.721-.641-2.633-.877-.891-.23-1.743-.761-2.632-.976-6.66-1.612-12.401 1.953-15.11 5.458-.694.997-1.371 2.01-2.243 2.828-1.231-.647-2.548-2.054-4.29-2.534-2.176-.6-5.386-.488-8.383-.487-8.573 0-18.682-.824-24.762 1.559-1.289.504-2.783 1.465-3.12 2.632 1.523.651 3.265.469 4.875.584 5.067.364 10.443.662 15.598.878 5.871.248 9.732.818 12.577 3.898.71.771 1.458 2.521 2.631 2.925 2.605.9 5.318-1.248 6.825-2.047 1.623-1.029 3.266-2.103 4.972-3.607 1.621-1.432 2.622-3.433 4.29-4.29 3.957-2.031 7.448 1.898 10.918 2.534 5.674.168 7.105-3.317 9.456-6.629.854-1.202 2.917-4.492 4.386-4.874 2.144-.558 4.724.825 6.337 1.561.885.403 1.812.812 2.729 1.268.911.45 1.872 1.113 2.828 1.267 4.54.734 6.85-2.756 9.07-5.557.777-1.059 1.554-2.12 2.327-3.179-.022-.911.474-1.837 1.5-2.049l.168-.231c.05.068.104.131.154.199.046-.004.088-.014.137-.014 1.525 0 2.155 1.373 1.905 2.525 5.705 6.344 13.89 10.208 23.11 13.04.12-.005.238-.008.374.009 5.361.669 12.933-.509 16.503 4.651.998 1.445 2.104 2.827 3.289 4.154 1.995 1.817 4.01 3.905 6.072 5.8 1.978 1.628 4.062 3.147 6.198 4.552.443.218.894.395 1.343.555 4.462-.565 8.893-1.487 13.11-3.08.525-.199 1.047-.409 1.564-.623.83-.457 1.624-.917 2.378-1.349.228-.131.466-.265.711-.396 1.103-.392 2.206-.709 3.297-.93 1.255-.471 2.527-.886 3.842-1.176 3.651-.804 7.02 1.33 10.09 3.508 2.26-.295 4.472-.649 6.324-2.208 1-.845 2.465-.777 3.188.411 1.949 3.203 4.666 5.768 7.171 8.506.443.009.901.17 1.312.561 2.83 2.683 6.446 3.795 10.385 4.298.489-.041.98-.089 1.473-.121 1.92.095 3.92.051 5.989-.058 1.322.041 2.646.096 3.956.158 7.499.356 14.933 1.359 22.438 1.613.593.472 1.101 1.014 2.296 1.139.359.038.691.04 1 .016-5.732-3.983-12.752-4.851-19.526-7.07m-97.69-60.902c-.938-1.151-.218-3.137 1.555-3.308 7.248-.698 15.751.556 20.03 7.099.053.083.073.164.116.246 4.049 2.633 7.811 6.06 11.485 8.7-6.199-.48-12.421-.178-18.581-.669-2.566-.527-5.096-1.217-7.727-1.427-5.849-2.483-11.318-5.354-17.02-7.905 3.762-.529 8.02-.559 10.135-2.736"/></g><path fill="#fff" d="m215.32 399.78l.055.311c1.111.852 1.917 2.107 2.315 3.49.619 2.144.082 3.825-.709 5.64l.104.598 8.387-7.64c-3.531-.129-6.905-1.054-10.152-2.399"/></g></switch></svg>