<svg xmlns="http://www.w3.org/2000/svg" viewBox="0 0 566.929 566.929" enable-background="new 0 0 566.929 566.929"><switch><g><path fill="#fff" d="m540.44 331.42c-3.234.036-7.177.844-10.233-.522-.748-.334-1.542-.463-2.29-.377v-229.7c.097-.045.192-.073.29-.128 2.363-1.336 5.119-1.758 7.664-2.647 1.799-.628 2.976-2.372 2.444-4.306-.48-1.745-2.503-3.074-4.306-2.444-2.02.705-4.091 1.209-6.093 1.917v-36.492h-448.93v92.18c-3.169-.011-6.386.461-9.282 1.099-5.794 1.278-6.728 4.591-6.995 10.03-.471 9.594 7.764 10.431 15.255 9.721-2.098 3.035-4.742 5.849-5.871 9.211-.123-.184-.263-.359-.426-.52-1.396-1.382-2.956-2.648-4.708-3.547-1.698-.871-3.786-.456-4.789 1.255-.924 1.577-.44 3.918 1.255 4.789.609.312 1.183.672 1.74 1.065.117.098.479.382.56.453.343.298.668.615.991.935 1.356 1.341 3.596 1.354 4.95 0 .012-.012.02-.027.032-.039.713 3.15 4.04 4.118 7.286 4.295v4.74c-1.975-.542-3.978-1.729-5.842-2.266-1.814-.523-2.023-1.23-3.179-2.972-2.483-3.741-8.549-.24-6.04 3.533 1.594 2.402 3 4.566 5.786 5.65 1.533.597 3.149.906 4.655 1.577 1.548.691 3.03 1.308 4.625 1.591v115.6c-2.515.033-4.945.552-7.474 1.186-1.81.454-2.54 1.875-2.48 3.307-2.985.336-6.01.392-9.09.068-4.487-.472-4.442 6.533 0 7 5.241.551 10.447.093 15.536-1.022.072.004.141.022.214.022 1.101 0 2.198-.019 3.293-.09v7.794c-2.746.558-5.609.315-8.06 2.023-2.428 1.692-2.238 5.51.836 6.397 2.371.684 4.798.53 7.224.428v147.87h95.48c-2.224 2.056-.331 6.804 3.409 5.952.694-.158 1.389-.307 2.084-.456.407 1.35 1.517 2.44 3.235 2.331 2.908-.185 5.798-.511 8.684-.877 4.104.089 8.243.741 12.291 1.049 7.95.604 16.245.359 24.2-.114 10.126-.603 19.988-2.01 29.925-2.311.559.74 1.438 1.253 2.653 1.253 18.705.001 37.411.077 56.05 1.807 8.417.781 16.749.679 25.2.634 6.906-.037 13.94-.481 20.232-3.535 7.757.812 15.452.636 23.21.465.557.529 1.318.88 2.312.88h36c4.514 0 4.514-7 0-7h-5c-1.413-.009-2.825-.038-4.237-.077h113.21v-152.66c4.073 1.425 8.193 1.039 12.523.99 4.512-.05 4.517-7.05.001-7"/><path fill="#ffe6bb" d="m217.28 250.02l15.804-12.148h-14.485l-8.18-.61c2.404 4.168 4.822 8.409 6.861 12.758"/><path fill="#ffe6bb" d="m171.22 274.44c-2.355-3.861-3.964-7.819-5.767-11.932-1.146-2.615-2.479-5.316-3.686-8.08l-1.312 1.809-23.933 6.75-27.494 3.777-12.556-4.772-11.864-7.381-14.04 1.094-11.341-1.346-6.216-2.444-15.38-6.742-3.519-5.664h-16.193l9.479 15.913 14.02 21.06 25.11 17.553 8.164 1.881 10.726-5.673 6.757-7.292 12.952-4.574 8.095-4.096h28.932l15.342 4.81 17.54 9.133 3.85-1.451c-2.323-4.258-5.132-8.19-7.66-12.334"/><path fill="#ffe6bb" d="m201.15 263.52c.426.379.856.753 1.292 1.121-.744-1.45-1.5-2.893-2.279-4.323.364 1.058.695 2.125.987 3.202"/><path fill="#515254" d="m162.57 250.48c-2.416 1.654-5.722 2.435-9.425 3.199-2.024.582-4.058 1.157-6.128 1.694-4.513 1.474-9.485 2.777-14.996 3.074-5.823.292-11.565-.198-17.02-.981-5.605-.81-10.275-2-14.243-3.898-.096-.027-.203-.055-.293-.087-.703-.317-1.319-.689-1.927-1.115-.369-.217-.733-.417-1.082-.642.012-.051.023-.085.031-.134-.709-.566-1.389-1.178-2.069-1.797-1.467-.938-2.829-2.01-4.04-3.324-1.257-1.344-1.872-3.03-2.382-4.743-.032 0-.064.016-.086.016-.843 3.326-4.217 6.525-6.911 7.816-.268.123-.531.17-.794.161-.41.23-.833.425-1.3.542-.114.012-.22.035-.34.067-3.815 1.469-9.664.258-12.564-.882-.32-.134-.568-.328-.746-.566-.726-.416-1.211-.975-1.38-1.717-.281-1.289.076-2.592 1.415-3.176.552-.249 1.058-.336 1.347-.407 0-.139-.014-.243-.026-.358-.214-.116-.55-.277-1.058-.497-.74-.329-1.439-.545-2.142-.685-2.823.461-5.645.83-8.532.789-2.339.069-4.194-.771-5.565-2.514-.011-.018 0-.05-.011-.072-.774-.861-1.123-2.065-.6-3.74.462-1.583 1.305-3.353 3.169-3.669.498-.079 1.248.029 2.01.172.012-.074.012-.146.012-.238-1.786-1.293-4.727-2.094-5.85-2.122-2.406-.112-4.808-.082-7.214.015-2.953.13-6.833.638-10.231.347-1.813-.012-4.108.013-6.313-.194-.374-.113-.723-.211-1.056-.361-1.52-.61-2.788-1.469-3.907-2.464-2.026-1.265-3.831-2.761-5.192-4.892v-.01c-1.107-1.22-1.835-2.67-1.805-4.568 0-.081.03-.134.035-.197-.434-1.388-.552-2.919-.272-4.761.355-2.268 1.208-4.051 2.656-5.192-.333-.148-.725-.22-1.141-.097-5.909 1.602-10.35 7.132-9.779 13.374.03.201.06.356.121.506v.406c.843 10.419 4.94 18.352 9.378 25.572 4.345 7.05 9.435 13.717 15.06 19.824 8.272 8.97 17.499 17 28.934 22.965.125.182.314.346.542.487 5.625 3.406 10.283 7.965 15.184 12.189.641.557 1.77.737 2.382 0 1.523-1.819 2.858-4.893 5.276-5.585 1.7-.492 1.479-2.657 0-3.228-.511-.219-1.034-.404-1.561-.589-.146-.159-.297-.291-.457-.44-1.105-2.293-4.809-4.277-6.692-5.373-.797-.773-1.583-1.47-2.326-2.127-10.664-9.31-23.13-16.32-32.17-26.921-3.622-4.238-6.923-9.06-7.829-15.821.924.403 1.768.487 2.267 1.385.647 1.229.31 3.309 1.206 4.357 1.026 1.208 4.455 1.969 6.368 2.182 2.681.291 5.625.023 7.989.541 2.171.51 4.096 1.622 5.725 2.837 1.689 1.285 3.331 2.375 5.315 3.217 8.39 3.68 21.23 2.146 28.462-1.444 5.331 6.05 12.434 9.898 23.22 10.563 3.746.237 7.452.039 11.08-.363 10.702.264 21.757-.979 32.3-1.884 4.746-.409 9.283-1.206 13.299-3.034-2.05-3.68-3.876-7.478-5.335-11.388"/><path fill="#515254" d="m226.76 241.75c-2.602 3.221-5.344 6.114-6.289 11.447-.098.567-.148 1.173-.174 1.791.605.837 1.198 1.69 1.791 2.556 1.737 2.536 3.696 4.863 5.761 7.101.735-2.08 1.498-4.151 2.215-6.238.065-.191.15-.365.241-.533.11-.742.269-1.458.489-2.176.75-2.478 1.988-4.445 3.518-6.126.496-1.771.819-3.566 1.041-5.374-.061-.271-.096-.555-.08-.859.019-.344.037-.688.055-1.032-1.761-2.359-3.587-4.474-2.095-7.809.749-1.672 1.469-3.069 2.046-4.675-1.132.058-2.263.119-3.399.166-.024 0-.033-.012-.057-.012-8.852.508-17.951.688-27.352.57.218.421.419.849.603 1.285.017.026.038.047.053.074.213.362.406.727.595 1.093.166.228.316.47.425.743.1.25.189.502.287.752.118.273.223.55.331.826.945 1.684 1.871 3.435 2.482 5.162 5.358 1.01 11 1.661 17.513 1.268"/><path fill="#515254" d="m114.22 320.92c-3.531.614-7.472.583-11.537.883-4.896.352-9.591 1.805-14.03 2.583-4.844.844-10.257.901-15.722.728-2.669-.093-5.446-.258-8.141-.15-2.661.077-5.355.292-7.818-.34 3.764-1.111 7.556-1.915 11.199-3.301 10.846-4.077 21.07-7.938 28.06-15.709 1.074-1.19 2.324-2.42 2.821-4.04-1.204-.589-2.671-.334-3.793-.083-2.388.552-4.441 1.544-6.29 2.588-.962.537-1.828 1.31-2.734 1.691-1 .414-2.046.693-3.061 1.129-3.048 1.292-5.906 2.546-8.796 3.862-2.766 1.256-5.469 2.641-8.228 3.89-.179.165-.391.321-.685.396-.416.139-.848.289-1.264.443-.474.2-.94.409-1.427.596-.562.215-1.153.425-1.747.605-3.321 1.359-6.59 2.865-10 3.869-4.464 1.321-9.07 2.356-13.583 3.498 2.866 1.453 5.933 2.491 8.828 3.893 3.263.913 6.145 2.163 9.07 2.969 6.768 1.852 15.552 1.223 23.07.729 7.606-.499 15.11-1.564 21.777-3.145 5.922-1.411 11.673-2.939 16.03-5.725.58-.36 1.411-.761 1.465-1.539-1.016-.743-2.34-.517-3.466-.316"/><path fill="#515254" d="m98.18 340.12c-5.643.783-11.369 1.833-17.05 1.216-.15-.026-.266-.042-.391-.089-3.823-.105-7.688-.424-11.439-.636 1.716-2.363 4.823-3.757 7.338-5.253.832-.477 1.964-.824 2.184-1.855-1.505-.484-3.048-.426-4.513-.081-2.219.535-4.605 2.031-6.618 3.15-5.201 2.884-9.626 6.145-15.257 8.271-.178.131-.367.239-.596.269-.111.028-.205.051-.307.069-.75.456-1.588.764-2.488.952-.589.276-1.188.538-1.837.669-.139.021-.277.033-.4.033-.076.027-.147.079-.224.097-.236.051-.463.075-.686.098-.203.094-.402.18-.598.269 9.796 1.229 20.08.44 30.02-.118 1.456-.173 2.888-.356 4.318-.529 2.784-.347 5.541-.527 8.221-.965 5.127-.872 9.684-2.659 14.268-4.112 2.401-.772 4.797-1.502 6.694-2.582 1.199-.691 2.392-1.464 3.078-2.769-4.256 2.274-8.923 3.224-13.714 3.896"/><path fill="#515254" d="m268.01 89.95c1.601-1.204 3.679-1.595 5.591-2.132 1.994-.56 3.976-1.077 5.911-1.81l-22.22-13.971-.546-.354-6.979-3.092 4.668 4.833 12.772 15.483.804 1.043"/><path fill="#edf3d3" d="m481.66 106.34l-1.348-.251-13.945-2.586-6.782-11.202-4.647-4.395-15.09-2.094-11.834-3.676-21.801 4.17-13.979 11.174-12.737-2.312-11.1-1.572-3.379-8.6-21.763 2.739-25.4 1.366 10.966 5.286 12.911 9.117 14.886 9.42-15.673-.982-26.397-4.856-14.394-8.559c-1.588 1.237-3.298 2.315-5.081 3.267-.067.235-.154.466-.269.69-.691 1.35-1.78 2.438-3.13 3.13-1.458.746-3.207.503-4.254-.728-2.246.65-4.536 1.129-6.834 1.396l2.877 3.737 7.744 10.246 16.268 5.42 11.224 2.733 12.565 10.826 10.678-.76 11-3.506 17.226 2.905 7.05 4.181c-3.095-6.753-5.659-17.661 1.778-20.236 10.427-9.445 22.776 12.351 26.24 25.29 1.873-3.458 4.289-6.594 6.186-10.177 3.03-5.732 4.438-12.216 8.247-17.532 2.578-3.597 6.986-9.104 12.203-7.358 4.683 1.567 7.239 5.321 7.819 10.125.072.595.003 1.104-.159 1.539.724 4.784-.812 10.457-1.966 14.451-1.043 3.613-2.283 7.18-3.666 10.688l14.864 5.861-4.664-21.281 14.514 7.358 12.979-1.547 13.733-5.811 25.363-4.067 28.448-31.552 1.371-10.826-58.853 19.351"/><path fill="#edf3d3" d="m100.73 162.53l11.3 10.06-1.25 35.53-10.57-9.84z"/><path fill="#515254" d="m142.3 172.31c-.061-.056-.107-.115-.163-.171-9.825-.44-19.596-1.946-29.426-1.995-1.651-2.591-4.238-4.7-6.849-6.531 5.238-.754 10.962.09 16.231.991 2.896-.145 5.763-.25 8.55-.145.604.021 1.279-.002 1.988-.042-.571-.243-1.146-.487-1.707-.726-3.671-1.564-5.687-3.236-6.96-6.198h-25.526c-.129 4.748-.601 9.463-1.11 14.199.365 6.257-.392 12.483-1.228 18.693-.011 0-.011 0-.011 0-4.591-.701-8.719-3.156-13.239-4.19-3.352-.78-6.885-2.223-10.367-2.528-.004-.314.036-.632.177-.945 1.408-3.22 3.861-5.748 4.947-9.151.741-2.333 1.466-4.591 2.631-6.759.047-.062.082-.106.129-.176-3.967-.165-7.943.015-11.887.046-.894.008-1.428-.541-1.627-1.22-.168-.247-.278-.58-.278-.968v-10.122c0-.141.051-.247.083-.38-1.066-.906-.697-3.116 1.082-3.116 10.433 0 20.853-.126 31.25-.694.129-.247.321-.467.558-.624 5.115-3.235 9.734-7.136 14.599-10.703.349-.247.733-.314 1.098-.247 1.228-1.502 2.772-2.667 4.76-3.231 1.043-.282 1.992.487 2.208 1.408.427.262.776.708.788 1.234 0 .001.001.002.002.003 2.33-1.443 4.792-2.02 7.379-2.309-.533-1.294-1.077-2.583-1.633-3.869.655.687 1.286 1.42 1.776 2.29.27.485.515.99.767 1.49.68-.059 1.369-.103 2.064-.143-1.61-2.441-3.057-4.976-4.568-7.482-.399-.585-.795-1.196-1.199-1.8-3.771 1.341-7.504 2.736-11.334 3.893-1.996.6-3.976 1.219-5.955 1.875-.157.059-.278.117-.408.184-.948.42-1.906.789-2.881 1.129-4.481 2.729-9.107 5.05-14.29 5.724-5.41.706-11-.291-16.404-.377-5.939-.11-12.12.675-18.13.922.007.078.042.145.042.238v19.619c0 2.105-.097 4.262-.196 6.426.267 2.842.624 5.688.863 8.531.157.258.25.552.25.921-.019.842-.046 1.709.036 2.532.306.463.749.82 1.29 1.255 1.054.839 1.894 1.764 2.337 3.034.521.534 1.023 1.043 1.518 1.592-1.228.996-2.431 1.932-3.439 2.796-.046.035-.07.062-.11.11v.082c1.329 2.294 2.208 4.806 3.659 7.04.976 1.514 1.803 2.964 2.23 4.654.062.042.153.082.235.097 10.652 3.02 21.383 5.83 32.05 8.864 4.583.717 8.868 2.639 13.345 3.709.046-3.917.11-7.829.046-11.761-.059-4.086.964-8.175 1.655-12.229.094-3.501.228-7.01.463-10.503.062-1.012-.027-1.957-.235-2.877 2.716.059 5.418.216 8.127.432 7.769.107 15.503 1.046 23.25 1.031-1.152-.893-2.243-1.866-3.292-2.829m-79.39 4.955c1.054-.036 2.097-.091 3.16-.154.02.016.042.024.059.051.65.435 2.136 1.185 2.658 1.811-.479.831-1.129 1.631-1.871 2.372-1.258-1.411-2.649-2.729-4.01-4.08m42.14 28.21c0 .016-.008.016-.008.023-.168-.073-.329-.128-.498-.192-.941-.298-1.929-.518-2.925-.626-.121-.103-.239-.2-.364-.302-10.903-3.125-21.876-6.01-32.792-9.112-1.25-2.564-2.881-4.917-4.399-7.308 3.674 1.333 7.34 2.775 10.916 4.362 1.654.734 3.301 1.456 4.939 2.122.686.204 1.36.38 2.038.611 2.455.752 4.897 1.584 7.348 2.373 1.047.219 2.133.412 3.235.552 2.226.259 4.355.901 6.484 1.557.687.051 1.372.114 2.02.204 0 .141.022.282.055.42 1.372.667 2.329 1.822 3.72 2.509.553.263.838.842.843 1.435.737.686 1.435 1.396 2.066 2.157-.886-.259-1.788-.51-2.674-.785m5.532-22.338c-.25 5.854-.271 11.688-.25 17.564-.157.244-.24.541-.259.859-.126 1.164-.215 2.325-.25 3.517-.529-.031-1.04-.247-1.424-.756-1.573-2.118-3.391-4.058-5.646-5.493-.822-.529-.949-1.364-.705-2.086-.035-1.285-.102-2.568-.188-3.892.251-5.345.436-10.7.592-16.06.06-2.293.138-4.512-.042-6.795-.062-.788.02-1.387.235-1.85.114-.05.274-.105.427-.164.103-.302.22-.569.353-.82-.549-.33-.8-.937-.796-1.545 1.858 1.278 3.669 2.635 5.351 4.18 3.904 3.691 2.802 8.542 2.602 13.336"/><path fill="#edf3d3" d="m432.4 235.03l.8 10.35h3.66l8.45-9.19 10.63-12.77 10.38-12.93 7.89-9.26 2.53-6.24-1.89-4.12-2.67-3.57z"/><path fill="#515254" d="m501.44 233.35c-.32-1.283-.603-2.583-.794-3.903-.026-.097-.06-.214-.102-.329-5.116-6.924-10.444-13.798-14.516-21.304-2.311-4.298-5.253-8.239-7.502-12.576-1.664-3.225-3.192-6.483-5.136-9.527-6.478 8.709-14.667 16.277-21.2 24.948-3.431 4.559-6.813 9.221-10.511 13.575-2.841 3.342-6.728 5.694-9.595 8.943-.272.548-.49 1.102-.678 1.676-.177 4.045-.58 8.211.439 12.12.834-.066 1.685-.16 2.568-.356 3.059-.69 5.924-1.879 8.932-2.807 7.07-2.179 14.589-2.678 21.866-3.889 11.28-1.903 22.535-3.89 33.813-5.684.578.589 1.675.371 2.172-.346.089-.002.177-.029.258-.053-.044-.041-.081-.093-.122-.16.043-.097.081-.209.107-.327m-61.905 4.72c-1.982 2.529-4.056 5.04-6.338 7.31.09-2.449.108-4.873.385-7.31-.062-1.267.163-2.475 1.03-3.544.024-.009.034-.027.069-.06 1.14-2.02 2.991-3.655 4.595-5.348 4.235-4.549 8.891-8.668 12.727-13.614 3.788-4.846 7.01-10.09 10.888-14.856 3.071-3.795 6.951-7.3 9.866-11.279.653 1.969.643 4.129 1.192 6.191.067.226.165.406.297.566-.918 1.039-1.795 2.107-2.599 3.231-3.522 4.998-7.581 8.898-11.671 13.375-2.439 2.692-4.729 5.466-7.108 8.145-.376.587-.749 1.163-1.129 1.74-3.665 5.448-8.149 10.292-12.204 15.453m24.865-5.04c-3.998 1.306-7.661 2.968-11.805 3.889-.73.152-1.457.329-2.165.519.391-.383.773-.783 1.178-1.169 7.968-7.965 15.441-16.869 21.988-26.344 5.584 4.85 10.161 10.688 13 18.27-7.289 2.054-14.964 2.441-22.2 4.835m24.791-17.03c-4.681-6.439-8.154-13.676-12.531-20.288.107-.21.107-.462.079-.721.336.807.689 1.581 1.121 2.265 2.613 4.354 5.81 8.279 8.315 12.752 2.517 4.506 5.82 8.707 8.445 13.177-1.785-2.41-3.671-4.764-5.429-7.185"/><path fill="#515254" d="m146.66 71.77c-6.206-2.784-12.557-5.442-18.546-8.726-1.369-.544-2.714-1.124-4.02-1.792-.517-.271-1.063-.505-1.594-.738-.13-.023-.252-.068-.376-.138-.857-.363-1.689-.734-2.444-1.288-.06-.042-.114-.113-.168-.173-.345-.161-.712-.345-1.048-.527-1.928-1.052-3.75-2.27-5.528-3.543-1.034-.523-2.08-1.04-3.139-1.55-.004.027-.011.031-.021.041 3.254 6.282 7.645 11.741 11.863 17.454 4.03 5.439 7.993 10.917 12.702 15.791 1-.834 2.154-1.421 3.36-1.939-.167-.22-.337-.43-.477-.626-2.159-2.963-3.915-5.779-5.785-8.737-1.234-1.914-2.636-3.556-3.19-5.605 8.05 3.182 15.485 8.816 22.19 13.763 1.149.85 2.43 2.177 3.792 2.278 3.463-2.317 7.232-4.255 10.581-6.694l.01-.014c-6.197-2.026-12.209-4.563-18.16-7.237"/><path fill="#515254" d="m542.68 72.934c-.19.096-.37.224-.524.376.735 2.663.856 4.783-.929 7.738-2.469 4.045-7.529 5.809-11.541 7.725-6.597 3.14-15.15 8.351-23.15 9.483-9.831 3.536-21.18 6.03-32.91 7.526-1.812.227-3.634.687-5.377.72-1.839.051-2.644.122-4.079.83-.974.46-2.02.939-1.885 1.708.156.718 3.03.961 4.35 1.138 4.994.696 10.988.502 15.473-.168.449-.059.861-.131 1.296-.202.263.091.571.133.914.077 6.218-1.112 11.578-2.203 17.15-4.343 4.742-1.175 9.435-2.82 14.05-4.643 2.706-.72 5.485-1.551 8.01-2.725 1.283-.577 2.425-1.334 3.533-2.122.262-.119.525-.238.804-.351 1.159-.462 2.313-.943 3.447-1.477.294.108.491.257.546.463.177.741-.897 1.827-1.475 2.449-.751.799-1.593 1.569-2.049 1.962-4.333 3.659-9.31 7.185-13.694 10.26-2.557 1.807-5.992 3.727-8.663 5.647-2.282 1.154-4.793 2.173-6.405 4.127-1.059 1.252-1.354 3.691-.913 5.229.149.61.307 1.213.475 1.832-1.023 2.41-4.955 2.528-7.733 3.228-5.834 1.467-11.652 2.462-16.43 4.642-.133.012-.263.028-.387.057-.465.019-.974.074-1.462.145-1.43.25-2.778.78-4.15 1.21-.166-.108-.32-.248-.448-.417-1.355-1.874-3.5-2.794-5.26-4.201-1.516-1.223-2.958-2.534-4.292-3.905-1.717-1.802-3.511-3.743-4.665-5.971-.441-.335-.924-.585-1.406-.831.086 2.83.342 5.591.92 8.311 0 .036.02.07.03.107-.03.08-.057.152-.066.222-.268 1.333-.24 2.538.036 3.86.161.783.405 1.526.599 2.273-1.554-.453-3.104-.932-4.699-1.154-3.362-1.188-6.973-2.247-10.694-3.162-.196.807-.438 1.59-.702 2.371.001.003.003.006.004.01.439 1.415.314 2.514-.25 3.861-.083.199-.195.361-.302.532 5.106 2.02 9.83 4.402 15 6.342.621-.034 1.225.03 1.822.255.188.067.363.168.522.295 5.145 2.166 10.54 2.838 15.754 4.779 2.98 1.094 6.095 1.475 9.08 2.398 1.805.364 3.61.792 5.414 1.182.038-.023.079-.056.12-.086-1.885-1.591-3.733-3.271-5.346-5.146-1.43-1.674-2.825-3.845-4.774-4.951-1.439-.808-.852-2.552.396-3.03-.035-.054-.066-.084-.081-.143 8.164-1.442 16.371-4.444 26.04-4.103 2.728-.153 5.472-.26 8.198-.262 1.434-.028 1.583-6.66 2.414-8.255 2.946-5.749 7.558-11.936 12.475-16.12 5.556-4.729 12.741-8.281 17.316-14.04 5.115-6.49 4.415-16.413.569-23.565"/><path fill="#515254" d="m464.08 97.3c-1.022-2.563-2.61-4.573-4.543-6.181-2.19-2.523-4.921-4.61-8.173-5.166-1.239-.652-2.577-1.18-4.054-1.666-2.381-.761-5.322-1.712-7.896-1.243-.175-.028-.333-.065-.527-.093-4.896-.963-9.482-.755-13.854-.243-4.52.521-8.898 1.066-13.05 1.875-8.219 1.597-14.373 5.614-19.495 10.348-4.816 4.489-9.868 10.687-11.656 18.2-.506 2.135-.813 5.145-.772 8.124 3.226-2.636 8.388-2.719 12.8-.374 1.195.635 2.288 1.456 3.309 2.392-.851-1.824-1.328-3.798-1.079-5.536-.076-.479-.138-.958-.157-1.456.11-.517.212-1.032.288-1.547.021-.481.037-.964.09-1.432-.012-.109-.053-.227-.086-.325.074-.301.152-.598.223-.911.651-5.203 2.534-10.112 6.361-13.783.842-1.15 1.765-2.194 2.839-3.099 2.846-2.374 6.459-3.911 10.656-4.874 4.941-2.112 11.06-3.208 16.923-3.068.485 0 .979 0 1.47.005.083-.005.153-.031.247-.031 1.962-.125 3.789.139 5.747.383.147 0 .276.047.395.078.221.03.438.082.677.094.932-.036 1.795.06 2.598.243.24-.045.479 0 .756.104.494.214.993.402 1.476.596.783.21 1.565.451 2.296.727.243.112.462.245.637.411.132.022.282.065.42.154 3.863 1.986 6.268 4.79 7.98 8.583.578.783 1 1.679 1.192 2.733.35.427.731.829 1.154.956 1.787.547 5.252-.638 5.543-2.047.153-.748-.391-2.035-.737-2.928"/><path fill="#515254" d="m166.6 103.57c.977-.297 1.903-.642 2.839-1.016-.077-.198-.173-.388-.243-.565-.802-1.458-1.589-2.923-2.668-4.164-.202-.026-.393 0-.615.052-2.435.715-5.269.703-7.804 1.1-2.035.315-4.12.526-6.22.71-2.979-.138-6.05 0-9.107.071-3.305-.292-6.55-.657-9.846-1.26-2.304-.411-4.403-1.177-6.489-2.035 0-.059-.002-.094-.014-.134 3.552-.547 7.07-1.341 10.41-2.517 2.909-1.01 7.216-1.703 9.342-4.135.083-.083.151-.173.205-.28.143-.047.29-.108.437-.178.099-.236.149-.502.129-.767.103-.259.035-.504-.232-.727-.11-.168-.206-.343-.315-.493.007-.278-.098-.5-.275-.671-.222.089-.456.183-.686.277-.53-.216-1.156-.133-1.656.436-.11.114-.231.252-.36.362-13.893 5.188-28.788 6.091-43.582 6.239.552.299 1.09.609 1.672.925 3.209 1.736 6.863 2.493 10.186 4.059 8.103 3.817 16.758 4.64 25.438 5.949 6.781.395 13.798.357 20.879-.176 2.096-.162 4.173-.266 6.169-.458.818-.209 1.607-.358 2.406-.604"/><path fill="#515254" d="m168.61 123.28c-.415-.506-.826-1.016-1.237-1.527-.175-.196-.341-.406-.516-.63-1.793-1.402-3.536-2.876-5.229-4.412-.065-.054-.104-.112-.155-.173-2.117.58-4.164 1.443-6.196 2.342-.021.057-.021.131-.023.185 1.229 1.699 2.551 3.391 3.966 5.063.957.981 1.895 1.968 2.826 2.956 1.53-1.937 4.03-3.042 6.564-3.804"/><path fill="#515254" d="m271.52 129.02c-9.182.755-15.469 4.849-23.16 7.174-5.48 1.584-10.985 3.136-17.451 3.748-3.381.381-6.692.526-9.926.493-.229.208-.558.371-.962.412-5.073.596-9.973-.031-14.917-.688-1.884-.07-3.75-.254-5.638-.619-.032 0-.072 0-.108-.009-2.947-.262-5.633-.752-8.115-2.026-1.486-.349-2.962-.769-4.41-1.288-.401-.144-.797-.307-1.191-.473.716 3.5 1.311 7.02 1.859 10.563 7.132 2.59 15.261 3.048 23.2 2.974 3.248-.371 6.436-.995 9.407-1.949 4.552-.938 8.785-2.554 13.569-4.133.325-.113.561-.289.739-.505 4.782-1.28 9.332-2.79 13.942-4.223v-.077c6.498-2.409 13.744-4.481 20.954-6.44 2.281-.621 4.888-.946 6.278-2.782-1.329-.447-2.777-.264-4.07-.152"/><path fill="#515254" d="m455.13 163.41c-.417-1.62-.699-3.262-.647-4.935.089-2.678-1.147-4.659-1.579-7.144-.778-2.02-1.631-3.977-2.432-6.01-.009 0-.009-.014-.018-.014-2.345-.439-4.664-1.027-6.993-1.507-.194.159-.344.344-.5.544-.013 2.704.134 5.625-.233 7.996-2.795-1.49-5.638-3.206-8.526-4.935-.392 2.741-.824 5.476-1.094 8.23 4.506 3.43 8.875 7.01 12.956 10.887.333.313.723.729 1.117 1.168 3.051 2.888 5.792 6.087 8.608 9.199 0 0 .014-.011.047-.026-.24-4.494-.434-8.964-.706-13.452"/><path fill="#515254" d="m374.21 135.31c-.309-.223-.52-.502-.628-.812-3.8-2.874-7.835-4.946-12.11-1.96-2.987-.49-5.861-1.229-8.681-2.727-.717-.388-1.447-.252-2.061.263-2.497 2.11-6.216 2.478-9.245 3.431-3.557 1.113-5.856 2.89-9.668.659-.414-.236-.824-.519-1.229-.785-.015-.014-.04-.035-.048-.035-2.667-2.727-4.655-5.498-7.39-7.615.055-.575-.158-1.168-.749-1.582-4.03-2.825-8.953-2.591-13.717-2.119-3.67-.089-7.02-.071-9.866-1.255-4.132-1.699-6.479-5.472-8.384-9.12 2.821 1.107 8.709 1.697 9.04-2.131.239-1.56.443-3.149.985-4.396 1.818.572 3.356 1.411 5.142 2.032 9.582 3.435 17.783 9.162 29.02 11 4.02.664 8.41.912 12.864.923.254-.259.62-.431 1.057-.454 5.399-.455 11.203.176 16.394-1.628 2.208-.785 4.338-1.565 6.541-2.065-6.785-1.138-13.697-2.377-19.276-6.444-3.978-2.933-6.658-6.935-11.3-9.06-1.98-.909-3.993-1.778-6.01-2.584-1.259-1.596-3.053-2.797-5.04-3.7 4.919.578 9.831 1.029 14.723.715.709-.028 1.389-.119 2.093-.212 5.669-.047 10.207-2.492 15.508-4.295.164-.042.353-.093.536-.147.971-.171 2 .673 1.96 1.669-.254 1.518.109 2.848 1.091 4.01 3.719 1.337 7.285 3.01 11.09 3.702.609.032 1.193.046 1.78.06 1.261-.168 2.535-.203 3.801-.445.141-.012.277-.031.396-.031 2.102-.812 4.04-2.157 5.562-3.741-8.353 1.406-22.08-.265-20.868-9-.158-1.494.197-3.02.899-4.454-.089.032-.153.023-.226.053-1.466.596-2.272 1.174-3.311 2.426-.04.056-.062.103-.092.14-.529.14-1.01.456-1.286.939-.255.152-.508.309-.764.456-.724.407-1.433.819-2.202 1.14-12.06 4.83-29.472-2.572-42.488 1.218 1.01-2.263 2.833-3.876 4.74-5.3 1.688-1.248 3.363-2.537 4.993-3.86 2.684-3.748 6.534-6.227 9.595-9.804 4.112-4.818 7.51-11.693 9.995-17.88-4.054 1.724-8.098 3.449-12.144 5.183-3.331 1.435-6.576 3.164-10.06 4.204-1.761.782-3.476 1.624-5.148 2.433-3.951 1.909-7.786 3.876-11.58 5.946-3.101 1.706-6.155 3.47-9.3 5.134-5.841 3.18-11.342 6.719-17.855 9.219-.467-.308-.912-.6-1.37-.896-4.01.339-7.05-2.59-11.645-4.97-6.862-3.592-13.667-7.743-21.13-9.964-1.162-.101-2.323-.112-3.517-.133-.102.087-.188.203-.281.303.18.085.353.201.517.359 3.647 3.629 7.533 7.02 10.757 11.03.204.267.316.519.373.792.457.605.864 1.222 1.214 1.93 1.132 1.183 2.259 2.376 3.319 3.498.12.131.457.362.329.579-3.351.229-6.735.425-10.194.575-5.386.162-11.141.121-15.985-.496-15.423-1.125-24.05-8.458-32.443-17.287-3.989-4.196-7.141-9.353-11.407-13.448-3.176-3.059-7.496-4.91-12.569-6.117-1.369-.323-2.818-.683-4.236-.825-3.112.294-6.257.664-9.178 1.706-4.054 1.425-7.355 3.811-10.923 6.162-3.717 2.458-7.566 6.01-11.665 8.421-.191.189-.357.341-.537.528 2.357.888 4.499 2.369 6.753 3.598 2.937 1.596 6.03 2.921 9.08 4.26.316-1.886 1.367-3.625 2.388-5.255 1.313-2.07 2.312-4.717 4.159-6.375.797-.72 1.617-1.243 2.438-1.589.453-.276.954-.519 1.491-.734 4.197-1.663 10.903 1.045 14.616 3.728 1.07 1.047 2.072 2.131 3.042 3.171 4.04 4.316 8.502 8.271 13.297 11.654 4.905 3.469 9.66 7.132 14.994 9.874 5.678 2.922 12.232 3.716 20.305 4.639 4.76.842 10.25.802 15.736.742 5.37-.337 10.154-.358 15.596-.61l6.217-.657c.812-.217 1.649-.378 2.505-.401h.184c.676-.327 1.395-.533 2.194-.552.081-.035.177-.069.286-.098 2.298-.559 3.83-1.177 6-2.267 1.226-.616 2.565-1.357 3.957-1.752-.059-.028-.117-.061-.169-.109 4.71-2.168 9.305-4.45 14.261-6.358 2.745-1.023 5.45-2.093 8.103-3.219.861-.86 1.843-1.575 2.877-2.255 2.796-1.226 5.546-2.628 8.09-3.993 4.752-2.58 10.119-4.649 14.926-7.407-1.359 2.846-2.875 5.368-5.627 7.783-3.654 3.185-7.761 5.839-11.621 8.797-.435.225-.889.481-1.336.696-1.72.828-3.466 1.601-5.086 2.547-1.113.817-2.221 1.659-3.305 2.504-.948 1.917-1.671 4.087-1.873 6.61-.074.677.057 1.395-.175 2.034-.4 1.091-1.792 1.775-2.77 2.294-.184.189-.371.292-.562.346-.026.035-.061.065-.101.11-1.479 1.203-3.111 1.885-4.802 2.201-.354.122-.745.238-1.098.378-.363.129-.574.295-.726.423-.463 1.245-1.208 2.164-2.119 2.753.031.021.078.048.117.061-.457.983-1.012 1.878-1.633 2.689-1.587-.526-3.134-.857-5.3-1.049-4.081-.385-8.906.956-11.08 3.01-1.921 1.781-3.18 4.215-4.324 6.753-.606 1.019-1.083 2.133-1.96 2.869-9.293-1.578-15.633 2.82-20.13 7.339-.133.162-.231.376-.495.398-.484-.689-1.433-.528-2.2-.734-.748-.191-1.458-.636-2.208-.82-5.568-1.337-10.356 1.645-12.615 4.58-.598.83-1.174 1.675-1.896 2.364-1.021-.542-2.126-1.722-3.582-2.121-1.829-.502-4.514-.409-7.02-.409-7.164 0-15.622-.688-20.701 1.31-1.091.409-2.339 1.22-2.62 2.192 1.273.549 2.732.397 4.09.491 4.231.309 8.724.556 13.04.731 4.906.204 8.144.687 10.518 3.274.584.635 1.221 2.103 2.189 2.434 2.185.752 4.468-1.037 5.707-1.719 1.366-.844 2.744-1.746 4.171-2.993 1.352-1.204 2.177-2.898 3.588-3.604 3.304-1.706 6.229 1.583 9.125 2.124 4.739.135 5.947-2.775 7.912-5.546.711-1 2.449-3.77 3.663-4.085 1.793-.462 3.956.706 5.313 1.325.729.325 1.502.671 2.267 1.049.771.378 1.57.937 2.371 1.054 3.798.61 5.726-2.302 7.58-4.636.656-.885 1.296-1.778 1.944-2.667-.014-.758.41-1.539 1.263-1.707l.139-.205c.049.048.083.119.13.17.037 0 .072-.013.106-.013 1.285 0 1.81 1.155 1.591 2.113 4.776 5.313 11.622 8.545 19.335 10.912.095-.011.208-.011.313.007 4.479.548 10.814-.43 13.794 3.89.833 1.194 1.76 2.355 2.755 3.475 1.681 1.511 3.358 3.266 5.085 4.836 1.643 1.372 3.385 2.634 5.172 3.81.385.189.748.334 1.13.467 3.743-.477 7.448-1.248 10.96-2.575.453-.163.889-.335 1.312-.523.703-.376 1.359-.766 1.989-1.138.184-.105.392-.206.607-.315.909-.327 1.832-.597 2.743-.785 1.052-.379 2.118-.741 3.219-.979 3.044-.68 5.872 1.117 8.445 2.942 1.884-.25 3.73-.55 5.279-1.851.832-.71 2.063-.656 2.666.346 1.624 2.673 3.899 4.829 6 7.101.364.009.75.147 1.095.469 1.086 1.029 2.309 1.772 3.625 2.327-1.256-4.969-3.089-9.773-3.219-15.02m-58.67-38.25c-.781-.97-.191-2.636 1.291-2.767 6.068-.587 13.175.444 16.766 5.916.034.084.059.147.091.217 3.395 2.204 6.532 5.059 9.612 7.27-5.196-.383-10.402-.131-15.538-.55-2.152-.446-4.27-1.025-6.47-1.206-4.882-2.054-9.476-4.46-14.234-6.596 3.145-.448 6.718-.478 8.482-2.284"/><path fill="#ffe6bb" d="m472.17 271.75l10.44-1.42-18.75 50.82-12.58 2.69h-1.77z"/><path fill="#515254" d="m545.61 332.85c-4.083-3.842-8.192-7.675-12.239-11.561-6.891-6.664-12.882-13.938-19.367-20.952-6.55-7.08-13.901-13.354-20.481-20.42-2.901-3.115-5.748-6.307-8.501-9.56-.16-.134-.335-.255-.495-.382-.486-.37-.899-.752-1.341-1.055-.54-.013-1.075-.013-1.62 0-.68.198-1.405.344-2.227.347-1.01.026-2.041.134-3.053.276-.15.045-.31.068-.44.116-1.507.456-2.929.889-4.407 1.083-.004.029-.004.048-.013.051-2.216 4.781-5.391 9.05-7.592 13.826-.636 1.373-1.242 2.723-1.842 4.113-1.628 4.484-3.188 8.979-5.169 13.357-1.563 3.513-2.821 7.05-3.954 10.725-.784 2.511-1.909 4.887-3.089 7.232-.049.146-.106.311-.153.474-.668 2.262-1.056 4.588-1.687 6.855.443.404.929.792 1.395 1.164 1.294.763 2.637 1.475 3.979 2.178 1.537.519 3.084 1.048 4.69 1.223 4.354.507 8.695.364 13.07.45 9.771.197 19.795 2.208 29.446 3.701 8.68 1.339 17.291 3.431 26.1 3.86 1.632.081 3.439.46 5.236.77 1.455.052 2.907.174 4.335.381.535-.013 1.067-.067 1.566-.163 2.32-.519 4.511-1.487 6.742-2.31 1.647-.693 3.361-1.254 5.03-1.909.006-.021.006-.021.018-.021-1.582-.948-2.994-2.355-3.932-3.849m-59.29-51.37c.037.022.074.038.111.057 1.067.653 2.052 1.389 2.999 2.16 6.127 5.916 11.677 12.771 17.02 19.215 3.753 4.536 7.02 9.41 10.977 13.793 1.429 1.573 2.921 3.074 4.435 4.565-1.145-.009-2.274 0-3.44.016-4.344.051-8.651-.551-13-.401-.226.009-.415.048-.581.127-4.969-.627-9.984-1.051-14.987-1.351-4.02-.459-8.335-.682-12.54-.548-2.632-.083-5.253-.163-7.881-.243 1.044-1.725 1.844-3.691 2.924-5.364 1.935-3.01 2.652-6.572 3.634-9.974.56-1.896 1.265-3.792 2.062-5.674.627-1.09 1.252-2.173 1.852-3.259.237-.443.462-.876.689-1.329-.09-.099-.178-.22-.249-.337 1.948-3.887 4.09-7.707 5.976-11.453m-22.681 12.787c2.076-5.243 3.438-10.716 5.774-15.871.687-1.558 1.561-3.052 2.724-4.25.006-.003.006-.013.012-.035.175-.341.362-.699.587-1.035.236-.332.539-.529.877-.627.709-.577 1.539-1 2.57-1.166.328-.055.654-.017.9.107 1.391-.468 3.04-.818 3.8-.258-.932 2.389-1.947 4.753-2.756 7.155-1.413 4.119-2.781 8.358-4.573 12.335-.667 1.471-1.464 2.848-2.279 4.224-1.396 3.02-2.938 5.992-4.261 9.05-.548 1.867-1.23 3.658-1.984 5.466-.07.182-.182.348-.299.475-.021.086-.036.166-.06.236-.938 3.618-2.185 7.103-3.418 10.63-1.664.419-3.305 1.032-4.943 1.637-.182.023-.392.055-.578.086-1.592.242-3 .866-4.456 1.421 4.413-9.747 8.421-19.593 12.363-29.577m75.923 42.76c-2.88 1.487-9.62-.143-12.946-.267-9.122-.342-18.232-2.659-27.25-4.04-8.138-1.275-16.312-2.314-24.472-3.204-3.761-.421-7.499-.335-11.268-.356-3.982-.016-7.43-1.313-11.132-2.164 1.554-.436 3.089-.997 4.625-1.555.233-.048.483-.096.727-.134.66-.083 1.311-.19 1.946-.283.065.076.137.14.219.204 7.162-.264 14.14 2.307 21.445 3.03 10.05 1.013 20.1 1.927 30.15 3.01 9.129.982 18.233 1.71 27.389 2.48.745.073 1.465.156 2.191.242.046.057.088.1.141.15.599.509 1.234.929 1.911 1.337-1.184.394-2.369.879-3.683 1.55"/><path fill="#515254" d="m201.1 56.724l.689 3.448c.403 2.02.829 3.717 1.593 5.422l.764 1.704h35.24c-.652-1.31-1.212-2.649-1.451-4.072-.435-2.587 1.86-4.806 4.117-4.178.398-.042.809-.034 1.224.039 1.669.291 3.01 1.107 4.234 2.125 3.983.469 6.874 2.807 10.667 4.123 1.89.656 3.784 1.278 5.652 1.963h31.574c1.62-3.158 4.932-4.725 7.548-6.927 1.357-1.143 2.525-2.422 3.739-3.647h-105.59"/><path fill="#515254" d="m354.56 56.724c-.413 2.208-1.207 4.417-2.158 6.562-.008.248-.024.5-.059.755l-.426 3.257h165.42v17.16l4.189-2.126c.995-.505 2.031-.772 2.992-.772l3.393.173v-25.01h-173.35"/><path fill="#515254" d="m523.13 128.41c-.431.196-.847.477-1.241.812-.458 1.384-1.286 2.521-2.396 3.25-.611 1.294-.978 2.682-.974 3.878.003 1.156-.478 1.994-1.176 2.534v157.36c3.578 2.732 7.152 5.457 10.574 8.359v-178.49l-1.188-.202c-1.068 1-2.238 1.879-3.599 2.498"/><path fill="#515254" d="m524.27 450.67c1.213-.896 2.404-1.85 3.652-2.699v-102.04c-3.221-.3-6.44-.601-9.68-.654-.069.092-.136.187-.208.271l-.687.808v107.75c2.439-.865 4.795-1.865 6.923-3.437"/><path fill="#515254" d="m85.48 355.56l-.751.691c-.855.786-1.946 1.273-3.24 1.447l-2.5.337v107.57h10.575v-112.13c-1.36.694-2.706 1.421-4.084 2.079"/><path fill="#515254" d="m507.29 480.08c-1.646.498-3.3.977-4.983 1.377-.022.004-.043 0-.065.004-1.783.301-3.538.486-5.287.961-.03.01-.053.027-.082.035 3.793.727 7.227 2.447 11.144 2.703-1.55-1.076-2-3.609-.727-5.08"/><path fill="#515254" d="m335.45 303.42c.839-.827 1.665-1.666 2.48-2.51-.23-.236-.435-.495-.611-.768-.603 1.106-1.218 2.203-1.869 3.278"/><path fill="#515254" d="m81.952 236.33c.478-.243.969-.505 1.47-.757 1.445-2.342 3.667-3.306 6.138-2.605v-22.767c-3.599-.413-7.176-.885-10.575-2.127v28.46l2.276.142c.229-.116.461-.229.691-.346"/><path fill="#515254" d="m100.41 56.724h-21.427v76.71c3.606-.103 7.093-.722 10.575-1.478v-64.66h16.442c-2.209-3.298-4.064-6.883-5.59-10.574"/><path fill="#515254" d="m82.26 296.38c1.148-1.684 2.15-3.143 2.439-3.498.613-.698 1.216-1.387 1.842-2.062-1.61 1.632-3.08 3.563-4.281 5.56"/><path fill="#515254" d="m155.89 305.54c.218-.143.502-.244.822-.263 3.33-.18 6.414-1.775 9.333-3.288.15-.058.263-.15.403-.236 1.083-.836 2.284-1.949 3.269-3.094.811-1.208 1.416-2.578 1.892-3.974.084-.243.197-.423.333-.589.103-.422.22-.834.319-1.245.069-.345.157-.691.221-1.038 0-.023.004-.046.004-.059v-.045c0-.014 0-.014 0-.023-.156-.666.104-1.213.525-1.561 0-.307.039-.648.039-.974 1.469.381 2.997.711 4.63.974.313.053.636.093.953.142-.971-3.036-1.851-6.103-2.773-9.154-8.372-4.273-16.263-9.561-27.05-11.387-5.444-.924-11.793-1.257-17.989-.799-5.936.416-11.51 1.46-16.436 2.73-9.906 2.567-18.881 6.465-26.309 12.01-3.631 2.731-6.632 5.805-9.821 9.345-1.541 1.721-2.759 3.71-3.799 5.918-.125.174-.229.375-.336.579-.479 3.02-.74 5.781-.608 8.858 3.124-1.383 6.505-2.688 9.698-3.276.057-.088.12-.171.166-.264 0-.048-.014-.125-.014-.183 0-.364.025-.741.079-1.09.042-.749.211-1.491.442-2.223-.079-.261-.09-.52-.04-.839.307-1.863 1.363-3.514 2.712-4.829 2.519-3.798 5.766-6.955 9.591-9.279 6.466-5.05 14.215-9.02 21.674-11.197.178-.043.338-.127.469-.217.885-.154 1.777-.298 2.688-.416 7.555-.892 15.05.245 21.439 2.257 4.084 1.294 7.878 2.775 11.552 4.372.127.286.36.552.735.746 3.317 1.696 6.548 3.471 8.585 6.74.51.834.813 1.632.963 2.363.664 1.502.576 3.02 0 4.424-.05 1.358-.405 2.631-1.726 3.558-.857.58-1.839.958-2.854 1.164-2.832 1.53-6.231 1.908-8.571.185-.876-.217-1.571-.755-1.891-1.821-1.326-1.027-1.439-3.429.125-4.746 1.847-1.562 3.886-1.409 5.87-.678-.712-.676-1.475-1.464-2.355-1.729-.972-.278-1.925-.263-2.927-.254-.096 0-.179-.024-.266-.038-.376.07-.742.156-1.118.269-.628.277-1.284.702-1.937 1.337-2.561 2.479-2.371 6.724-.422 9.461 2.193 2.274 5.945 3.259 8.949 3.369.244.015.505.015.762.002"/><path fill="#515254" d="m180.59 333.56c1.919 1.699 3.792 3.437 6.375 4.401.793-.014 1.531-.058 2.146-.12 1.221-.124 2.02-.272 2.548-.564-.014-.091-.041-.173-.048-.269-.089-2.074-.411-4.115-.668-6.162-1.772.444-3.537.898-5.291 1.368-1.687.452-3.379.894-5.062 1.346"/><path fill="#515254" d="m158.28 343.43c-.727.626-1.433 1.288-2.151 2-.737.756-1.638 1.479-2.237 2.427h4.665c-.092-1.477-.188-2.953-.277-4.43"/><path fill="#515254" d="m155 321.41c-3.123-.483-6.467-1.277-9.1-2.818-1-.233-2.02-.446-3.045-.588-.125.018-.272.02-.447.018-6.614-.62-11.259 4.592-11.885 10.777.708.321 1.6.217 2.11-.628 1.61-2.648 2.907-4.73 4.875-5.891.396-.095.853-.081 1.214-.081.855-.014 1.697.068 2.545.079.162.102.342.188.576.235 4.427.822 5.102 5.676 1.606 7.81-.28-.039-.545-.07-.798-.099-2.135-.294-2.111 3.082 0 3.359.083.002.168.02.243.02.34.16.74.217 1.163.121 1.844.135 3.888.019 5.291-1.181.059-.042.097-.092.146-.119 1.619-1.838 3.214-4.02 5.13-5.681-.079-1.801-.048-3.617.374-5.333"/><path fill="#515254" d="m143.73 326.44c-.171-1.429-1.252-1.979-2.498-2.249-.85-.185-2.424-.411-3.604-.081-.074.186-.206.381-.375.557-.869.832-1.059 2.155-.654 3.269.173.312.365.593.585.854.9.679 2.396.415 3.447.201 1.283-.275 3.265-.84 3.099-2.551"/><path fill="#515254" d="m290.1 220.88c-.036-.029-.076-.051-.11-.082-1.661-1.437-3.07-3.24-4.812-4.582-3.697 3.504-6.654 7.683-10.452 11.06-3.444 3.063-7.939 5.97-9.154 10.663-.02.077-.054.138-.078.211 1.513.53 3.276.365 4.799-.994 2.803-2.5 5.621-5.819 8.764-8.507-.647 2.74.852 6.069 4.5 6.069 5.94 0 6.185-8.823.738-9.559.796-.363 1.615-.659 2.462-.867 2.02-.495 3.06-1.866 3.343-3.413"/><path fill="#515254" d="m310.21 229.38c.37-.335.846-.6 1.449-.747 2.396-.581 4.598.408 6.731 1.414 1.781.84 3.646 1.314 5.295 2.306.099-.244.186-.494.249-.75-7.531-5.625-15.492-10.632-23.773-15.09-.1-.054-.175-.12-.266-.178-1.744 2.365-1.417 6.607 2.248 7.955.186.068.366.148.549.223-.443 2.665 1.082 5.717 4.574 5.717 1.182 0 2.137-.351 2.868-.917.027.019.051.041.076.062"/><path fill="#515254" d="m271.47 263.35c2.524 3.641 8.392 2.521 12.245 2.778 8.458.565 17.677 1.171 26.25.217.138-1.314-.193-2.684-.993-3.707-7.964.137-15.919.585-23.853-.405-2.758-.344-6.994-.251-9.406-1.884-1.879-1.271-2.958-2.928-4.01-4.804-.675.109-1.322.341-1.893.676.186 2.463.348 5.222 1.67 7.129"/><path fill="#edf3d3" d="m438.62 488.47c-4.692-6.355-11.272-11.361-17.612-16.02.419-20-13.699-36.689-18.678-55.52-3.057-11.558-2.993-24.564-3.584-36.448-.687-13.831-.779-27.685-.851-41.529-.068-13.06-.183-26.11-.325-39.17-.137-12.501-.437-25.14 1.929-37.476 1.495-7.792 3.949-15.352 7.01-22.715.656-1.408 1.275-2.835 1.854-4.275 4.211-9.345 9.311-18.374 14.571-27.15 7.526-4.04 12.503-11.583 8.966-20.532-2.974-7.524-12.899-9.924-17.57-2.297-1.446 2.362-2.896 4.739-4.338 7.125-3.855.89-7.82 1.189-11.706 1.916-6.525 1.219-8.235 8.974-5.745 14.12 1.664 3.439 1.357 8.283.263 12.862-1.556 6.502-4.648 12.457-7.992 18.2-7.145 12.263-16.396 21.42-23.611 33.718-6.921 11.8-10.978 24.531-13.362 37.669-2.772-6.462-11.546-8.446-16.821-1.278-7.558 10.271-22.23 15.07-34.34 16.532-13.354 1.609-29.27-.182-40.3-8.445-3.11-2.33-7.482-1.633-10.569.627.18-1.249.074-2.555-.395-3.854-8.94-24.814-28.09-42.707-42.767-63.979-3.879-5.623-6.84-11.462-9.697-17.642-2.628-5.683-6.389-11.542-7.89-17.551-.776-3.108-.939-8.807-2.185-13.368-1.575-5.766-5.598-10.533-11.467-12.09-11.362-3.03-16.513 13.441-6.859 17.901.469 1.651.614 3.095.728 4.04.661 5.431 1.484 9.849 3.623 14.88 4.795 11.285 9.995 22.667 16.771 32.917-1.275 1.512-2.079 3.57-2.079 6.188 0 2.059.55 3.693 1.383 5.155 3.168 7.546 7.513 14.549 12.291 21.22 2.346 7.975 2.841 16.259 3.973 24.512 2.984 21.766 8.197 42.542 5.969 64.68-2.089 20.752-10.312 39.962-17.16 59.42-3.414 9.693-7.078 19.234-12.191 28.18-4.609 8.06-13.388 12.791-17.302 21.418-2.63 5.797-.581 12.04 5.745 14.12 9.1 2.988 16.422-2.59 25.354-2.658 10.513-.082 21.06 1.34 31.602 1.381 22.459.09 44.851-2.236 67.31-2.225 46.594.027 93.17 1.896 139.76 1.924 6.696.001 12.772-8.413 8.301-14.467"/><g><path fill="#515254" d="m516.28 468.17c.046-.012.09-.01.135-.023"/><path fill="#515254" d="m515.67 468.26c.011 0 .021.004.032.002"/><path fill="#515254" d="m539.64 474.9c-.183.27-.405.531-.719.773-4.286 3.312-8.784 5.744-14.162 6.771-4.871.928-9.996 2.875-14.894 3.227-3.326.24-4.619-4.771-1.698-6.27 4.803-2.459 9.954-4.551 13.979-8.246 1.87-1.715 5.535-5.59 6.676-9.102-.566.311-1.146.605-1.732.893-2.961 2.047-6.02 3.889-9.601 4.82.365-.094.724-.203 1.079-.314-2.459 1.201-5.363 2-7.445 2-.552 0-1.045-.055-1.456-.176-.577.1-1.151.137-1.726.137-1 0-1.995-.111-2.994-.207-.111.055-.223.109-.329.174-13.895-1.578-27.716-6.541-39.1-14.689 1.421.408 2.829.855 4.211 1.387 1.23.59 2.456 1.145 3.669 1.656.674.285 1.339.418 1.978.434 4.557 1.635 9.281 1.912 14.1 1.912 2.057 0 4.129-.051 6.214-.066 1.149-.01 2.079-.354 2.802-.898-9.796-.744-20.695-3.375-28.66-8.846-4.125-2.832-7.801-6.182-11.366-9.684-1.898-1.865-3.511-3.912-5.103-5.973-.208-.469-.502-.93-.897-1.369-2.828-3.145-5.254-6.564-7.304-10.229 2.983.893 5.984 1.719 8.996 2.52 2.7.719 4.717 1.912 7.295 1.912.139 0 .28-.002.423-.01 4.861 1.025 9.883 1.467 14.183 1.52.755.01 1.506.016 2.253.016 7.36 0 14.372-.525 21.18-3.123 0-.002 0-.004 0-.004-7.669-2.156-15.748-2.59-23.279-5.227-7.712-2.699-15.493-5.328-22.832-8.949-1.101-.543-1.601-1.398-1.688-2.299-.582-.348-1.166-.689-1.738-1.059-5.84-3.764-10.407-9.646-13.01-16.07-.459-1.134-.812-2.287-.942-3.483.042-.003.075-.005.121-.007.221-.008.441-.014.662-.014 2.896 0 5.825.734 8.623 1.35 6.089 1.34 12.05 3.393 18.239 4.22 2.197.294 4.445.44 6.705.44 5.851 0 11.789-.98 17.18-2.933 3.515-1.272 6.603-3.01 9.267-5.12 1.754-.957 3.42-2.072 4.956-3.297 2.966-2.362 5.084-6.375 6.973-9.872 2.519-7.718 1.604-16.286-.313-24.17-.734-.382-1.444-.84-2.118-1.367-.87-.331-1.743-.65-2.619-.959.158 2.74-.152 5.489-1.085 8.142-2.124 6.04-7.555 12.13-13.893 14.366 0 .001 0 .001-.001.002-.003.001-.005.001-.007.001-1.525.538-3.103.859-4.699.896h-.018c-.082 0-.157-.011-.236-.015-.435.052-.87.102-1.313.143-1.809.168-3.604.247-5.389.247-7.528 0-14.873-1.401-22.2-3.421-13.812-3.81-35.582-11.955-41.45-27.1 13.391 1.673 27.29 7.334 40.39 7.334 1.753 0 3.49-.102 5.212-.328.388-.565.981-1.024 1.836-1.253 3.703-.992 7.03-2.142 10.03-3.884-.174-.037-.348-.079-.522-.116-17.774-.308-43.701-2.958-53.771-18.215-.496-.465-.98-.951-1.438-1.48-.05-.058-.079-.119-.126-.178-8.658-7.36-11.498-20.438-11.273-31.362.026-1.291-.372-2.308-1.016-3.06.18-1.199.357-2.397.543-3.594 1.109-7.173 2.33-14.329 3.553-21.482 1.134-6.638 1.896-13.403 4.217-19.756 3.496-9.572 10.79-17.531 16.43-25.861 5.861-8.654 9.678-18.224 9.599-28.786-.02-2.688-2.59-4.885-5.098-4.885-1.128 0-2.242.444-3.107 1.486-.229.276-.473.583-.722.902.164-.657.309-1.321.424-1.993.424-2.468-1.125-5.584-3.606-6.131.125-.279.253-.556.369-.844-.55-.097-1.1-.207-1.651-.351-1.396-.363-2.539-1.775-2.471-3.245.53-11.337 3.438-22.09 8.201-32.35 2.307-4.971 7.608-15.683-1.026-16.8-2.273 3.319-4.639 6.574-6.628 10.08-2.02 3.557-3.786 7.209-5.375 10.934-1.489 4.01-2.942 8.03-4.504 12.02-.812 2.447-1.584 4.913-2.323 7.394-.257.86-.912 1.583-1.714 2.03-.143.301-.276.606-.422.907-.456.939-.956 1.919-1.558 2.8-.616-1.095-1.02-2.351-1.299-3.678-.227-.151-.44-.337-.632-.573-4.255-5.27-3.94-11.515-6.188-17.589-2.578-6.965-7.408-12.762-9.697-19.875-1.532 1.042-3.03 2.129-4.379 3.364.143 1.278.35 2.546.574 3.822.853 4.834 1.717 9.667 2.699 14.476 1.671 8.192 5.347 15.66 7.243 23.728 1.467 3.814 2.675 7.705 3.155 11.804.032.272.088.528.154.777-.935 1.072-1.777 2.234-2.479 3.53-5.949 10.98 1.985 23.771-4.886 34.494-7.06 11.03-15.23 21.365-22.16 32.521-1.183 1.905-2.257 3.861-3.292 5.838-4.4-9.347-5.349-20.498-6.846-30.528-.815-5.468-1.913-10.883-2.644-16.358.699-22.716-20.457-33.578-41.24-38.16-5.43-1.659-11.09-2.79-16.618-2.79-.955 0-1.907.034-2.854.105-.205.015-.384.062-.574.095-.659-.914-1.6-1.616-2.634-1.846-1.134-.252-2.273-.369-3.413-.369-8.315 0-16.666 6.168-23.2 10.411-8.767 5.691-15.805 12.634-18.247 23.09-1.633 6.994-1.658 14.229-1.593 21.458-1.195 2.262-2.226 4.616-3.039 7.086-.85 2.583.771 4.826 2.929 5.684-.045.894-.099 1.786-.173 2.674-.599 7.235-4.24 13.65-7.194 20.13-2.783 6.101-4.983 12.299-6.207 18.878-14.05-17.11-25.616-36.33-37.24-55.06-2.042-3.289-3.963-6.702-5.281-10.35-.102-.282-.172-.571-.255-.857.172.021.346.032.52.032 2.462 0 5.068-2.111 5.305-4.85.724-8.347.215-17.262-5.814-23.666-2.499-2.655-5.744-4.273-9.25-5.26.546-1.242 1.01-2.6 1.4-4.04-.163-.385-.267-.823-.275-1.324-.056-3.484-.266-6.922.15-10.389.145-7.627.256-15.251-.365-22.854-.331-1.719-.646-3.455-1.01-5.24-.443-2.178-1.634-9.772-4.958-9.773-.299 0-.616.062-.951.194-1.044.414-1.878.998-2.571 1.687-.804 10.228-.833 20.506-.612 30.762.046.932.077 1.864.062 2.795-.014.894-.312 1.592-.762 2.117.32 1.646.568 3.364.573 4.893-5.244-3.448-10.358-7.087-15.469-10.732-6.708-6.511-13.241-13.293-22.52-15.767-.164 1.515-.631 2.896-1.066 4.641-.792 3.185 1.974 5.079 4.431 6.475 4.605 2.618 8.692 5.04 12.535 8.746 3.708 3.578 8.104 8.158 8.658 13.565.204 1.989-.255 4.246-1.822 5.655-.851.765-3.27 1.84-3.585 2.93-.043.15-.108.276-.164.411-.023.067-.05.128-.076.19-.031.062-.061.125-.094.184-.199.392-.464.696-.78.919-.042.033-.086.06-.129.09-.062.038-.122.08-.188.112-.191.113-.391.206-.6.275-.32 1.204-.229 2.53.403 3.676.713 1.292 1.555 2.478 2.471 3.603-2.904 1.147-4.581 4.708-1.719 7.625 5.529 5.632 10.456 11.789 15.381 17.944.251.314.516.577.789.797-.118.855-.02 1.775.382 2.717 16.194 37.929 28.667 77.6 34.39 118.4-3.553 1.637-7.441 2.514-11.289 2.514-3.878 0-7.716-.89-11.13-2.787-1.058-.022-2.132-.505-3.049-1.64-.325-.402-.642-.82-.955-1.245-.476-.444-.912-.902-1.314-1.37-.995-.519-1.762-1.502-2.01-3.03-.081-.498-.158-.992-.233-1.486-3.618-7.455-4.776-16.27.138-22.617-1.886 1.446-3.475 3.377-4.658 5.445-2.698 4.713-2.756 9.942-2.23 15.241.555 5.598 1.452 11.131 2.149 16.707.322 2.575.436 5.133-.026 7.588.779 5.937.535 11.926-3.398 15.574-2.776 2.575-7.271 3.229-11.455 3.229-1.998 0-3.925-.149-5.561-.31-8.03-.79-17.553-3.951-23.73-9.278-.214-.185-.416-.371-.613-.559-.243-.188-.47-.415-.679-.683-2.884-3.09-3.691-6.545-3.21-10.116.252-.658.525-1.312.81-1.965.324-4.401 1.767-8.782 3.905-12.888-.774-.457-1.442-1.023-2.01-1.669-1.917 1.993-3.779 4.04-5.329 6.29-5.613 8.134-8.164 17.918-8.557 27.703.631 4.066 1.813 8.03 3.518 11.697 7.209 15.511 25.292 20.572 39.736 27.953-5.454 5.061-13.07 7.722-20.602 7.722-5.086 0-10.131-1.214-14.443-3.722-2.358-.97-4.551-2.244-6.338-4.049-4.352-4.395-5.162-9.608-6.366-15.08-.014 0-.027-.004-.042-.004-.097 0-.195.01-.293.018.03.227.052.458.053.704.061 11.491 1.363 23.419 9.888 31.929.351.352.623.719.838 1.092 4.306 3.344 9.189 5.916 14.273 8.258 3.295 2.221 7 3.744 10.865 4.873-.188.088-.383.172-.603.23-3.703 1.018-7.279 2.641-11.03 3.457-3.254.709-6.539 1.082-9.849 1.367-2.044.404-4.137.594-6.233.594-3.159 0-6.325-.432-9.346-1.227-.192.344-.348.709-.459 1.092 5.277 1.691 10.08 5.322 15.592 6.01.368.047.723.127 1.068.229.021.031.048.057.07.088 2.706.303 5.365.861 8.099 1.029.761.047 1.521.066 2.28.066 2.186 0 4.368-.166 6.55-.346.816.098 1.636.143 2.458.143.13 0 .261-.002.392-.004.014.008.03.012.044.016.065-.004.121-.018.188-.02 1.58-.021 3.174-.16 4.728-.479 2.214-.355 4.435-.834 6.649-1.229-2.476 2.66-5.322 5-8.207 7.369-.413 1.066-1.101 1.904-2.059 2.549-.017.029-.03.059-.048.086-.228.627-.654 1.211-1.368 1.658-6.215 3.877-13.858 4.656-20.888 6.205-9.183 2.02-18.464 3.477-27.769 4.814-.788.111-1.562.209-2.324.291-2.284.246-4.465.35-6.608.309-2.909-.053-5.744-.367-8.659-.963-1.163-.5-2.317-.947-3.498-1.279-4.188-.459-8.354-1.451-12.482-2.354-3.118-.553-6.199-1.293-9.236-2.299 2.784 2.85 6.104 5.05 9.747 6.793.034.045.056.09.093.133 2.227 2.607 5.443 3.525 8.348 5.18 3.457 1.969 6.765 3.91 10.562 5.16 6.602 2.17 13.952 2.57 21.05 2.977-2.073 1.779-4.108 3.598-6.072 5.506-.867.391-1.745.766-2.637 1.113-.298.117-.603.219-.903.332-.764.281-1.533.555-2.312.807-.295.096-.59.189-.886.279-.962.295-1.932.572-2.913.822-10.645 2.711-22.25 2.725-32.509.338-.332.033-.662.074-.997.1-.124.211-.255.416-.363.635 8.717 3.293 18.84 3.109 27.935 2.754 1.914-.074 3.825-.139 5.737-.207 2.756-.1 5.511-.189 8.265-.273 1.057-.031 2.114-.062 3.171-.09 1.922-.055 3.845-.105 5.768-.15 2.239-.051 4.478-.092 6.717-.129.933-.016 1.865-.035 2.798-.047 3.35-.047 6.702-.074 10.06-.08h.002c.39-.002.778-.008 1.168-.008.931 0 1.656.312 2.186.801 3.824-.195 7.7-.207 11.375.438 7.253-1.234 14.722-.213 22.18.693 1.59.195 3.176.418 4.763.633h316.75c.437-.236.949-.389 1.556-.4 3.903-.082 7.642-.725 11.398-1.424.539-.639 1.339-1.08 2.421-1.1.311-.006.616-.027.925-.041 1.692-.311 3.399-.518 5.111-.68 3.049-.609 6.06-1.471 9.176-1.697.386-.029.764-.064 1.144-.096 3.938-2.289 8.152-3.941 12.43-5.535 4.976-1.852 9.259-4.703 14.1-6.752 1.131-.48 2.214-.334 3.098.141.089-.045.178-.096.267-.141.155-.082.307-.131.459-.186 1.033-1.037 2.01-2.158 2.844-3.393 1.103-1.627 2.08-3.283 2.974-4.83l4.452-7.705-6.897 3.077m-365.15-261.71c-.293-.367-.881-1.1-.881-1.1 1.731-2.323 2.086-5.517.675-8.317-.281-.559-.581-1.095-.894-1.61.309-.045.616-.105.919-.182.114.232.213.465.296.698.656 1.848.623 4.235.59 6.545-.012.839-.023 1.667-.006 2.468.021.969.089 1.927.199 2.874-.248-.477-.548-.938-.898-1.376m80.32 20.13c3.267-4.887 5.892-10.182 9.02-15.16 2.39-2.575 4.852-5.06 7.19-7.497 4.03-4.213 7.957-8.481 11.663-12.988.654-.796 1.309-1.675 1.987-2.568.856-.992 1.683-2 2.485-3.034 1.399-1.514 2.965-2.802 4.847-3.424.817-.27 1.678-.389 2.561-.389 1.887 0 3.881.542 5.812 1.306.402.62 1.025 1.165 1.904 1.569 2.772 1.277 5.678 2.719 7.271 5.437.317.541.444 1.039.467 1.493.942 1.581 1.326 3.171.773 4.916-.059 1.938-1.187 3.946-3.204 4.396-.471.104-.957.157-1.443.157-1.999 0-4.01-.885-5.04-2.666-1.027-1.779-.6-3.862.468-5.499-2.169.725-3.774 2.755-2.786 5.557 1.6 4.535 4.767 6.425 8.183 6.425 3.655 0 7.599-2.164 10.219-5.569.964-1.253 1.605-2.723 1.975-4.27.575.47 1.146.942 1.717 1.415 1.724 1.431 3.436 2.883 5.154 4.332.18.583.471 1.161.906 1.711 4.531 5.722 8.732 11.78 11.652 18.448 1.611 2.287 2.854 4.845 3.322 7.382.043.233.058.462.053.688 3.211 7.283 2.857 16.04 1.55 23.853-.059.347-.166.644-.302.911-1.046 9.839-.625 19.886-4.477 29.2-1.898 4.59-3.676 9.58-6.895 13.442-1.573 1.887-3.425 3.495-5.368 5-3.353 5.247-8.205 11.322-13.959 12.614-.65.146-1.293.24-1.933.301-5.138 2.051-10.586 3.252-16.367 3.252-1.497 0-3.02-.08-4.558-.248-1.23-.133-2.45-.321-3.659-.555-.042-.247-.117-.491-.215-.734-9.852-1.312-16.705-10.154-20.838-18.802-2.968-6.211-4.632-12.732-5.814-19.375-3.433-10.224-5.08-21.241-5.379-32.634-.021-.774-.189-1.451-.467-2.032 1.272-5.231 1.53-10.787 1.518-16.365m-76.31 261.77c2.25-15.861 10.302-30.477 18.09-44.617 2.292-4.16 4.662-8.461 6.835-12.713 3.483-6.811 6.195-12.955 8.27-18.76.042-.34.161-.689.359-1.044 1.115-3.22 2.048-6.345 2.789-9.42.083-.34.146-.682.222-1.022.02-1.738-.059-3.498-.075-5.245-.057-5.974.343-11.933.507-17.901.101-3.691.086-7.397.003-11.11-.555-.71-.851-1.646-.643-2.752.2-1.066.338-2.136.449-3.206-.282-6.585-.758-13.167-1.29-19.692-.025-.306-.007-.584.034-.847-4.425-35.04-14.184-71.56-29.593-110.65 1.205 1.847 2.438 3.645 3.638 5.395.893 1.302 1.775 2.588 2.623 3.86 2.426 3.643 4.765 7.461 7.03 11.155 2.402 3.923 4.887 7.98 7.514 11.892 8.943 13.316 17.69 24.409 26.721 33.885.113.531.214 1.063.312 1.595 3.14 3.089 3.513 7.712 2.802 12.478.17 6.248-1.126 12.81-1.987 18.429-.951 6.214-3.116 10.805-6.264 16.04-.368 2.079-.746 4.152-1.166 6.214-1.679 8.232-3.338 16.527-2.743 24.922.493-2.176 1.094-4.307 1.839-6.369 1.362-3.774 3.472-7.135 5.572-9.87 1.527-6.679 6.563-10.888 10.173-16.444 2.394-3.685 2.658-7.151 3.308-11.413.59-3.87 1.994-7.498 2.394-11.417.031-.301.108-.58.207-.846.081 1.372.06 2.772.044 4.198-.049 4.443.294 8.865.554 13.296.444 7.555-1.531 15.14-.255 22.616-.366 1.85-.74 3.692-1.117 5.52-.61 2.957-1.241 6.01-1.805 9.03-1.791 9.573-2.589 18.679-2.441 27.836l.003.223.395 2.275c.35 1.998.71 4.064 1.01 6.092.513 3.475.963 7.04 1.398 10.481l.499 3.92.167.381c.087.199.135.354.16.52l.169 1.125c.93 6.213 1.893 12.639 4.243 18.643 1.472 3.758 3.355 7.05 5.158 10.1l9.503 16.08-4.21-18.199c-1.407-6.078-1.723-12.191-1.99-19.551-.088-2.424-.308-4.859-.521-7.215-.458-5.068-.891-9.857-.116-14.536l.062-.379-.097-.957c-.047-.459-.095-.92-.135-1.381.201-3.619.827-7.215 1.657-10.664.664 2.152 1.406 4.299 2.223 6.432 1.215 3.169 2.918 6.262 5.522 10.03l.098.133c.914 1.172 1.907 2.422 2.964 3.709.225.133.446.289.66.486 5.647 5.211 12.08 8.17 19.13 10.02l.104-.199c-2.473-1.521-4.97-3.77-7.426-6.684-4.259-5.05-6.89-12.12-7.82-20.997l-.328-3.076c-.956-8.902-1.944-18.11-1.165-26.682.499-5.485 1.374-11.07 2.22-16.482.67-4.275 1.362-8.697 1.875-13.09l.027-.23-.011-.232c-.255-5.761-.833-10.747-1.788-15.294 6.896 2.468 13.75 3.716 20.441 3.716.913 0 1.837-.023 2.746-.07 16.1-.815 28.655-9.304 39.739-18.887.376 2.448.811 4.883 1.271 7.31.572.381 1.046.961 1.306 1.787 2.957 9.391 5.401 18.862 9.729 27.796 2.914 6.01 7.105 15.16 14.373 16.661l.379-.175c-3.452-3.844-5.438-9.48-6.74-14.1-1.118-3.963-1.074-8.06-1.183-12.15-.318-3.482-.492-6.989-.666-10.614-.053-1.086-.104-2.172-.161-3.26l-.09-1.631c-.096-1.663-.217-3.629-.392-5.612-.018-.191-.013-.368.015-.54l.063-.413-.056-.415c-.011-.079-.023-.158-.041-.239-.269-2.497.097-5.04.483-7.738.069-.477.236-1.683.236-1.683l-.01-.253c-.146-3.658-.061-7.674.268-12.641.03-.451.069-.901.114-1.35 2.037-2.441 3.97-4.885 5.755-7.275 4.101-5.492 7.243-11.47 10.281-17.25 1.833-3.488 3.729-7.095 5.797-10.509 5.107-8.437 10.634-16.75 16.423-24.708l.552-.757c5.087-6.98 9.891-13.573 10.202-23.528.071-2.286-.157-4.666-.378-6.968-.061-.641-.123-1.287-.178-1.933.472.085.953.129 1.438.129 1.497 0 2.875-.438 3.984-1.264.828-.617 1.65-1.273 2.477-1.977.229.349.483.678.763.983 1.32 1.443 3.114 2.237 5.05 2.237.203 0 .409-.008.621-.026.074-.006.149-.013.225-.02-2.458 4.684-5.627 9.172-8.929 13.85-4.935 6.988-10.04 14.215-12.788 22.459-1.573 4.715-2.302 9.688-3.01 14.498-.251 1.712-.501 3.415-.787 5.091-1.604 9.387-2.774 16.566-3.797 23.276-2.503 16.432-4.071 31.05-4.791 44.684-1.536 29.08-1.985 60.13 5.061 90.11 3.03 12.9 8.382 25.984 16.354 40 1.161 2.039 2.387 4.047 3.572 5.986 2.366 3.871 4.601 7.527 6.41 11.5 2.116 4.643 3.632 9.756 5.099 14.699.336 1.133.672 2.266 1.015 3.393h-244.79z"/></g></g></switch></svg>