<svg xmlns="http://www.w3.org/2000/svg" viewBox="0 0 500 500" enable-background="new 0 0 500 500"><switch><g><path d="m401.13 177.21c-.321-5.511-.887-11.01-1.438-16.498-.276-2.757-.536-5.514-.737-8.278-.088-1.159-.185-2.318-.272-3.481-.039-.575-.322-1.721-.38-2.591.204-.059.341-.286.217-.507-.097-.172-.104-.51-.172-.711-.068-.202-.191-.341-.348-.429 0-.042 0-.084 0-.126-.02-.767-1.188-.773-1.198 0-.003.172-.003.341-.003.513-.63.747-.532 2.065-.562 3-.082 2.644.106 5.303.282 7.943.152 2.345.341 4.689.532 7.04.296 9.119.686 18.235.497 27.368-.059 2.695-.165 5.401-.354 8.096-.156.75-.335 1.5-.521 2.254-.63-.163-1.344-.033-1.916.471-6.154 5.362-14.233 7.82-21.492 11.318-7.563 3.647-13.644 9.824-21.477 13.01-.416.169-.73.419-.948.711 1.491 1.104 2.78 2.455 4.086 3.822 1.818 1.51 3.595 3.072 5.222 4.764 1.361 1.052 2.758 2.049 4.131 3.085 1.553 1.169 3.413 2.306 4.355 4.03 5.689-.64 11.341-1.556 16.894-2.952 3.787-.955 7.428-2.228 11.06-3.53.295-1.63.539-3.277.721-4.933.64-2.28.987-4.719 1.228-7.109.507-5.134 1.208-10.146 1.929-15.26.582-4.128 1.046-8.694.722-13.07.645-6.06.271-12.382-.057-17.948"/><path d="m58.43 293.28c-1.445.016-2.887.126-4.326.418-2.065.426-4.771.994-5.384 3.388-.513 1.978-.354 3.962-.039 5.956.737 4.589 1.367 9.178 1.861 13.773.052.331.107.659.163.99.016.221.029.438.048.666.013.032.033.062.049.094.809 2.173.958 4.518.916 6.862.016.029.039.059.048.098.835 2.815.89 5.407 1.241 8.298.318 2.571 1.03 5.095.565 7.687-.062.351-.344.581-.679.683-1 2.282-4.465 4.03-6.297 5.163-1.841 1.144-3.907 2.237-4.972 4.231-.351.649-.584 1.306-.76 1.969.013 1.169.828 1.627 1.828 1.64 2.293-1.627 4.524-3.329 6.557-5.307.753-.733 2.137-.228 2.107.874-.075 3.169-.763 6.222-1.49 9.271.02.02.029.049.048.068-.435 1.338.818 2.352 1.936 1.98.202-.106.422-.243.64-.393.081-.071.149-.156.217-.25.874-1.201 1.669-2.438 2.417-3.699.503-1.971.513-4.189.87-6.05.052-.305.208-.52.413-.655-.016-.582-.013-1.16.062-1.761.075-.652.627-1.27 1.351-1.032 2.342.767 3.991 2.283 5.81 3.884.27.23.536.465.809.688.228-.022.474.02.728.179 1.059.64 2.107 1.289 3.15 1.952 1.042.207 1.926-.065 2.576-.607.253-.607.309-1.198.221-1.757-.61-.955-1.38-1.861-2.156-2.734-.896-.588-1.79-1.137-2.647-1.653-1.848-1.134-4.319-2.637-5.466-4.689-.253-.088-.506-.162-.75-.221.003-.072 0-.144 0-.215-.153-.084-.289-.211-.364-.38-2.023-4.706-2.481-9.775-2.54-14.857-.02-1.384-.017-2.777-.026-4.167-.418-2.033-.743-4.108-.643-6.184-.588-2.715-1.172-5.427-1.695-8.154-.253-3.192-.455-6.389-.5-9.584 1.899.669 3.852 1.198 5.79 1.757 3.514 1.529 6.97 3.215 10.5 4.719 1.738 1.12 3.453 2.28 5.268 3.261 1.172-3.046 2.312-6.099 3.565-9.116.361-.89.734-1.821 1.13-2.764-7.351-1.556-14.694-3.492-22.15-4.316"/><path d="m49.07 321.63c-2.468.233-4.946.409-7.437.546-.861.185-1.728.317-2.585.341-.686.013-1.384-.046-2.079-.146-2.26.071-4.524.114-6.774.091-.491.01-.815-.243-.975-.584-.052.016-.11.029-.159.042-.607.175-1.179-.309-1.195-.909-.02-.624-.045-1.254-.091-1.877-.107.016-.211.035-.315.052-1.5-3.524-2.614-7.197-3.822-10.851-.542-1.63-3.202-1.432-3.102.416.104 2 .789 3.66 1.663 5.222.221.649.451 1.293.685 1.936-2.358-2.825-4.358-5.924-7.04-8.505-1.734-1.676-4.982.591-3.452 2.666 2.829 3.835 6.271 7.466 8.521 11.685 2.248 4.202-4.3 6.316-7.174 7.457-2.494.909-1.367 4.956 1.101 3.984.168-.068.347-.137.529-.204 1.286-1.01 2.803-1.663 4.352-2.202.471-.166.961-.364 1.455-.571 1.253-.796 2.377-1.719 3.183-2.826.935-.328 1.861-.604 2.708-.841.126.026.26.042.406.042.981.004 1.962.014 2.946.017 2.608-.938 6.209-.399 8.59-.396 2.738.004 7.443-1.581 10.285-.341-.045-1.419-.119-2.825-.22-4.244"/><path d="m113.83 233.75c-.341.114-.698.185-1.075.214-.789.409-1.887.409-2.734.267-.049-.01-.091-.026-.143-.039-.143.006-.286.013-.435.016-.02 0-.036-.003-.055-.003-1.725.39-3.501.611-5.212.789-4.183.422-8.375.475-12.572.491-.123.656.114 1.374.757 1.851.341.419.848.714 1.429.75.101.003.201.007.305.013 4.936 1.913 10.116 3.381 15.303 4.715-.023.059-.039.12-.059.172 1.146.425 2.303.815 3.491 1.14.045-.133.097-.26.156-.39 1.598.406 3.196.812 4.771 1.215.292.078.587.152.876.227-2.923-2.533-4.297-7.28-4.803-11.428"/><path d="m447.11 361.12c.454-.728.841-1.475 1.179-2.237.721-1.507 1.296-3.056 1.666-4.667.601.225 1.202.451 1.799.679.715.432 1.498.796 2.124.929 1.296.273 2.455-1.331 1.364-2.345-.98-.899-1.52-2.117-1.86-3.377.539-.163.87-.602.87-1.332v-.064c0 .299.201-.276.201-.276.152-.514.299-1.01.37-1.543.049-.393-.071-.841-.123-1.117-.068-.36-.13-.718-.198-1.071-.003-.032-.02-.052-.022-.091.006-.085.02-.182.029-.27.022-.153.048-.303.067-.455-2.036.646-4.183.708-6.304 1.017 0 .095-.006.186-.006.272-.27.27-.448.637-.471 1.06-.056 1.098-.046 2.201-.056 3.299 0 .085.003.169.013.25-.396.24-.86.218-1.221.004-1.39.844-2.994 1.432-4.417 1.88-2.049.653-4.199 1.205-6.371 1.504-.979.613-1.991 1.068-3.047 1.387-.11.149-.152.253-.088.272.838.234.981 1.049.637 1.624.149-.022.306-.046.451-.071.234.104.487.159.776.123.338-.045.656-.098.981-.152.376.211.848.286 1.38.149.556-.149 1.11-.312 1.659-.458 1.877-.091 3.712-.62 5.576-1.607.032-.02.059-.042.091-.059.497-.123 1-.257 1.491-.406-.722 1.448-1.315 2.962-1.712 4.576-.088.345-.045.679.065.987-.861 1.878 1.951 3.434 3.107 1.586"/><path d="m455.32 330.77c.068-.046.149-.085.24-.117.176-.055.367-.098.562-.133.035-.591.064-1.186.081-1.783.078-.084.143-.169.198-.263.106-1.247.506-2.562.756-3.692.208-.938.4-1.871.578-2.812.521-4.593.894-9.312.399-13.92-.516-1.532-1.435-2.734-3-3.149-.201.013-.415.035-.63.062-1.728.532-3.455 1.052-5.18 1.591-2.991.933-6.647 1.842-9.301 3.706-.348 2.832-1.036 5.65-1.786 8.438 2.211-1.056 4.394-2.177 6.557-3.332 2.146-.465 4.3-.848 6.466-1.231-.409 2.31-.522 4.949-.198 7.337-.393 2.348-.786 4.699-1.13 7.05-.088.584.042 1.081.299 1.471-.144.504-.279 1-.406 1.504 1.829-.234 3.668-.481 5.499-.731"/><path d="m488.22 197.11c.02-.399-.11-.767-.331-1.062.01-.331.016-.669.032-1 .071-1.802-2.131-2.433-3.329-1.374-1.507 1.322-3.595 2.042-5.504 2.89-25.702 5.05-39.891-23.22-49.16-43.04-.25-.536-.688-.812-1.162-.896-.237-.607-.802-1.079-1.702-1.095-3.188-.062-6.605-.795-9.853-2.091 1.559-9.447 1.503-19.1 3.104-28.543.201-1.195-.754-1.965-1.653-1.922-.302-.228-.669-.367-1.075-.341-.393.022-.789.065-1.179.107-.318-.029-.662-.032-1.029-.02-.289-.149-.649-.208-1.075-.101-.409.107-.802.234-1.186.37-1.444.276-2.997.753-4.394 1.429-.224-.302-.634-.458-1.014-.208-1.279.848-2.455 2.111-3.458 3.615-3.953 3.546-5.924 8.732-3.995 15.14.61 2.03 1.656 3.884 3 5.57 2.29 5.05 6.856 8.528 12.06 10.464 1.095.604 2.231 1.081 3.434 1.403 2 1.072 4.049 2.056 6.128 2.975-7.288 24.922-12.686 50.47-16.177 76.21-.11.036-.211.088-.312.153.003.068-.003.133-.02.205-.094.451-.188.896-.282 1.345-.065.406-.13.809-.195 1.208-.039.286-.088.562-.165.838-.033.113-.088.214-.146.289-.068.315-.133.626-.204.938-.072.445-.429.581-.761.513-2.51 1.396-5.923 1.857-9.154 2.049-6.02 1.263-12.06 2.507-18.17 3.286-1.945.247-3.891.422-5.836.552-2.102.559-4.226 1.01-6.382 1.228-1.436.146-3.881.367-5.703-.201-4.501.607-9.03.987-13.571.887-2.897-.065-5.859-.237-8.72-.792-5.147-.546-10.152-1.699-14.803-3.787-1.088-.491-.568-2.391.613-2.267.303.033.604.055.909.084-.37-.182-.733-.38-1.101-.562.679.234 1.37.452 2.06.653 10.788.987 21.771 1.283 32.608.611 0-.02-.006-.042-.006-.059-1.881-.825-3.592-2.173-5.145-3.397-2.979-2.364-6.147-5.05-8.317-8.223-2.572-3.771-3.673-8.285-1.929-12.672.86-2.169 2.056-4.839 3.644-7 .919-2.215 2.05-4.368 3.199-6.463.757.013 1.51.033 2.264.049 1.951-.786 5.875-.773 6.508-.792 7.109-.166 14.173-1.172 21.285-1.438-.107-.51-.413-1-.962-1.332-1.127-.682-2.211-1.455-3.283-2.267-.757-.432-1.513-.864-2.27-1.292-4.226-2.416-8.483-4.81-12.637-7.365-.056-.01-.117-.026-.179-.052-.517-.208-.776-.455-1.211-.832-.653-.584-.303-1.484.331-1.818-.279-.188-.559-.374-.841-.555.106-.273.217-.542.317-.822 4.193-11.649-.814-24-11.866-29.55-11.89-5.966-27.608-4.612-39.523.48-12.99 5.55-22.636 16.04-30.557 27.436-6.115 8.805-9.743 18.677-11.932 28.966-4.684 8.132-6.769 17.394-8.271 26.672-.429-1.422-.891-2.829-1.4-4.229-2.328-6.44-5.741-12.672-11.11-17.06-5.634-4.599-13.38-6.664-20.577-5.716-7.447.978-12.516 5.521-15.348 11.445-.38-.292-.74-.611-1.107-.919-9.08-3.534-17.222-10.769-24.26-17.417-.058.341-.039.698.094 1.065 3.222 9.152 9.977 15.884 16.423 22.837-8.665-2.157-17.644-3.066-26.422-4.725.003 0 .01.003.01.003 1.01.851 1.812 1.806 2.445 2.881 2.292 1.549 4.391 3.417 5.911 4.712 2.776 2.358 5.453 4.82 8.093 7.33 1.598 1.517 4.04 3.079 5.135 4.998.117.208.133.416.087.61.179.13.364.27.546.396-.299.272-.607.529-.91.795-.039.503-.39.945-.961.844-2.475 2.114-5.096 4.089-7.944 5.862-.042.025-.078.045-.117.071l.052.059c-.351.123-.695.263-1.039.396-1.13.444-1.868 1.993-.776 2.955 3.251 2.852 6.456 5.771 9.613 8.736 3.01 2.831 5.8 6.105 9.01 8.703 2.407 1.945 5.01 3.634 7.408 5.599 1.367 1.111 2.65 2.364 3.689 3.79.059.078.104.156.156.23-.36.562-1.055.89-1.686.406-.234-.176-.468-.357-.705-.539-.146-.071-.295-.14-.445-.218-.305.186-.728.182-1.107-.123-.406-.318-.753-.711-1.088-1.124-5.868-3.546-11.171-8.353-16.644-12.25-1.107-.779-2.202-1.568-3.303-2.354.016-.088.016-.175.013-.263-3.484-2.481-6.729-5.329-10.477-7.421-1.53-.857-3.891-2-5.092-3.631-.01 0-.016-.007-.023-.007-2.01-1.497-4.02-3.01-5.998-4.546-7.171-5.573-13.936-11.517-20.525-17.755-6.02-5.7-12.731-11.62-16.231-19.297-.464-1.013-1.374-1.345-2.277-1.215 1.773-5.15 3.31-10.396 5.277-15.465 1.461-1.325 3.04-2.484 4.693-3.534.783-.133 1.565-.315 2.338-.516 4.602-2.907 9.467-5.375 14.286-7.892 1.815-.948 3.67-1.874 5.531-2.809.39-.371.779-.741 1.153-1.127 2.887-1.722 5.745-3.495 8.609-5.249.126-.048.25-.097.377-.143.337-.133.633-.348.86-.607 1.702-1.033 3.403-2.04 5.128-3.02-3.708-1.364-7.278-3.147-10.824-4.998-2.257-.432-4.475-.994-6.573-1.923-5.93-1.176-11.789-2.741-17.605-4.475-5.791-1.728-11.52-3.625-17.232-5.589-5.647-1.942-11.396-3.364-17.16-4.894-.406-.11-.796-.078-1.153.029 2.796 5.268 4.709 10.928 7 16.42.549 1.26 1.098 2.517 1.666 3.767.503 1.075 1.04 2.134 1.607 3.173.607 1.111 1.238 2.241 1.871 3.384 2.686 4.55 5.17 9.204 7.434 13.984.152.253.312.497.471.75.143.227.192.445.176.653.214.471.435.935.646 1.409.117.257.14.507.094.728.218.172.344.448.26.796.003.003.003.01.003.019.087.387-.059.741-.325.955-.176.52-.351 1.042-.526 1.559.033.072.068.14.101.208-.14.517-.289 1.039-.451 1.549-.127.12-.244.272-.325.471-.351.806-.702 1.607-1.052 2.419-1.338 4.612-2.049 9.398-3.284 14.04-.12.464-.25.955-.383 1.461-.377 1.851-.747 3.709-1.163 5.557-.312 1.384-.51 2.926-1.056 4.264-.559 2.179-.393 4.339.305 6.375.429 1.747 1.188 3.426 2.046 4.729.159.26.348.494.536.737.763.663 1.471 1.348 2.056 2.144.344.286.698.555 1.065.809.033.042.059.084.084.124.361.237.731.464 1.121.669.12.068.211.156.289.266.029-.026.062-.052.094-.075.643.354 1.305.669 1.975.955-.91.975-1.79 2.01-2.585 3.092-.831.991-1.659 1.998-2.442 3.034-.393.935-.598 1.936-.523 2.994-.218.906-.338 1.835-.328 2.793.055 4.667 4.06 7.271 8.103 8.727-3.267 3.276-5.813 7.593-5.628 12.256.208 5.199 4.433 7.583 8.896 8.574-.091.155-.188.318-.273.48-8.811 8.323-4.956 24.522 7.174 27.2.374.208.753.403 1.137.595 6.381 3.127 14.436 3.17 21.759.854 4.336-1.958 8.35-4.55 12.425-7.03 1.627-1.494 3.06-3.157 4.222-4.976.624-.156 1.214-.357 1.773-.61-.318 2.095-.867 4.144-2.02 6.15-1.088 1.903-2.641 3.462-4.395 4.771-3.917 6.04-13.399 8.08-19.908 8.746-4.777.487-9.538-.228-13.874-1.965-7.869-2-14.565-6.42-17.368-13.1-.688-1.296-1.208-2.887-1.5-4.04-.705-.933-.744-2.614-.591-4.226-.016-.338-.006-.676.007-1.01-.075-.143-.114-.309-.107-.517.101-1.786.63-3.293 1.413-4.66.233-.646.5-1.289.809-1.929.117-.646.272-1.29.474-1.93-1.078-.37-2.108-.993-3.03-1.779-1.306-1.059-2.384-2.433-2.978-3.842-.387-.783-.672-1.595-.809-2.374-.098-.546-.169-1.082-.221-1.631-.087-.26-.166-.522-.221-.799-.266-1.253-.286-2.465-.123-3.637-.143-2.222.467-4.31 2.068-5.885.195-.416.403-.825.633-1.222-4.615 1.413-9.301 2.9-13.276 5.635-15.761 6.359-25.559 21.678-28.93 37.936-.241 1.176-.438 2.361-.611 3.553-.01.341-.016.691-.016 1.053 0 .577-.399 1.074-.945 1.236-4.18 1.209-8.466.972-12.747 1.01-1.098.159-2.195.225-3.228.104-.065.006-.124.01-.185.013-.429.071-.861.134-1.292.186.003.318.013.646.013.961.393 1.468.731 2.945 1.036 4.437 1.614-.894 3.926-.718 5.599-.539 2.891.314 6.278 1.306 9.168.679.763-.163 1.533.26 1.715.997.088-.007.175-.026.263-.039.003.159.006.309.013.464.393.484.448 1.186.078 1.68.205 3.436.698 6.858 1.507 10.214.994 4.098 2.595 8.06 4.634 11.736.942 1.698 2.043 3.312 3.231 4.846.682.883 1.4 1.737 2.144 2.572.052.058.133.133.23.221.026.149.078.295.188.429.075.091.149.179.227.266.029.546.289 1.06.88 1.342.205.094.412.191.62.285 3.131 3.099 7.229 5.642 10.899 7.736 5 2.861 10.373 5.096 15.839 6.911 8.375 2.779 17.225 4.306 26.08 4.858.156.091.334.165.536.191 3.543.5 7.232.233 10.811.23.965 0 1.936-.01 2.894-.017.253.183.578.306.994.309 5.729.029 11.451-.094 17.14-.555 1.773-.036 3.54-.085 5.31-.137 1.143-.003 2.296-.003 3.445.026 1.384.038 2.734.058 4.073.035.26.162.565.282.925.318 6.7.718 13.06-.383 19.02-2.725 1.868-.065 3.797-.62 5.518-1.374 3.939-1.725 7.512-4.248 10.844-7.06 7.642-1.364 14.332-8.983 18.911-14.439 2.085-2.494 4.03-5.108 5.868-7.791 3.9-4.153 7.145-8.875 9.672-14.1.104.351.208.698.321 1.046-.098.236-.143.497-.117.767-.13.396-.101.848.195 1.286.006.013.02.022.022.035.321.61.659 1.208 1.014 1.789-.107.771.11 1.592.718 2.173.467 1.617 1.25 3.187 2.198 4.664 3.65 10.32 13.264 18.466 22.246 23.902 3.604 2.186 7.755 4.212 12.12 5.696 14.13 7.44 30.84 7.84 46.555 6.645.763-.052 1.286-.448 1.571-.962 1.241-.028 2.485-.101 3.723-.188.172.003.344.016.516.016 17.13.098 35.37-3.075 50.42-11.249.867-.455 1.737-.916 2.608-1.396 7.755-4.287 14.568-9.795 19.985-16.813.165-.11.312-.263.432-.448 1.737-2.688 3.352-4.4 6.453-5.43.884-.289 1.809-.49 2.725-.698 4.855-.247 9.655-1.098 14.452-1.965 0 .026 0 .049-.003.071 2.188-.584 4.371-1.325 6.621-.848.023-.133.043-.26.068-.387.695-.113 1.387-.221 2.085-.314.945-.133 1.9.373 1.896 1.445-.013 4.579.484 10.69-1.614 15.07-.094 1.299-.321 2.575-.39 3.874-.032.504-.327.972-.841 1.102-1.679.419-3.075 1.338-4.413 2.338-2.141 2.371-4.603 4.459-6.973 6.596-.02.267-.01.533.02.786.025-.017.052-.039.074-.056.429 1.117 2.043 1.92 3.303.913l2.238-1.786c1.133-1.442 2.341-2.767 3.809-3.907.731-.564 1.881.134 1.349 1.039-.767 1.319-1.484 2.653-2.072 4.04.137 1.705 2.786 2.644 3.641.845.848-1.78 1.559-3.608 2.146-5.466.113.042.228.084.344.13.017-.026.023-.056.039-.085.033-.152.072-.305.114-.458.068-.246.23-.447.444-.564.179-.296.367-.595.575-.899.179-.267.484-.504.828-.475.77.065 1.445.247 2.056.523.182-.195.436-.315.725-.293 1.228.101 2.176.423 3.137.968.321-.013.659-.025.987-.025.107-.786.218-1.575.465-2.303.003-.059.016-.113.02-.176-.225-.052-.445-.11-.659-.172-2.287-.659-4.593-1.293-6.95-1.637.825-3.644 1.73-7.255 2.653-10.87.633-4.806 1.585-9.889.198-14.338-1.257-4.02-4.147-3.03-6.892-3.657-1.257.127-2.514.247-3.773.357-2.933-.179-5.892-.032-8.844.039-4.06.104-8.122.367-12.179.649-.652-.11-1.104-.834-.922-1.483 1.899-6.71 3.357-13.757 3.969-20.856-.043-1.491.091-2.972.27-4.469.126-3.748-.004-7.502-.465-11.208-.302-1.64-.591-3.279-.867-4.926-2.134 1.263-4.462 2.107-6.998 2.441-.63 6.132-3.456 12.08-7.678 16.537-.233.237-.487.367-.747.429-.782.705-1.604 1.348-2.448 1.929-4.515 3.91-10.09 6.408-16.05 6.385.01.014.016.039.022.053 2.13 2.244 1.514 5.518.341 8.284-.172 1.565-.74 3.147-1.328 4.518-.841 1.981-2.098 3.702-3.865 4.78-.139.188-.292.38-.441.562-.814.584-1.659 1.14-2.533 1.637-5.196 2.936-11.841 3.832-17.689 2.909-5.277-.824-9.697-3.997-13.529-7.498-.215-.192-.438-.387-.673-.585-.194-.179-.38-.357-.567-.536.616.293 1.24.572 1.867.818.025.02.045.036.071.059.013.007.032.013.049.029.162.191.328.38.493.559.023-.064.042-.13.075-.191 1.912 1.159 4.358 1.649 6.498 1.958 3.641.52 7.674.387 11.302-.662.591.045 1.163.045 1.702 0 .038-.023.077-.039.113-.059 1.438-.737 2.972-1.572 4.4-2.56.426-.013.877-.165 1.293-.5 2.442-1.951 4.647-6.138 5.108-9.742.201-.549.39-1.111.555-1.67.751-2.127 1.17-4.306.955-6.508.007-.318 0-.659-.013-1.014 3.01.289 6.618-.698 9.525-1.912.218-.01.438-.023.655-.043 4.651-1.607 8.545-4.891 11.406-9.632.698-1.159 1.306-2.367 1.845-3.608.951-1.955 1.666-4.03 2.179-6.177.225-.786.436-1.578.637-2.361.383-1.546.698-3.107.971-4.676 8.844.013 17.434-3.339 23.432-10.07 6.115-6.869 8.03-16.12 6.681-24.964 3.261.721 6.625 1.03 9.872.627-.185.779-.36 1.549-.532 2.329.01.003.017.006.026.006-.306 1.237-.611 2.472-.939 3.699-.062.237-.071.455-.038.653-.014.149-.01.295.016.429-1.711 9.833-2.01 19.762.098 29.719-.926-.293-1.923-.458-2.819-.631-3.526-.665-7.177-.73-10.759-.652-1.438.029-2.916.091-4.404.186 7.69 1.451 15.456 3.588 22.05 7.706.666.263 1.302.578 1.916.938.204-.441.292-.945.198-1.406-1.504-7.397-3.089-15.205-3.618-22.989.176-5.145.851-10.272 1.891-15.361.243-1.056.516-2.107.88-3.138.12-.341.113-.646.022-.912.13-.546.26-1.085.399-1.624 1.399-.516 2.758-1.208 4.047-2.117 5.765-4.089 7.914-11.168 8.524-17.93 7.435-1.695 9.269-7.554 9.148-14.14 1.215-5.871-.252-12.87.037-18.472m-159.48-31.18c2.078-4.111 6.111-6.81 12.26-5.8.224.039.337.175.376.334 6.7-.266 12.11 3.803 13.806 9.353 4.096 7.096 1.475 15.65-5.134 19.411-3.216 2.228-7.314 3.17-11.613 1.945-.66-.188-1.296-.432-1.92-.698-.123-.032-.253-.065-.373-.104-.114-.003-.228-.016-.348-.045-3.075-.841-6.112-2.4-8.03-5.01-2.117-2.352-3.479-5.359-3.562-8.967-.101-4.095 1.73-7.686 4.539-10.418m-207.05 8.834c-.166-.247-.322-.497-.487-.74-.214-.042-.422-.159-.549-.383-1.068-1.815-1.939-3.579-2.468-5.602-.23-.344-.458-.695-.679-1.046-.27.026-.542.062-.815.098-.205-.432-.416-.848-.624-1.27-.312-.926-.614-1.848-.887-2.767.059.023.124.045.188.068-.049-.045-.091-.091-.133-.153-1.149-1.614-2.144-3.329-3.303-4.936-.594-.828.513-1.627 1.27-1.27.091.045.182.094.279.14.205-.399.627-.646 1.199-.425.094.039.178.081.266.117 0 0 0 0 0-.003 3.056 1.296 6.125 2.55 9.21 3.751 4.329.942 8.518 2.56 12.666 4.352.152-.033.325-.02.513.039 1.045.347 2.091.711 3.121 1.101.815.084 1.634.172 2.442.279 8.898 1.149 17.787 3.205 26.15 6.476.37.146.646.484.74.854.156.033.309.065.458.101.49.101.695.487.679.88-.256-.153-.565-.25-.929-.267-3.208-.042-6.42-.188-9.636-.042-.958.042-1.916.152-2.871.295-11.929-.212-23.864.356-35.796.353m114.41 55.93c-1.854 2.498-4.878 3.368-7.729 2.838-.029.01-.052.02-.078.02-2.748.328-4.381-1.127-5.128-3.15-1.971-2.611-2.25-6.353-.208-9.1 1.445-1.942 4.02-3.147 6.541-3.241 1.559-.282 3.257.042 4.956 1.234 3.656 2.556 4.234 7.921 1.646 11.399m230.08-19.304c-.412.289-.669.679-.802 1.101-6.778 4.868-14.396 8.688-21.782 12.373-6.154 3.056-12.282 6.203-18.476 9.217-3.504 1.413-7.05 2.712-10.648 3.884.146-1.663.328-3.312.536-4.969.312-1.465.584-2.936.828-4.42.337-2.049.552-4.141.766-6.239 1.141-6.801 2.433-13.591 3.349-20.389.958-7.03 3.183-13.848 5.287-20.59 1.286-4.118 3.192-8.915 3.988-13.571.006.022.016.048.035.074 1.306 3.138 2.797 6.655 4.777 9.386.273.383.617.588.968.656.676 1.143 1.381 2.264 2.141 3.329.263.374.627.536.98.542.695.821 1.436 1.598 2.195 2.345 3.687 5.193 8.454 9.658 13.653 13.195 3.92 2.657 8.395 4.527 13.09 5.108 3.934.478 7.898-.432 11.812-1.25-4.313 3.304-8.216 7.133-12.701 10.218m16.07 11.604c.279-.52.549-1.045.809-1.575.014-.017.026-.029.046-.052.052-.022.11-.058.172-.084-.277.613-.608 1.188-1.027 1.711"/><path d="m333.2 184.91c1.806.484 3.576 1.149 5.476 1.517 4.3.818 8.288-.672 11.194-4.02 2.352-2.712 3.358-6.07 2.163-9.551-.89-2.601-2.659-4.501-4.05-6.7-4.849-3.01-11.584-2.419-15.806 2.368-1.916 2.166-3.06 4.67-3.413 7.141.14 1.79.623 3.592 1.598 5.385.747 1.38 1.705 2.712 2.838 3.861m2.417-9.236c.006-.698.197-1.387.604-1.984.728-1.049 1.913-2.237 3.307-2.149.75-.442 1.643-.556 2.539-.094.078.032.159.081.234.13.87-.198 1.767-.062 2.581.584 1.391 1.104 1.894 3.296 1.134 4.894-.24.487-.633.936-1.104 1.299-1.345 2.088-4.673 3.069-6.641 1.286-1.283-.396-2.361-1.273-2.618-2.705-.075-.41-.085-.839-.036-1.261"/><path d="m233.77 225.92c-.02-1.208-.656-2.504-1.803-3.02-.422-.198-.857-.302-1.289-.341-2.458-.89-5.135 1.156-4.959 3.819.078 1.205.652 2.312 1.705 2.942.075.049.159.082.241.114.5.377 1.104.627 1.763.702.779.097 1.533-.211 2.163-.721 1.277-.552 2.209-1.923 2.179-3.498"/></g></switch></svg>