<svg xmlns="http://www.w3.org/2000/svg" viewBox="0 0 500 500" enable-background="new 0 0 500 500"><switch><g><g><path fill="#6eddff" d="m355.68 214.18c-12.815 2.941-22.745.202-35.29-1.01-3.113-.293-6.238-.061-9.261.632-.098-.116-.189-.263-.294-.337 3.272-2.347 1.403-7.661-2.421-8.01-4.664-.423-8.783-.006-12.902.889.056-.319.08-.631.086-.957 4.144-2.709 8.195-5.607 12.645-7.943.239-.122.49-.214.736-.331 1.702-.57 3.376-1.245 5.02-2 6.662-2.133 13.772-2.923 19.944-6.442 1.183-.667 1.746-2.084 1.666-3.432 3.948-1.202 2.041-7.526-2.322-6.766-8.465 1.464-16.727-.392-25.2-.123-.631.024-1.189.257-1.692.576-.883-.698-2.084-1.018-3.561-.552-3.433 1.183-6.878 2.133-10.34 2.942-.08-1.25-.705-2.5-1.826-3.206-.638-.398 5.834-10.929 12.09-19.901 5.02-3.88 10.585-8.544 13.503-14.306 1.084-2.139-.202-5.301-2.942-5.124-8.385.551-13.919 9.273-18.468 17.04-.109-2.929-2.997-5.405-6.355-3.64-1.716.901-3.145 1.912-4.443 2.972-.479-3.065-5.13-4.726-7.526-2.311-3.892 3.935-10.732 9.574-13.404 15.605-1.423 1.422-2.833 2.837-4.253 4.253-.025.019-.056.024-.086.049-1.251.987-2.299 2.084-3.494 3.102-.725-.012-1.483.128-2.256.625-.582.374-1.09.858-1.654 1.244-.252-.583-.589-1.109-.87-1.667 1.796-.411 3.303-2.421 2.923-4.468-.772-4.173-2.427-5.884-5.608-8.875-.233-.221-2.065-1.728-4.443-3.616-2.469-2.942-5.03-5.811-7.913-8.482-7.348-6.779-19.294-10.947-28.402-14.809-9.886-4.18-30.351-14.422-38.877-3.359-.453.589-.539 1.214-.41 1.802-3.353.227-6.491.619-9.05 1.349-16.401 4.658-7.821 14.562 1.312 20.918-6.184 1.514-8.121 5.406-7.091 9.273-.521-.257-1.067-.478-1.594-.724-.042-1.618-.104-3.224-.27-4.694-.41-3.727-6.123-6.589-8.06-2.183-.398.908-.876 1.753-1.293 2.661-.484-.203-.962-.399-1.447-.595-.018-.012-.036-.012-.055-.024-.085-.037-.178-.067-.263-.104.006.012.006.019.012.03-.362-.166-.736-.288-1.128-.325-.019-.95-.006-1.9-.135-2.832-.466-3.273-5.835-3.126-6.436 0-.368 1.924-.54 3.837-.649 5.755-2.298 3.879-4.511 9.371-6.853 6.368-3.831-4.91-11.817-4.695-17.523-5.1-.307-.019-.564.061-.828.123-5.093-.944-10.26-1.508-15.427-2.096.22-1.679-1.282-3.42-3.096-3.58-5.216-.441-10.744-1.079-16.254-1.544-5.75-2.292-11.676-3.892-17.248-6.92-2.899-1.581-6.773-3.929-10.175-2.813-2.482.821-2.862 3.959-.705 5.387 2.88 1.918 5.099 4.958 7.778 7.208-.411 1.79.166 3.702 2.262 4.701.233.11.459.208.692.318-.288.11-.521.282-.766.441-.472-.085-.962-.178-1.453-.27 4.67 5.934 8.269 13.08 10.04 18.768.436 1.397.233 2.746-.221 4-3.585-.399-7.827.336-10.603.349-7.876.013-17.708-4.18-25.393-1.409-1.667.6-2.262 2.097-2.133 3.493-5.724-2.06-11.179-4.756-15.868-7.943-.582.448-1.189.833-1.716 1.391-1.784 1.907-1.79 4.732 0 6.638 8.06 8.562 18.553 12.429 29.947 14.312-.147 1.832.778 3.695 3.175 4.443.644.202 1.324.294 1.974.478 5.7-2.427 12.12 3.481 9.898 8.397-.815-.583-1.814-.92-2.862-.613-5.639 1.656-8.317 8.814-12.01 12.921-4.364 4.854-9.782 8.801-14.416 13.336-1.808.969-3.653 1.833-5.577 2.427-1.079.337-2.096.356-3.034.159-1.392.98-2.765 2-4.156 3 3.451-.185 6.405-.613 9.304-1.398-.754 2.132.527 4.425 3.089 4.634 3.218.251 6.631-1 9.524-2.329 1.177-.54 2.391-.993 3.617-1.41.888.858 2.206 1.226 3.641.405 1.93-1.189 3.745-2.532 5.577-3.85.502-.251 1.023-.454 1.508-.748.417-.257.705-.564.919-.895.741-.491 1.496-.944 2.268-1.367 7.932-.257 16.01-2.556 23.861-5.89.355-.024.668-.055 1.01-.086 10.113 2.28 21.18-2.562 31.816-6.214 4.701-1.324 9.372-2.599 13.907-3.39.055-.006.092-.042.141-.055.901-.208 1.784-.386 2.685-.582.491.557 1.012 1.072 1.526 1.599-.031.147-.129.245-.147.405-.375 3.739 1.292 8.091 3.591 12.19.711 1.465 1.649 2.918 2.715 4.346 1.593 2.341 3.218 4.498 4.572 6.203.135.171.307.269.459.392-.398 1-.288 2.183.735 3.114 15.201 13.889 33.821 23.817 55.29 18.485 9.641-2.391 25.14-1.931 32.667-9.157 9.703-9.304 20.08-15.997 28.691-26.23.416-.497.638-1.036.771-1.582 2.17-.417 4.132-1.269 5.799-2.703 5.805.9 11.706.564 17.566.116 11.131-.846 23.707 1 35.04 1.01 18.448.006 30.3-5.878 46.562-12.27 4.703-1.844 2.992-8.856-2.119-7.685m-325.13-21.924c4.713-.502 10.15 1.01 14.992 1.869-4.897.073-9.978-.619-14.992-1.869"/><path fill="#ffeec7" d="m173.51 163.6c-.288-1.14-.698-2.01-1.22-2.722-.085-.196-.184-.398-.275-.601.196-.864.398-1.716.398-2.856 0-5.835-5.167-11.136-8.679-15.666-4.677-10.371-9.862-20.398-17.879-28.929-2.164-2.305-6.221-1.324-7.459 1.323-.852.38-1.624.92-2.041 1.784-2.82 5.854 1.01 12.06 2.776 17.793 1.109 3.604 2.071 7.354 2.967 11.1.159 1.091.386 2.17.766 3.237.888 4.1 1.673 8.231 2.212 12.295.227 1.691 1.054 2.758 2.096 3.371-.589 2.685 1.01 5.834 4.291 5.626 3.02-.189 5.222-.956 6.883-2.083 2.188-.368 4.48-.552 6.607-.938.116.239.227.49.337.729 2.294 4.732 9.403 1.33 8.22-3.468"/><path d="m129.18 184.25c-1.023.22-1.692.49-2.525 1.139-.613.479.294 1.447.882.883.631-.362 1.275-.724 1.907-1.085.594-.197.355-1.06-.264-.937"/><path d="m374.82 215.22c-4.492-6.534-13.06-5.835-20.372-6.337-15.52-1.048-34.37.95-50.33-2.477 6.472-2.777 14.765-4.921 19.619-7.14 9-4.125 19.1-9 25.17-17.13.692-.925.699-2.746 0-3.665-10.806-14.318-34.862-5.627-51.602-4.01 8.875-12.35 23.39-23 25.632-38.31.355-2.427-2.23-5.743-4.848-3.733-11.823 9.09-23.708 17.438-36.554 25.07-6.712 3.984-13.804 6.815-21.1 9.12-14.195-23.622-40.728-39.533-70.03-39.15.085-.631.178-1.263.27-1.888.171-1.164-.27-2.746-1.673-2.954-7.159-1.036-14.924.631-22.666 4-.564-.803-1.134-1.612-1.698-2.384-.006-.006-.166-.012-.362-.024-3.04-4.554-6.208-9.04-9.494-13.459-3.684-6.105-7.87-11.738-14.165-15.832-.073-.043.024-.031-.049-.067-.024-.306 0-.613-.019-.919-.208-3.138-4.799-3.199-4.878 0-.019.772.043 1.544.043 2.323-.251.337-.502.663-.662 1.042-3.727 8.985-.049 23.285.398 32.828.294 6.117.509 12.228.852 18.332-4.971 5.222-9.445 10.861-13.1 16.574-.123-.135-.128-.294-.312-.405-12.228-7.134-26.38-5.118-40.05-7.748-17.597-3.383-30.535-15.188-47.16-20.226-3.181-.968-5.081 3.03-3.071 5.277 11.713 13.177 21.961 28.562 30.836 44.19-10.48.173-20.845.803-31.23-1.808-5.792-1.458-12.694-4.112-18.811-2.433-6.172 1.698-8.55 6.534-5.32 11.731 7.05 11.394 27.21 18.265 39.21 22.935 8.52 3.322-12.871 14.232-16.94 17.13-6.43 4.585-13.246 9.237-18.682 14.986-2.28 2.414-.478 5.682 2.495 6.03 16.383 1.912 30.05-4.45 45.36-9.684 16.567-5.664 35.37-9.855 52.821-11.517 4.756-.448 4.793-7.937 0-7.472-12.889 1.25-25.981 4.345-38.626 7.104-17.12 3.739-33.29 13.295-50.725 14.569 11.1-10.01 24.492-18.351 36.36-26.956 1.544-1.127 2.378-3.616.656-5.081-10.929-9.286-27.508-11.394-39.754-19.907 1.202-6.981 4.609-8.661 10.193-5.03 2.391.876 4.842 1.471 7.336 1.771 10.346.944 20.625-.135 31.01-.233 2.378-.024 3.836-2.61 2.678-4.677-7.956-14.17-16.947-27.722-26.778-40.507 9.849 4.585 19.368 10.273 29.64 13.956 15.06 5.4 31.835.631 46.643 6.883.147.062.27-.012.417.024-4.609 7.803-7.692 15.629-8.434 22.568-3.972 36.854 11.302 69.71 42.971 83.16 2.728 1.354 5.541 2.58 8.489 3.555.754.258 1.422.172 2.02-.048 3.99 1.041 8.127 1.911 12.534 2.39 24.425 2.647 39.735-1.77 58.53-17.296 7.545-6.227 15.812-17.266 22.299-23.266h.164c14.863 0 29.831-1.122 44.663-1.889 23.849-1.231 47.32-5.709 68.787-16.478 1.816-.914 2.57-3.724 1.411-5.416m-19.887 5.04c-6.865 2.44-13.582 4.793-20.638 6.669-21.273 5.668-45.08 4.02-66.941 5.04-1.067.043-2.14.061-3.206.104.692-1.219 1.263-2.47 1.869-3.714-.551.006-1.097-.019-1.648-.019-2.905.772-6.05 1.195-8.514 1.01-.551 1.037-1.085 2.072-1.722 3.072-5.131.146-10.248.3-15.378.521-6.51.275-11.21-2.752-17.364-.644-2.446.834-3.475 3.886-1.538 5.829.238.251.49.497.735.742 1.728 1.74 3.959 1.036 5.148-.454 6.669-1.465 16.03-.656 24.25-.025-4.137 5.498-8.672 10.432-12.864 14.287-16.303 14.985-30.431 19.834-52.637 19.976-6.84.036-13.06-.853-18.804-2.385-20.331-12.143-34.568-25.14-40.741-49.04-2.329-9.01-3.285-21.318-3.254-30.664.043-12.388 8.715-23.763 16.12-32.994.086-.11.111-.22.178-.331.472 1.961.925 3.897 1.275 5.535-.104.594-.178 1.17-.208 1.704-.141 2.691.883 6.552 3.929 6.613 1.01 2.936 5.743 2.366 6.19-1.189.019-.153.043-.27.062-.411.312-.472.509-1.023.441-1.673-.018-.184-.08-.355-.104-.527.478-1.925 1.22-3.788 1.22-5.75 0-1.14-.551-1.974-1.269-2.623.239-6.656-1.244-13.656-2.151-20.06-1.562-11.04-3.904-21.937-5.4-32.956 5.137 5.01 8.734 11.474 12.228 17.854.306.067.509.215.815.307 1.066 2.752 2.458 5.234 4.131 7.545 1.741 2.794 3.506 5.564 4.898 8.592 1.238 2.697 3.536 4.843 5.718 6.761.417.368.785.791 1.189 1.171 3.677 4.468 7.514 8.795 11.768 12.724 2.647 2.439 6.233-1.232 3.916-3.923-.57-.662-1.097-1.348-1.63-2.035-.086-.221-.141-.441-.301-.662-.276-.368-.521-.754-.791-1.127.246-.969.043-2.02-.999-2.894-.975-.809-1.931-1.759-2.899-2.642-1.434-2.053-2.917-4.088-4.309-6.166-.067-.129-.135-.251-.196-.386l.067-.024c-.08-.11-.166-.208-.245-.319-.668-1.288-1.539-2.452-2.47-3.579-.938-1.422-1.882-2.844-2.82-4.266 1.673-.809 3.347-1.63 5.03-2.317 2.145-.919 4.352-1.6 6.601-2.121-2.201 1.52-1.82 5.467 1.532 5.492 28.538.257 54.997 13.06 69.29 35.05-2.488.656-4.989 1.293-7.515 1.869-11.774 2.697-28.8 1.245-37.26 10.395 2.029-2.201-1.073-5.314-3.273-3.279-.257.233-.509.472-.766.705-1.41 1.299-.417 4.278 1.667 4.03 16.42-1.992 34.27-3.126 50.694-7.564.086.166.142.344.222.515.373-.11.692-.263 1.096-.336.939-.19 1.01-.043.228.429 1.95-1.662 4.26-2.238 6.54-2.176-.123-.27-.208-.558-.337-.821 2.507-.889 4.978-1.857 7.379-2.96 15.04-6.895 28.599-15.721 41.783-25.356-6.345 11.559-18.866 20.784-24.939 31.957-1.3 2.391.354 4.989 2.96 5.161 5.785.379 11.326-1.729 17.17-2.317 3.677-.54 7.373-.723 11.07-.527-.84-.006 24.841.502 12.724 8.07-12.185 7.606-29.334 9.169-39.932 18.215-2.372 2.023-.729 5.345 1.661 6.289 11.633 4.598 26.496 3.629 38.736 4.278 8.813.466 17.75.625 26.552 1.582-1.21.894-2.515 1.899-4.02 3.162"/><path d="m256 187.97v.9-.9"/><path d="m209.6 150.94c-.54-.583-1.01-1.226-1.391-1.937-.006-.037-.019-.049-.031-.085 1.079-2.403-.319-5.872-3.573-5.89-4.04-.019-8.556 1.379-8.538 6.27.019 4.205 2.133 6.276 6.325 6.35.264 0 .533-.08.81-.135.276.349.563.711.833 1 3.475 3.75 8.9-1.791 5.565-5.578"/><path fill="#6eddff" d="m64.893 160.85c-4.29-.19-6.411-5.357-11.09-4.726-1.778.239-2.219 2.838-1.036 3.936 1.918 1.783 4.885 2.739 7.331 3.665 2.041.779 4.186.962 5.645-.821.655-.804.257-2.01-.853-2.054"/></g><g><path fill="#eb7eff" d="m485.77 309.31c-2.076-1.088-3.212-2.822-3.655-4.723-1.354.176-2.709.365-4.02.561-5.448.804-10.91 1.759-16.379 2.758-4.546-.282-9.09-.639-13.647-1.077-.177-.049-.308-.146-.497-.165-.897-.127-1.75-.059-2.633-.117-4.722-.497-9.428-1.12-14.12-1.832-3.445.614-6.754 1.149-9.834 1.477-1.885.199-3.601-.366-5.03-1.375-1.174 1.696-1.302 4.05.327 5.425-2.871.682-6.837 1.909-11.271 3.206-3.128-.346-6.218-.692-9.175-1.033-.044-.01-.079.015-.137.01 6.379-3 13.22-5.302 19.891-7.903-2.957-2.34-4.493-6.618-3.571-10.233-5.132 2.01-10.418 3.898-15.584 5.092.204-.458.36-.906.521-1.354 5.726-2.295 10.599-5.365 12.567-8.133.638-.897.809-1.812.691-2.686 5.707-3.089 11.417-6.164 17.07-9.351 2.369-1.33 2.612-3.649 1.735-5.506 1.896-3.168-1.38-8.1-5.239-6.705-12.08 4.36-23.901 9.716-35.614 15.286-3.134-.795-6.779-.57-10.111.395-.376-.624-.771-1.257-1.229-1.867 2.115-.233 4.068-1.027 5.73-2.694 4.123-4.112 3.977-8.498 1.297-12.737.964-2.086.429-4.883-2.467-5.76-1.417-.331-2.82-.789-4.21-1.179-3.196-2.515-6.978-4.893-10.992-7.01-8.05-18.536-33.09-27.805-51.799-27.897-10.506-.054-26.523 5.92-25.651 16.285-3.24.76-6.071 1.789-8.425 2.997-5.146.916-10.209 2.232-13.971 4.234-2.924.94-5.01 2.266-6.364 3.908-6.149 3.211-11.812 8.864-16.938 14.989-.22.16-.458.321-.692.478-2.135 1.467-4.167 3.01-6.15 4.575.205 3.104-1.75 6.354-5.974 6.744-3.08.283-7.529.722-10.423-.375-.253-.098-.463-.234-.687-.355-5.248 5.15-14.896 4.229-21.903 3.308-9.1-1.188-17.728-3.265-26.416-6.241-1.174-.404-2.149-.994-2.948-1.687-.473 1.711.058 3.649 2.042 4.902.619.395 1.335.624 1.979.975-.351 2.144.682 4.6 3.041 5.155 2.729.648 5.458 1.111 8.201 1.589-2.797-.103-5.541-.176-8.167-.268-3.143-.2-5.56-.366-6.656-.366-5.935.01-5.735 8.591 0 9.09 5.867.497 11.651 1.433 17.513 1.939 2.101.175 20.398-.595 13.503 1.599-5.287 1.676-11.06 2.641-16.899 3.313-1.092.117-2.154.248-3.241.39-6.339.595-12.713.877-18.648 1.184-2.324.122-3.674 1.525-4.152 3.197-3.596.94-6.978 2.02-9.774 3.318-3.358 1.55-2.52 6.451.351 7.885.385.721.916 1.306 1.583 1.739.419 1.257 1.326 2.285 2.997 2.52 3.353.467 8.425 1.33 14.13 2.057-1.194 1.49-2.461 3.215-3.601 5.04-1.988.53-3.947 1.154-5.789 2.047-3.728 1.797-2.456 7.03.853 8.259-6.379 1.102-12.694 2.798-19.214 4.893-.589.186-1.111.487-1.554.858-1.131.447-2.271.944-3.416 1.563-3.304 1.778-2.563 5.949 0 7.884 2.685 2.01 9.09 2.821 16.421 2.549 3.119.321 6.574.107 10.116-.308 1.208-1.48 2.982-2.577 4.941-2.781 7.763-.804 14.746-2.096 21.396-3.109.882-.487 1.735-1.053 2.5-1.764-.102.468-.156.975-.263 1.442 4.571-.663 9-1.141 13.43-1.204.258-.813.507-1.656.775-2.46.648-.059 1.316-.166 1.979-.239-.385.911-.775 1.842-1.126 2.719 8.596.103 17.304 1.891 27.19 7.275 5.394 2.934 11.04 5.54 16.831 7.831.239-.269.507-.517.736-.795.497.585 1.033 1.102 1.544 1.643 14.717 5.55 30.378 8.873 45.946 9.264.994-.955 2.042-2.01 3.134-3.188 1.993-.882 3.796-2.587 5.467-4.795 1.297 1.842 3.061 3.489 5.507 4.805 2.01 1.092 4.113 1.701 6.257 1.969 5.584-.853 11.1-2.125 16.455-3.889 11.11-5.867 21.572-16.811 27.483-24.01 2.363-2.394 4.546-4.889 6.471-7.49.156-.137.303-.282.449-.419-7.124 11.86-18.41 22.552-30.19 30.339 9.38-3.567 18.322-8.548 26.459-15.331.644-.525 1.326-.955 2.02-1.315 1.915-2.437 3.776-4.941 5.482-7.533-.926 2.29-2.14 4.512-3.411 6.715 2.427-.702 4.989-.585 7.314.186 2.314-4.312 4.215-8.689 5.447-13.05.103.01.205.02.312.034-.668 1.418-.58 3.075 1.058 4.419 1.953 1.608 4.248 2.749 6.68 3.694-.375 1.773.176 3.762 1.984 4.795 1.412.809 2.86 1.53 4.316 2.179.351.696.848 1.319 1.506 1.729 15.04 9.298 46.896 13.12 66.59 7.184 3.693.429 7.318 1.14 10.853 2.514 1.505.946 3.161 1.784 5.306 2.427 4.878 1.472 7.831-5.672 3.431-8.162-.414-.238-.823-.375-1.228-.589-2.296-1.861-4.596-3.724-6.891-5.59-1.12-1.661-2.793-2.148-4.366-1.935-.087-.02-.16-.077-.248-.098-1.336-.258-2.705-.467-4.084-.643.365-.273.717-.565 1.077-.838-3.07-.137-6.149-.497-9.317-1.116-1.774-.352-3.571-.765-5.375-1.165-7.67 2.115-17.201 1.774-26.8.546.043 0 .102-.01.15-.02 7.997-.473 16.865-1.433 24.866-.921-2.573-.541-5.155-.989-7.724-1.086-3.747-.146-6.777.048-10.345-1.224-5.073-1.808-7.377-9.663-1.628-12.46 10.472-5.106 22.581.468 34.35 3.411.122-.507.219-1.028.253-1.589.107-1.861-1.418-3.835-3.226-4.234-1.564-.351-3.183-.536-4.78-.809.072-.453.093-.872.028-1.33 9.776-.702 19.297-2.174 28.06-5.059.409-.136.79-.341 1.141-.595 2.396-.312 4.76-.711 7.06-1.208-2.306-2.605-4.612-5.217-6.91-7.823m-277.33 25.01c-.926.127-1.852.229-2.782.327.687-1.765 1.496-3.509 2.241-5.244 1.564-.696 2.968-1.559 4.249-2.563-1.31 2.524-2.568 5.03-3.708 7.48m8.967-16.733c-.322-1.214-1.062-2.368-2.086-2.836-.02-.005-.029-.005-.034-.015.005-.02.015-.039.034-.059 3.46-5.813 7.261-11.402 11.251-16.86 1.252 1.043 2.49 2.101 3.684 3.173-4.8 4.804-9.1 10.531-12.849 16.597m15.661-22.522c-.078.239-.127.507-.195.755-.926-.882-1.847-1.764-2.816-2.65 1.189-1.56 2.368-3.129 3.591-4.668 1.028-.063 2.051-.156 3.06-.302-1.657 2.308-2.953 4.697-3.64 6.865m19.653-17.791c-1.974.195-3.914.887-5.794 1.837-.244-.282-.429-.608-.79-.809-1-.564-2.032-.945-3.05-1.428 1.978-2.485 4.259-5.428 6.759-8.381 2.954-2.032 6.067-2.808 8.975-2.754-1.774 3.855-3.87 7.705-6.1 11.535m10.315 3.133c-1.014-.678-2.11-1.262-3.274-1.794 1.35-2.319 2.509-4.673 3.723-7.02 1.014 1.711 2.062 3.411 3.162 5.068-1.199 1.243-2.452 2.433-3.611 3.743m28.638-7.919c-1.847.868-3.649 1.784-5.39 2.768.804-2.037 1.516-4.103 1.974-6.217.098-.497.039-.975-.058-1.438.896.063 1.705.117 2.309.142.552.029 1.136.029 1.706.049.024 1.305-.166 2.899-.541 4.696m24.768 37.21c-.478-1.414-1.067-2.778-1.788-4.055 2.699-3.118 5.765-5.857 9.166-8.01-2.193 4.153-4.829 8.11-7.378 12.07m21.03-69.16c-.848.073-1.598.365-2.231.79-7.67-2.895-15.389-5.414-23.302-6.808-2.798-.492-6.136.478-8.693 2.228-.443.004-.857.019-1.302.033-.516-1.13-1.032-2.261-1.554-3.391 3.357-1.452 6.852-2.271 10.511-2.446 12.235-1.301 30.19 3.157 40.664 12.767-6.199-2.188-11.52-3.402-14.09-3.173m43.861 85.42c.028-.297.024-.594.049-.892 5.93 1.297 12.869-.662 18.585-1.973.56 1 1.544 1.695 2.928 1.861-7.296.493-14.511.898-21.562 1"/><path d="m240.63 308.58c-.126-.106-.297-.194-.434-.296-.083-2.037-.999-3.056-3.255-3.397-.209-.029-.322.103-.517.112-.716-.429-1.627-.647-2.368-.414-.088.029-.132.098-.229.127-1.102-.438-2.217-.771-3.313-.771-3.236 0-4.878 3.85-3.552 6.462.39.779.974 1.472 1.623 2.095-1.077.858-1.194 2.495-.551 3.729.083.18.205.336.341.482.112.136.224.263.355.38.024.02.044.029.068.049.434.351.96.579 1.598.594.142 1.887 1.189 3.382 4.01 3.743 1.978.249 2.923-1.954 2.68-3.528-.078-.492-.277-.936-.448-1.384.278-.399.351-.887.409-1.364 1.613-.327 3.08-1.111 4.104-2.622.761-1.131.555-3.109-.522-3.997"/><path d="m290.35 310.91c-.112-.936-.259-1.832-.487-2.753-.054-.2-.181-.356-.268-.541.126-.536.243-1.092.36-1.706.282-1.544-.4-3.557-2.208-3.864-.926-.16-1.837-.248-2.772-.258-1.389-.01-2.349.784-2.875 1.876-.029-.01-.059-.024-.088-.034-2.041-.502-4.688 1.033-4.448 3.392.014.283.17.473.209.741-3.353 2.699-5.517 7.328-2.222 10.477 3.416 3.274 7.688 1.764 10.389-1.297 1.297-.877 2.417-1.997 2.992-3.362.896-.604 1.569-1.492 1.418-2.671"/><path fill="#ffeec7" d="m264.27 343.28c-4.692-3.762-10.286-6.213-16.251-6.909-1.149-.137-2.02.214-2.606.809-5.05 1.939-8.02 10.852-8.703 15.545-.132.882.063 1.705.404 2.445-1.915 1.706-3.728 3.489-5.467 5.336-.677.19-1.355.585-1.915 1.315-.375.487-.799.931-1.199 1.398-5.823 3.952-12.09 9.254-14.39 15.36-2.661 2.354-5.272 4.79-7.572 7.572-2.471 2.982.682 7.991 4.375 5.662 2.208-1.394 4.342-3 6.54-4.474 2.339-1.184 4.43-2.694 6.388-4.386 6.7-4.795 13.284-9.779 19.477-14.979 6.945-5.829 19.501-11.539 21.879-21.07.293-1.187.059-2.804-.96-3.624"/><path d="m245.29 336.54c-7.802 13.713-18.585 25.03-30.22 35.494-10.384 9.356-17.869 22.717-29.04 31.26-2.962 2.261-1.345 7.03 2.598 6.159 4.507-.984 7.343-5.667 10.15-8.99 5.238-6.179 11.403-11.432 16.363-17.879 11.568-15.05 26.23-25.777 35.611-42.856 1.958-3.573-3.45-6.73-5.458-3.193"/><path fill="#eb7eff" d="m208.96 344.54c-9.234-.482-17.255 2.285-25.432 4.497-3.635.02-7.285-.068-10.93-.068-17.416-.028-10.438.156-3.879-8.42 5.92-7.738 18.03-18.746 6.954-27.04-.78-.59-2.314-.584-3.089 0-.931.697-1.608 1.331-2.139 1.959-1.54-1.529-3.177-2.958-5.087-4.39-3.986-3.01-10.604-3.484-14.877-6.647 3.46-.204 7.158.166 10.253.151 2.051-.01 3.913-.155 5.71-.355 4.771.482 9.566-2.19 14.224-3.613.648-.195 1.106-2.61 1.452-2.61.01 0 .015 0 .02 0 1.15 0 2.222.135 3.294-.553.429 1.603 1.817 3.766 3.66 3.137 1.642-.555 3.02-.859 4.337-1.669.896.604 2.129.963 3.279.428 1.798-.663 3.601-1.225 5.399-1.888 3.772-1.052 2.164-6.883-1.613-5.815-.828.238-1.486.462-2.081.656-.828-1.359-2.515-2.179-3.996-1.062-1.014.853-2.081 1.616-3.187 2.318-.005-2.217-2.748-3.113-4.454-2.29-1.252.604-2.388 1.306-3.508 2.02-.741-1.427-2.573-1.958-4.142-1.237-.984.444-2.251 1.496-3.557 2.534 1.023-2.378-1.428-6.091-4.098-4.064-.419.312-.745.663-1.135.985-3.362 2.148-6.481 3.615-8.552 6.89-.351.01-.697.059-1.052.049-5.531-.02-11.656-1.131-16.914.809-2.056.751-2.739 2.661-1.876 4.62 1.593 3.649 4.161 5.116 7.577 7.02 8.08 4.507 15.06 6.583 21.285 14.233.39.487.877.731 1.375.857-2.593 4.868-7.207 9.59-10.794 13.693-3.533 4.054-7.767 5.887-6.695 11.485-4.663-.341-9.292-.824-13.907-1.375.492-1.388-.239-3.162-2.251-3.293-1.706-.107-3.309-.073-4.961-.107 1.028-1.072.609-3.318-1.159-3.085-5.063.663-4.639.556-9.609 1.833-.619.155-.892.555-1.023 1-.979.269-1.939.585-2.943.794-1.384.288-1.745 1.73-1.335 2.842-2.617.419-2.524 4.57.365 4.609 2.992.039 6.03-.312 9.03-.896 10.394 1.545 21.903 5.657 32.26 4.205 6.866-.96 13.176-.453 19.682-1.944 10.959.146 21.977-1.374 31.586-5.798 2.808-1.298 1.171-5.275-1.465-5.406"/><path fill="#eb7eff" d="m320.15 298.31c-.745 1.077-1.354 2.144-1.909 3.216-.22-.696-.419-1.783-.6-2.981 1.676-3.996 2.558-10.76-1.199-13.614-4.702-3.578-12.426-.513-15.174-7.69-1.335-3.479-2.324-6.257-4.444-9.132 1.652-3.02 2.992-6.12 3.201-9.463.171-2.88-3.337-3.713-5.198-2.149-4.108 3.461-8.723 10.579-13.747 14.702 1.739-4.824 5.502-8.718 5.921-14.08.219-2.821-3.367-3.762-5.175-2.144-2.378 2.134-6.832 8.576-11.198 13.195 1.594-2.5 3.177-5.02 3.996-7.952.828-2.973-2.865-4.971-5.03-2.934-1.01.955-2.105 2.28-3.24 3.732.063-2.261-3.24-4.122-5.156-2.173-1.397 1.423-2.895 3.659-4.448 6.135-.673.96-1.32 1.944-1.968 2.929.385-.799.789-1.599 1.135-2.397 1.232-2.904-2.135-6.218-4.658-3.596-.887.915-1.711 1.938-2.515 3.01-1.019-.785-2.456-.955-3.436.224-5.34 6.462-10.852 13.985-13.853 21.826-.214.561-.195 1.077-.049 1.555-.594.116-1.16.438-1.549 1.062-1.345 2.149-2.441 4.493-3.528 6.847-.868-.214-1.862.005-2.417.916-1.832 3-3.664 6.087-4.517 9.459-2.02 3.406-4.342 6.86-4.634 10.778-.127 1.638 2.095 2.427 3.158 1.311 2.061-2.139 3.674-4.799 5.106-7.597.858-.994 1.579-2.071 2.281-3.148.828 1.238 2.573 1.774 3.781.479 5.258-5.647 10.253-14.336 14.214-23.12.667.517 1.496.809 2.422.487 1.398-.487 2.709-1.394 3.986-2.456.575.331 1.296.463 2.144.189 3.451-1.101 6.276-3.356 8.834-6.076.503.965 1.418 1.696 2.617 1.657 4.06-.117 7.719-2.904 11.08-6.433-.326 1.286-.551 2.632-.443 4.133.131 2.01 1.91 3.605 3.981 3.03 2.972-.829 5.574-2.681 8.01-4.932-.789 1.403-1.496 2.787-1.954 4.122-.901 2.646 2.368 5 4.659 3.572 3.273-2.032 3.985-5.01 5.218-7.748 2.042 4.376 1.974 8.415 7.144 11.441 3.119 1.827 9.585 1.632 11.301 4.644-.994.502-1.734 1.423-1.662 2.71.088 1.588.181 2.407.541 3.615.556 3.255 1.462 6.563 3.265 9.05-2.869 2.948-5.335 6.529-7.318 9.38-1.842 2.656 1.896 6.579 4.556 4.557 3.183-2.417 3.693-2.89 6.04-6.092.293-.398.41-.789.459-1.169.38.029.76.117 1.145-.024 3.874-1.374 4.79-3.01 6.511-6.963.473-1.092.375-2.29-.103-3.236.181-.672.351-1.359.478-2.114.658-3.716-3.883-5.733-6.05-2.556"/><path fill="#eb7eff" d="m398.72 341.11c-2.358-1.754-4.834-1.462-7.455-1.754-.089-1.248-.799-2.407-2.314-2.764-4.912-1.145-9.761-2.197-14.556-3.776-2.202-.731-7.109-2.733-9.385-1.188-1.374.936-2.554 2.173-3.679 3.518-.917.438-1.545 1.291-1.779 2.281-1.218 1.705-2.402 3.469-3.63 5.203-.624-.457-1.359-.755-2.101-.672-7.05.779-12.475 6.188-17.02 11.231-1.964 2.179-4.25 4.03-6.661 5.736-.79-.474-1.735-.717-2.748-.474-3.285.785-6.379 1.877-9.425 3.036.648-2.266-.57-4.595-3.377-4.795-5.662-.404-11.554 1.535-16.875 3.226-11.412 3.626-21.543 5.02-33.29 5.146.024-1.613-1.823-2.909-3.45-2.456-1.033-.857-2.475-1.043-3.596.336-1.832 2.256-3.742 4.128-5.131 6.681-.595 1.092-.614 2.851.473 3.698 10.485 8.123 23.687 8.328 36.424 6.53 6.506-.921 14.546-2.461 22.2-4.937 4.761-1.258 9.463-2.797 14.1-4.707 4.562-1.871 8.567-4.308 12.475-7.271 1.623-1.188 3-2.631 4.147-4.342 1.159.663 2.953.575 3.845-.672.555-.79 1.749-.824 2.533-1.38 6.438-1.93 11.963-8.508 15.949-13.819 2.163.873 4.376 1.481 6.632 1.813 2.159.955 4.415 1.671 6.632 2.095.332.322.663.653 1.141.828 2.636.985 4.907 2.11 7.743 2.369 1.501.141 2.655-1.062 3.02-2.438.75-.15 1.32-.506 1.696-1.032 2.01.073 4.01.175 5.994.136 3.085-.051 3.675-3.739 1.462-5.386"/><path fill="#eb7eff" d="m436.3 263c-.254 0-.508 0-.765 0-1.613 0-2.617 2.046-3.037 3.211 0 .005-.004.567-.014.567-.994-.492-2.198-.329-3.227.181-4.249 2.105-7.942 5.096-11.431 8.282-1.214 1.106-1.244 3.335-.196 4.612-2.918 2.046-5.661 4.631-8.01 7.326-.521.238-1.032.594-1.433 1.164-.389.644-.798 1.271-1.208 1.904-.098.137-.2.287-.302.419-.011 0-.015-.01-.02-.015-.103.171-.234.316-.341.492-.439.234-.849.561-1.189 1.043-.088.132-.17.258-.263.39-.95-.463-2.115-.556-3.144-.039-2.689 1.326-4.936 3.421-7.246 5.385-3.094.96-5.77 2.577-7.967 5.077-1.154 1.316-.994 3.329-.029 4.586-3.221 2.383-6.169 4.921-5.579 9.731-4.284 1.276-8.134 2.87-10.643 4.171-2.714 1.413-1.939 5.53.823 6.315 5.253 1.485 10.185.608 15.05-.813 2.393 1.159 4.869 1.305 7.276.721 3.645 1.096 7.421.779 10.383-1.706.712-.034 1.395-.072 2.053-.116.321-.005.151-.059.474-.068 1.711-.122 3.691-.254 3.691-.341 0-.015 0-.03 0-.039 0-.04 1.1-.029 1.4-.078 3.664-.604 3.074-6.793-.624-6.486-1.267.103-2.395.215-3.662.327.063-.668.025-1.326-.287-1.891.282-.127.576-.303.849-.439.779-.146 1.557-.302 2.332-.478 2.729-.438 5.467-1.451 7.742-2.602.613-.302 1-.779 1.19-1.311.415-.356.85-.673 1.22-1.087 1.871-2.13.575-5.194-2.231-5.395-4.01-.287-8.02-.404-12.04-.531 1.082-1.9 2.105-3.801 3.133-5.701 2.438-2.28 4.737-4.707 6.954-7.222 1.058-1.097 2.086-2.222 3.109-3.357 3.299-2.519 6.408-5.268 8.995-8.273 1.027-.244 1.93-.951 2.231-2.252.127-.53.376-.989.551-1.496 2.68-1.997 5.16-5.345 7.134-6.768 2.591-1.87 1.895-7.4-1.702-7.4m-37.37 45.561c-1.584.078-3.178.117-4.79-.006 1.331-1.223 2.715-2.401 3.825-3.746.429.097.912.093 1.438-.063.043.453.155.872.356 1.252-.703.633-.947 1.598-.829 2.563"/><path fill="#eb7eff" d="m385.16 275.67c-.921-.652-1.687-1.51-2.51-2.29-.054-.058-.122-.107-.176-.16-5.106-4.888-8.668-11.593-13.454-16.68-6.816-7.251-15.934-13.01-24.886-17.11-.307-.137-.608-.253-.911-.385.902-1.447.995-3.309-.57-4.629-9.434-7.948-22.443-7.5-33.769-3.787.731-2.592-1.359-5.429-4.479-4.688-11.295 2.689-34.602 7.349-38.743 20.19-.775 2.393 1.305 5 3.767 4.946 9.696-.225 19.271-5.652 28.398-8.459 8.406-2.582 16.373-2.392 24.394-1.93 10.965 1.852 21.504 6.593 30.948 12.513 8.386 5.263 13.575 13.245 19.812 20.2-1.043.36-2.052.838-2.982 1.618-1.511 1.276-.804 3.421.552 4.405-1.94 1.861-.469 5.02 2.211 5.321 2.037.409 4.074.433 6.126.068 1.472-.107 2.407-.985 2.826-2.043.882-.336 1.769-.677 2.65-1.013 2.91-.908 3.116-4.427.796-6.084"/><path fill="#eb7eff" d="m254.54 324.87c-5.507 3.571-9.342 9.205-13.717 13.995-2.178 2.387-4.517 5.165-7.393 6.68-1.374.727-2.651 2.149-3.849 3.699-1.627-1.696-3.367-3.538-4.176-5.209-1.077-2.232-4.975-.609-4.02 1.695.482 1.189 1.121 2.246 1.789 3.274-.283.443-.454.941-.415 1.496.195 3.095.863 6.101 3.167 8.294 1.559 1.481 3.625.965 4.819-.619 4.966-6.578 11.403-11.675 17.03-17.723 2.344-2.519 4.956-5.248 7.06-7.933 1.828-2.329 2.969-2.642 3.02-5.75.02-1.617-1.905-2.805-3.318-1.899"/><path d="m494.25 314.24c.321-9.775-13.483-9.965-19.852-12.605-17.938-7.437-41.01 2.567-59.42-1.833 12.514-10.311 23.906-22.356 33.91-35.02 2.213-2.787.205-6.559-3.439-5.896-15.413 2.821-31.889 10.291-46.614 15.773-1.608.599-3.415 1.164-5.141 1.734-9.186-36.805-58.33-52.3-91.21-55.4-2.315-.215-3.393 3.542-1.224 4.474 12.235 5.228 24.271 6.266 37.25 9.06 17.82 3.839 41.678 26.425 47.9 42.613.165.463.233.926.39 1.384-21.03 6.077-47.881 10.189-66.821 8.465-3.279-.297-3.152 4.653 0 5.05 21.533 2.7 44.587-3.488 65.64-7.791.882-.186 1.754-.435 2.636-.639.029.142.024.277.049.419 2.14-.701 4.435-.677 6.661-.068-.078-.662-.078-1.354-.16-2.01 14.193-4.01 28.01-9.999 42.11-13.844-9.43 10.911-19.931 21.417-31.29 29.866-.181.137-.288.355-.443.521.21 1.896.327 3.83.321 5.794.044.029.068.083.122.107 8.562 3.917 18.438 2.524 27.663 2.558 15.184.063 29.28 1.93 44.23 3.884 15.765 2.066-12.883 12.499-16.63 13.273-13.806 2.87-27.28 1.818-40.782 6.501-2.514.882-3.888 4.269-1.646 6.295 8 7.286 20.223 6.146 30.378 8.859 6.909 1.842 15.743 5.77 22.278 8.61 13.469 5.843-13.167 6.311-16.427 6.281-24.23-.195-47.734-6.783-71.2-13.342h-.005c-6.271.307-12.313-1.15-18.277-2.953-4.123-1.258-8.183-2.173-11.08-4.727-5.205-1.208-10.409-2.314-15.647-3.167-4.756-.78-6.559 5.525-1.988 7.222 1.336.502 2.676 1 4.01 1.501.911.336 1.705.253 2.349-.089 5.214 1.111 10.423 2.228 15.604 3.479-14.419 12.494-31.392 22.02-45.39 26.558-19.253 6.236-43.578 5.297-63.32-3.1 3.27-2.505 6.453-5.106 9.75-7.582 4.133-3.075 12.67-10.253 16.627-11.52 4.03-1.286 2.358-7.02-1.73-6.267-7.777 1.423-16.87 10.672-23.05 15.32-2.748 2.076-5.477 4.2-8.181 6.335-4.746 4.941-10.686 8.712-15.725 13.4-1.042.975-2.275 1.394-3.528 1.55-4.405 3.284-8.893 6.461-13.517 9.409.156-.103-13.06 9.81-9.985 3.933 3.382-6.467 10.07-12.211 15.886-17.586-.663-1.623-.648-3.484.726-5.352.322-.462.75-.842 1.092-1.295-.02-.016-.034-.034-.063-.049.487-.512.965-1.039 1.442-1.555 2.09-2.632 4.167-5.292 6.544-7.68 1.983-1.983 3.952-4.396 6.447-5.779 1.657-1.462 3.357-2.86 5.194-4.122.633-.439 1.286-.683 1.944-.858 4.858-6.29 9.604-12.64 14.16-18.955 1.637-2.266-2.101-4.386-3.718-2.179-6.783 9.195-13.888 18.19-21.338 26.875-8.625-8.649-14.292-19.936-14.784-34.04-1.564-43.646 39.11-75.06 73.59-91.85 1.188-.58.321-2.68-.926-2.164-18.205 7.621-39.758 15.04-51.4 32.13-3.616 5.312-7.119 10.457-10.355 15.603-.014-1.066-.707-2.104-2.11-2.1-22.386.063-41.814.818-63.34-6.744-16.08-5.652-29-18.469-44.669-23.483-2.637-.848-5.599 2.534-3.796 4.941 5.01 6.695 14.06 14.02 21.771 16.977 7.87 3.01 15.12 9.122 23 11.841 5.355 1.856 20.909 7.611 9.253 11.379-7.66 2.47-29.28-.084-31.416 10.798-1.74 8.844 20.13 12.879 25.04 15.252 18.542 8.98-24.905 21.504-32.15 22.26-7.636.789-15.15 2.646-19.677 9.07-.916 1.301-.556 3.41.575 4.458 5.867 5.438 12.373 5.209 20.559 6.125 16.08 1.803 32.609 2.749 48.16 2.759v-7.417c-15.554.01-23.18.176-34.37-1.141-4.736-.55-31.376-2.572-17.971-5.944 13.649-3.44 26.45-4.941 39.09-12.221 18.439-10.624 3.05-23.269-9.38-27.932-1.662-.624-11.51-5.204-12.616-4.376 3.304-2.466 10.345-2.349 14.258-2.89 6.715-.94 15.769-1.413 20.32-7.197 3.187-4.05.409-9.727-2.733-12.869-.186-.19-.478-.302-.678-.482 16.733 3.304 32.366 2.036 50.746 1.208.458-.014.711-.272 1.023-.467-9.473 15.363-16.334 30.894-15.773 50.794.39 13.767 6.491 24.837 15.734 33.36-4.995 5.595-10.116 11.09-15.486 16.31-6.515 6.33-16.841 13.932-15.754 24.23.131 1.286.813 2.646 2.227 2.924 10.04 1.998 26.84-13.08 33.74-18.604 5.102-4.094 10.311-8.01 15.457-12 19.04 8.444 41.965 10.837 59.05 7.577 22.566-4.298 45.971-16.412 63.59-33.545 17.547 4.391 35.01 9.131 52.704 12.952 17.923 3.864 44.836 9.756 62.13 1.871 20.652-9.414-21.786-23.03-44.522-29.793 21.356-2.519 56.928-6.767 57.4-21.401"/></g></g></switch></svg>