<?xml version="1.0" standalone="no"?>
<!DOCTYPE svg PUBLIC "-//W3C//DTD SVG 20010904//EN"
 "http://www.w3.org/TR/2001/REC-SVG-20010904/DTD/svg10.dtd">
<svg version="1.0" xmlns="http://www.w3.org/2000/svg"
 width="700.000000pt" height="700.000000pt" viewBox="0 0 700.000000 700.000000"
 preserveAspectRatio="xMidYMid meet">
<metadata>
Created by potrace 1.11, written by Peter Selinger 2001-2013
</metadata>
<g transform="translate(0.000000,700.000000) scale(0.100000,-0.100000)"
fill="#000000" stroke="none">
<path d="M1129 6996 c-2 -2 -25 -7 -51 -10 -91 -12 -306 -92 -316 -118 -2 -4
-9 -8 -15 -8 -15 0 -130 -92 -181 -145 -124 -129 -215 -311 -244 -489 -9 -56
-9 -3920 0 -3974 66 -386 362 -686 748 -757 61 -11 335 -14 1479 -15 772 0
1407 -2 1411 -5 12 -7 -3 -155 -25 -251 -48 -208 -171 -417 -355 -604 -110
-111 -139 -137 -241 -212 -187 -139 -389 -249 -644 -354 l-130 -54 95 5 c52 3
115 7 140 10 25 3 77 7 115 10 39 3 81 7 95 9 14 3 52 7 85 11 32 4 62 8 65
10 3 1 28 6 55 9 28 4 97 16 155 27 58 11 116 23 130 25 63 12 307 79 420 116
728 237 1195 658 1340 1206 l11 42 267 1 c147 0 291 2 319 4 136 11 292 67
417 149 214 141 350 346 400 606 22 113 22 3887 0 4000 -41 212 -137 384 -294
526 -95 86 -261 177 -365 200 -149 34 -111 33 -2521 34 -1298 0 -2363 -2
-2365 -4z m1481 -755 c17 -33 12 -52 -38 -141 -93 -166 -114 -256 -111 -475 2
-149 3 -163 27 -207 27 -51 56 -70 137 -88 65 -15 202 -15 240 -1 17 7 62 46
102 87 39 41 88 81 108 90 87 36 232 26 302 -21 43 -29 90 -89 98 -126 6 -29
25 -41 25 -16 0 21 41 90 68 116 14 13 49 34 76 47 43 20 64 23 136 20 49 -1
101 -10 122 -19 21 -9 71 -50 111 -91 40 -41 86 -80 103 -87 46 -18 195 -13
272 11 54 16 71 26 90 54 34 50 39 85 40 253 0 199 -13 257 -94 419 -71 142
-76 173 -33 188 20 7 37 4 70 -12 51 -25 182 -150 243 -232 22 -30 44 -57 47
-60 15 -12 92 -143 121 -206 32 -67 33 -73 33 -204 0 -152 -6 -210 -30 -290
-36 -118 -100 -212 -189 -277 -34 -25 -63 -46 -65 -48 -2 -2 23 -35 56 -72
110 -125 201 -283 261 -453 35 -99 66 -234 59 -253 -4 -11 -31 -13 -114 -11
-59 1 -190 3 -290 5 l-182 2 -16 47 c-21 65 -69 154 -120 225 -38 53 -73 88
-165 166 -50 42 -204 108 -300 128 -123 26 -387 22 -577 -8 -112 -18 -125 -21
-193 -48 -102 -40 -165 -93 -214 -179 -26 -46 -62 -173 -70 -249 -3 -27 -8
-74 -11 -102 -8 -66 -8 -453 -1 -513 5 -41 10 -74 22 -155 17 -107 75 -264
130 -350 118 -185 296 -291 557 -329 83 -12 347 -13 402 -2 17 3 46 9 65 12
70 11 186 56 239 92 101 70 150 153 155 267 l1 30 -70 -1 c-38 0 -123 -3 -188
-5 l-119 -4 -69 185 c-38 102 -83 223 -100 270 -18 47 -34 90 -36 96 -5 14
1269 15 1279 0 3 -5 5 -28 3 -50 -3 -23 -7 -83 -10 -135 -3 -51 -7 -96 -9
-100 -2 -3 -7 -31 -11 -61 -9 -73 -57 -259 -89 -343 -150 -395 -440 -667 -819
-766 -67 -18 -151 -33 -257 -46 -52 -6 -323 -7 -360 -1 -14 2 -53 7 -88 10
-128 13 -284 51 -415 102 -275 106 -497 287 -659 540 -79 123 -183 377 -213
524 -7 30 -23 114 -30 155 -2 17 -7 40 -9 51 -23 116 -24 568 -1 636 2 7 6 29
9 48 31 212 125 424 259 582 l55 64 -42 27 c-50 31 -123 106 -158 163 -30 46
-72 175 -83 249 -4 28 -8 109 -10 182 -2 155 15 227 84 343 47 79 142 200 192
245 49 43 132 103 160 114 42 17 87 13 99 -8z"/>
</g>
</svg>
