<svg version="1.1" xmlns:svg="http://www.w3.org/2000/svg" xmlns="http://www.w3.org/2000/svg" x="0" y="0" width="50" height="50" viewBox="-2 0 50 50" enable-background="new -2.001 -0.001 50.003 50.003" xml:space="preserve"><g transform="translate(-156.94799,-309.83779)"><g transform="translate(106.33914,-525.03507)"><path fill="#A22430" d="M89.8 834.9H57.4c-3.6 0-6.6 2.9-6.6 6.6v26.3c0 3.6 2.9 6.6 6.6 6.6h19.5c0 7.4-10.1 10.6-10.1 10.6s17-0.1 19.4-10.6h3.6c3.6 0 6.6-2.9 6.6-6.6v-26.3C96.4 837.8 93.5 834.9 89.8 834.9zM73.8 869.1c-8.7-0.4-10.7-7.3-10.8-12 0-2.5 0.4-5.4 2.5-7.4 -2.2-1.2-2.1-3.6-2.1-5 0-2.1 3.1-5.1 3.8-4.4 0.7 0.6-1.2 1.2-1 4.3 0.1 1.3-0.3 2.4 2.2 2.4 1.7 0 1-1.5 3.2-1.5 1.3 0 1.8 0.8 1.9 1.5 0.2-0.7 0.7-1.5 1.9-1.5 2.2 0 1.5 1.5 3.2 1.5 2.6 0 2.2-1 2.2-2.4 0.1-3.1-1.7-3.7-1-4.3 0.7-0.6 3.7 3 3.8 4.4 0.1 1.5 0.1 3.8-2.1 5 2.5 2.4 2.8 5.6 2.8 5.6l-4.3-0.1c0 0-1-4.4-6.1-4.2 -5.2 0.2-5.8 1.1-5.8 6.6 0 5.5 2.4 7.3 6.1 7.5 5.8 0.2 5.2-3 5.2-3l-2.7 0.2 -1.5-4h9.2C84.4 862.7 82.6 869.5 73.8 869.1z"/></g></g></svg>